# Thingi10K 188018, exact-welded from the raw STL. Non-manifold on purpose.
v -1.52725196 -0.628583848 0.13517642
v -1.37546217 -0.912562966 0.13517642
v -1.30011475 -0.862217426 0.127718821
v -1.44353032 -0.59390527 0.127718821
v -1.17118752 -1.16147268 0.13517642
v -1.10710979 -1.09739494 0.127718821
v -0.922278106 -1.36574757 0.13517642
v -0.871932447 -1.29040015 0.127718821
v -0.638299108 -1.51753759 0.13517642
v -0.60362041 -1.43381596 0.127718821
v -0.330164075 -1.6110096 0.13517642
v -0.312485039 -1.52213109 0.127718821
v -0.00971425604 -1.64257133 0.13517642
v -0.00971422251 -1.55195165 0.127718821
v 0.310735554 -1.61100972 0.13517642
v 0.293056577 -1.52213132 0.127718821
v 0.618870676 -1.51753819 0.13517642
v 0.584192038 -1.43381655 0.127718821
v 0.902849615 -1.36574829 0.13517642
v 0.852504075 -1.29040074 0.127718821
v 1.15175927 -1.16147339 0.13517642
v 1.08768141 -1.09739566 0.127718821
v 1.35603416 -0.912563801 0.13517642
v 1.28068662 -0.862218201 0.127718821
v 1.50782394 -0.628584862 0.13517642
v 1.42410231 -0.593906164 0.127718821
v 1.60129559 -0.320449889 0.13517642
v 1.5124172 -0.302770883 0.127718821
v 1.63285708 -2.97398827e-07 0.13517642
v 1.5422374 -2.80991486e-07 0.127718821
v 1.60129559 0.320449322 0.13517642
v 1.5124172 0.302770346 0.127718821
v 1.50782394 0.628584206 0.13517642
v 1.42410231 0.593905568 0.127718821
v 1.35603416 0.912562966 0.13517642
v 1.28068662 0.862217426 0.127718821
v 1.15175927 1.16147256 0.13517642
v 1.08768141 1.09739482 0.127718821
v 0.902849734 1.36574745 0.13517642
v 0.852504134 1.29040003 0.127718821
v 0.618870974 1.51753724 0.13517642
v 0.584192336 1.4338156 0.127718821
v 0.310735941 1.611009 0.13517642
v 0.293056935 1.52213049 0.127718821
v -0.330160975 1.61100936 0.13517642
v -0.00971372053 1.64257061 0.13517642
v -0.0097137168 1.55195081 0.127718821
v -0.312482059 1.52213097 0.127718821
v -1.17118526 1.16147399 0.13517642
v -0.922275424 1.36574864 0.13517642
v -0.871929944 1.2904011 0.127718821
v -1.10710764 1.09739614 0.127718821
v -1.62072277 0.320450962 0.13517642
v -1.52725065 0.628585935 0.13517642
v -1.44352901 0.593907237 0.127718821
v -1.53184438 0.302771866 0.127718821
v -1.62072337 -0.320448697 0.13517642
v -1.53184497 -0.302769721 0.127718821
v -1.09665525 1.08694363 -0.142090037
v -0.863717496 1.27811027 -0.142090037
v -1.5173465 0.299888045 -0.142090037
v -1.42987227 0.588250399 -0.142090037
v -1.4298737 -0.588248432 -0.142090037
v -1.5173471 -0.299885929 -0.142090037
v -0.86372 -1.27810931 -0.142090037
v -1.09665728 -1.08694267 -0.142090037
v -0.00971421599 -1.53716969 -0.142090037
v -0.309601188 -1.50763333 -0.142090037
v 0.844291627 -1.27811003 -0.142090037
v 0.578535199 -1.42015994 -0.142090037
v 1.41044569 -0.588249326 -0.142090037
v 1.2683959 -0.854005694 -0.142090037
v 1.49791932 0.299886525 -0.142090037
v 1.52745545 -2.77271511e-07 -0.142090037
v 1.07722902 1.08694232 -0.142090052
v 1.2683959 0.854005098 -0.142090037
v 0.290173113 1.50763273 -0.142090052
v 0.578535497 1.42015898 -0.142090037
v -0.00971371587 1.53716886 -0.142090037
v -0.309598267 1.50763321 -0.142090052
v -0.603617668 1.43381643 0.127718821
v -0.597960889 1.4201597 -0.142090037
v -1.30011284 0.862219095 0.127718821
v -1.28782213 0.854006767 -0.142090037
v -1.56166482 1.10040219e-06 0.127718821
v -1.54688287 1.0909647e-06 -0.142090037
v -1.28782392 -0.85400492 -0.142090037
v -0.597963631 -1.42015934 -0.142090037
v 0.290172756 -1.50763345 -0.142090037
v 1.07722902 -1.08694315 -0.142090037
v 1.49791932 -0.299887061 -0.142090037
v 1.41044569 0.588248789 -0.142090037
v 0.844291747 1.27810919 -0.142090037
v -1.6522845 1.1646556e-06 0.13517642
v -1.37546039 0.912564754 0.13517642
v -0.638296187 1.51753819 0.13517642
v -0.919306755 1.36130571 -0.151339039
v -0.63625139 1.51260149 -0.151339039
v 1.62751365 -2.95319779e-07 -0.151339039
v 1.59605503 -0.319407463 -0.151339039
v 1.50288737 0.62653935 -0.151339039
v 1.35159123 0.909594357 -0.151339039
v -0.919309378 -1.36130476 -0.151339039
v -1.16740918 -1.15769446 -0.151339039
v 1.50288737 -0.626540005 -0.151339039
v 1.35159123 -0.909595072 -0.151339039
v 1.59605503 0.319406897 -0.151339039
v 0.899880946 -1.36130536 -0.151339039
v 1.14798081 -1.15769506 -0.151339039
v -1.5223155 -0.626538992 -0.151339039
v -1.37101936 -0.909594238 -0.151339039
v -1.61548209 0.319408506 -0.151339039
v -1.64694107 1.16197839e-06 -0.151339039
v -1.16740704 1.15769553 -0.151339039
v -1.37101734 0.909596205 -0.151339039
v -0.0097137196 1.63722718 -0.151339039
v 0.309693515 1.60576832 -0.151339039
v 1.14798093 1.1576941 -0.151339039
v 0.616825819 -1.51260161 -0.151339039
v 0.616826117 1.51260078 -0.151339039
v 0.899881124 1.36130464 -0.151339039
v 0.309693098 -1.60576916 -0.151339039
v -0.00971425325 -1.63722789 -0.151339039
v -0.329121619 -1.60576892 -0.151339039
v -0.636254251 -1.51260102 -0.151339039
v -1.61548281 -0.319406241 -0.151339039
v -1.52231395 0.626541138 -0.151339039
v -0.32911852 1.6057688 -0.151339039
f 1 2 3
f 3 4 1
f 2 5 6
f 6 3 2
f 5 7 8
f 8 6 5
f 7 9 10
f 10 8 7
f 9 11 12
f 12 10 9
f 11 13 14
f 14 12 11
f 13 15 16
f 16 14 13
f 15 17 18
f 18 16 15
f 17 19 20
f 20 18 17
f 19 21 22
f 22 20 19
f 21 23 24
f 24 22 21
f 23 25 26
f 26 24 23
f 25 27 28
f 28 26 25
f 27 29 30
f 30 28 27
f 29 31 32
f 32 30 29
f 31 33 34
f 34 32 31
f 33 35 36
f 36 34 33
f 35 37 38
f 38 36 35
f 37 39 40
f 40 38 37
f 39 41 42
f 42 40 39
f 41 43 44
f 44 42 41
f 45 46 47
f 47 48 45
f 49 50 51
f 51 52 49
f 53 54 55
f 55 56 53
f 1 57 58
f 58 4 1
f 7 5 6
f 6 8 7
f 13 11 12
f 12 14 13
f 19 17 18
f 18 20 19
f 25 23 24
f 24 26 25
f 31 29 30
f 30 32 31
f 37 35 36
f 36 38 37
f 43 41 42
f 42 44 43
f 51 52 59
f 59 60 51
f 55 56 61
f 61 62 55
f 58 4 63
f 63 64 58
f 6 8 65
f 65 66 6
f 12 14 67
f 67 68 12
f 18 20 69
f 69 70 18
f 24 26 71
f 71 72 24
f 30 32 73
f 73 74 30
f 36 38 75
f 75 76 36
f 42 44 77
f 77 78 42
f 48 47 79
f 79 80 48
f 52 51 60
f 60 59 52
f 56 55 62
f 62 61 56
f 4 58 64
f 64 63 4
f 8 6 66
f 66 65 8
f 14 12 68
f 68 67 14
f 20 18 70
f 70 69 20
f 26 24 72
f 72 71 26
f 32 30 74
f 74 73 32
f 38 36 76
f 76 75 38
f 44 42 78
f 78 77 44
f 48 81 82
f 82 80 48
f 52 83 84
f 84 59 52
f 56 85 86
f 86 61 56
f 4 3 87
f 87 63 4
f 8 10 88
f 88 65 8
f 14 16 89
f 89 67 14
f 20 22 90
f 90 69 20
f 26 28 91
f 91 71 26
f 32 34 92
f 92 73 32
f 38 40 93
f 93 75 38
f 44 47 79
f 79 77 44
f 57 1 4
f 4 58 57
f 94 57 58
f 58 85 94
f 53 94 85
f 85 56 53
f 54 53 56
f 56 55 54
f 95 54 55
f 55 83 95
f 49 95 83
f 83 52 49
f 50 49 52
f 52 51 50
f 96 50 51
f 51 81 96
f 45 96 81
f 81 48 45
f 46 45 48
f 48 47 46
f 41 39 40
f 40 42 41
f 35 33 34
f 34 36 35
f 29 27 28
f 28 30 29
f 23 21 22
f 22 24 23
f 17 15 16
f 16 18 17
f 11 9 10
f 10 12 11
f 5 2 3
f 3 6 5
f 57 94 85
f 85 58 57
f 54 95 83
f 83 55 54
f 50 96 81
f 81 51 50
f 46 43 44
f 44 47 46
f 39 37 38
f 38 40 39
f 33 31 32
f 32 34 33
f 27 25 26
f 26 28 27
f 21 19 20
f 20 22 21
f 15 13 14
f 14 16 15
f 9 7 8
f 8 10 9
f 2 1 4
f 4 3 2
f 94 53 56
f 56 85 94
f 95 49 52
f 52 83 95
f 96 45 48
f 48 81 96
f 43 46 47
f 47 44 43
f 82 60 97
f 97 98 82
f 91 74 99
f 99 100 91
f 76 92 101
f 101 102 76
f 66 65 103
f 103 104 66
f 72 71 105
f 105 106 72
f 74 73 107
f 107 99 74
f 47 48 80
f 80 79 47
f 42 40 93
f 93 78 42
f 36 34 92
f 92 76 36
f 30 28 91
f 91 74 30
f 24 22 90
f 90 72 24
f 18 16 89
f 89 70 18
f 12 10 88
f 88 68 12
f 6 3 87
f 87 66 6
f 58 85 86
f 86 64 58
f 55 83 84
f 84 62 55
f 51 81 82
f 82 60 51
f 40 42 78
f 78 93 40
f 34 36 76
f 76 92 34
f 28 30 74
f 74 91 28
f 22 24 72
f 72 90 22
f 16 18 70
f 70 89 16
f 10 12 68
f 68 88 10
f 3 6 66
f 66 87 3
f 85 58 64
f 64 86 85
f 83 55 62
f 62 84 83
f 81 51 60
f 60 82 81
f 47 44 77
f 77 79 47
f 40 38 75
f 75 93 40
f 34 32 73
f 73 92 34
f 28 26 71
f 71 91 28
f 22 20 69
f 69 90 22
f 16 14 67
f 67 89 16
f 10 8 65
f 65 88 10
f 3 4 63
f 63 87 3
f 85 56 61
f 61 86 85
f 83 52 59
f 59 84 83
f 81 48 80
f 80 82 81
f 90 69 108
f 108 109 90
f 87 63 110
f 110 111 87
f 86 61 112
f 112 113 86
f 84 59 114
f 114 115 84
f 77 79 116
f 116 117 77
f 71 91 100
f 100 105 71
f 75 76 102
f 102 118 75
f 69 70 119
f 119 108 69
f 116 46 43
f 43 117 116
f 117 43 41
f 41 120 117
f 120 41 39
f 39 121 120
f 121 39 37
f 37 118 121
f 118 37 35
f 35 102 118
f 102 35 33
f 33 101 102
f 101 33 31
f 31 107 101
f 107 31 29
f 29 99 107
f 99 29 27
f 27 100 99
f 100 27 25
f 25 105 100
f 105 25 23
f 23 106 105
f 106 23 21
f 21 109 106
f 109 21 19
f 19 108 109
f 108 19 17
f 17 119 108
f 119 17 15
f 15 122 119
f 122 15 13
f 13 123 122
f 123 13 11
f 11 124 123
f 124 11 9
f 9 125 124
f 125 9 7
f 7 103 125
f 103 7 5
f 5 104 103
f 104 5 2
f 2 111 104
f 111 2 1
f 1 110 111
f 110 1 57
f 57 126 110
f 126 57 94
f 94 113 126
f 113 94 53
f 53 112 113
f 112 53 54
f 54 127 112
f 127 54 95
f 95 115 127
f 115 95 49
f 49 114 115
f 114 49 50
f 50 97 114
f 97 50 96
f 96 98 97
f 46 116 128
f 128 45 46
f 98 96 45
f 45 128 98
f 93 75 118
f 118 121 93
f 79 77 117
f 117 116 79
f 84 62 127
f 127 115 84
f 86 64 126
f 126 113 86
f 87 66 104
f 104 111 87
f 88 68 124
f 124 125 88
f 89 70 119
f 119 122 89
f 90 72 106
f 106 109 90
f 92 76 102
f 102 101 92
f 93 78 120
f 120 121 93
f 60 82 98
f 98 97 60
f 62 84 115
f 115 127 62
f 64 86 113
f 113 126 64
f 66 87 111
f 111 104 66
f 68 88 125
f 125 124 68
f 70 89 122
f 122 119 70
f 72 90 109
f 109 106 72
f 74 91 100
f 100 99 74
f 78 93 121
f 121 120 78
f 79 80 128
f 128 116 79
f 60 59 114
f 114 97 60
f 62 61 112
f 112 127 62
f 64 63 110
f 110 126 64
f 68 67 123
f 123 124 68
f 70 69 108
f 108 119 70
f 76 75 118
f 118 102 76
f 92 73 107
f 107 101 92
f 91 71 105
f 105 100 91
f 89 67 123
f 123 122 89
f 88 65 103
f 103 125 88
f 82 80 128
f 128 98 82
f 75 93 121
f 121 118 75
f 73 92 101
f 101 107 73
f 69 90 109
f 109 108 69
f 67 89 122
f 122 123 67
f 65 88 125
f 125 103 65
f 63 87 111
f 111 110 63
f 61 86 113
f 113 112 61
f 59 84 115
f 115 114 59
f 80 82 98
f 98 128 80
f 77 78 120
f 120 117 77
f 73 74 99
f 99 107 73
f 71 72 106
f 106 105 71
f 67 68 124
f 124 123 67
f 65 66 104
f 104 103 65
f 63 64 126
f 126 110 63
f 61 62 127
f 127 112 61
f 59 60 97
f 97 114 59
f 80 79 116
f 116 128 80
f 78 77 117
f 117 120 78
