# Thingi10K 229953, exact-welded from the raw STL. Non-manifold on purpose.
v -40.1003 -47.1976 7.61189e-05
v -40.1003 -52.7748 7.61189e-05
v -41.0003 -53.6748 7.61189e-05
v -41.0003 -47.1976 7.61189e-05
v -41.0003 -53.6748 20.4701
v -41.0003 -47.1976 20.4701
v -40.1003 -47.1976 20.4701
v -40.1003 -52.7748 20.4701
v -34.0333 -53.6748 20.4701
v -34.0333 -53.6748 7.61189e-05
v -34.0333 -52.7748 7.61189e-05
v -34.0333 -52.7748 20.4701
v 41.0027 -47.1976 7.61189e-05
v 41.0027 -53.6748 7.61189e-05
v 40.1027 -52.7748 7.61189e-05
v 40.1027 -47.1976 7.61189e-05
v 40.1027 -52.7748 20.4701
v 40.1027 -47.1976 20.4701
v 41.0027 -47.1976 20.4701
v 41.0027 -53.6748 20.4701
v 34.0357 -52.7748 20.4701
v 34.0357 -52.7748 7.61189e-05
v 34.0357 -53.6748 7.61189e-05
v 34.0357 -53.6748 20.4701
v 40.1027 53.6751 20.4701
v 41.0027 53.6751 20.4701
v 41.0027 53.6751 7.61189e-05
v 40.1027 53.6751 7.61189e-05
v 40.1027 47.1978 20.4701
v 41.0027 47.1978 20.4701
v 40.1027 47.1978 7.61189e-05
v 41.0027 47.1978 7.61189e-05
v 34.0357 53.6751 7.61189e-05
v 40.1027 52.7751 7.61189e-05
v 34.0357 52.7751 7.61189e-05
v 40.1027 52.7751 20.4701
v 34.0357 52.7751 20.4701
v 34.0357 53.6751 20.4701
v -41.0003 53.6751 20.4701
v -40.1003 53.6751 20.4701
v -40.1003 53.6751 7.61189e-05
v -41.0003 53.6751 7.61189e-05
v -41.0003 47.1978 20.4701
v -40.1003 47.1978 20.4701
v -41.0003 47.1978 7.61189e-05
v -40.1003 47.1978 7.61189e-05
v -34.0333 52.7751 20.4701
v -40.1003 52.7751 20.4701
v -40.1003 52.7751 7.61189e-05
v -34.0333 52.7751 7.61189e-05
v -34.0333 53.6751 7.61189e-05
v -34.0333 53.6751 20.4701
v -22.7583 -50.2999 28.7201
v -19.2583 -46.7999 28.7201
v -19.2583 -46.7999 19.7201
v -22.7583 -50.2999 19.7201
v 37.2417 -50.2999 28.7201
v 37.2417 -46.7999 28.7201
v 37.2417 -50.2999 19.7201
v 37.2417 -46.7999 19.7201
v -22.7583 28.3237 28.7201
v -19.2583 24.8222 28.7201
v -19.2583 24.8222 19.7201
v -22.7583 28.3237 19.7201
v 27.2427 28.3022 28.7201
v 27.2407 24.8022 28.7201
v 27.2407 24.8022 19.7201
v 27.2427 28.3022 19.7201
v 27.2417 -30.0543 6.22008
v 27.2417 -26.5543 6.22008
v 27.2417 -26.5543 9.72008
v 27.2417 -30.0543 9.72008
v 27.2417 26.5475 9.72008
v 27.2417 26.5475 6.22008
v 27.2417 30.0475 6.22008
v 27.2417 30.0475 9.72008
v 37.2417 -26.5543 6.22008
v 37.2417 -26.5543 9.72008
v 37.2417 -30.0543 9.72008
v 37.2417 -30.0543 6.22008
v 37.2417 26.5475 9.72008
v 37.2417 30.0475 9.72008
v 37.2417 26.5475 6.22008
v 37.2417 30.0475 6.22008
v -37.7583 -50.2999 19.7201
v -37.7583 50.3001 19.7201
v -37.7653 -50.2999 19.7201
v -37.7583 -50.3161 19.7201
v -37.7583 50.3001 7.61189e-05
v -37.7653 -50.2999 7.61189e-05
v 37.2417 50.3001 7.61189e-05
v 37.2417 -50.2999 7.61189e-05
v 21.2427 28.309 22.7201
v 24.2427 28.3075 22.7201
v 24.2427 50.3001 22.7201
v 21.2427 50.3001 22.7201
v 18.2427 50.3001 24.2201
v 18.2427 28.309 24.2201
v 21.2427 28.3075 24.2201
v 21.2427 50.3001 24.2201
v 18.2427 50.3001 25.7201
v 15.2427 50.3001 25.7201
v 15.2427 28.309 25.7201
v 18.2427 28.3075 25.7201
v 15.2427 28.3075 27.2201
v 15.2427 50.3001 27.2201
v 12.2427 50.3001 27.2201
v 12.2427 28.309 27.2201
v -37.7583 50.3001 28.7201
v -37.7583 -50.3161 28.7201
v -22.6733 -50.2998 28.7201
v 12.2427 50.3001 28.7201
v 12.2427 28.3075 28.7201
v 37.2417 50.3001 19.7201
v -22.6733 -50.2998 19.7201
v 9.24268 28.3075 19.7201
v 9.24268 28.3075 28.7201
v 9.24268 28.309 19.7201
v 9.24268 28.309 28.7201
v 12.2427 28.3075 19.7201
v 12.2427 28.309 19.7201
v 15.2427 28.3075 19.7201
v 15.2427 28.309 19.7201
v 18.2427 28.3075 19.7201
v 18.2427 28.309 19.7201
v 21.2427 28.3075 19.7201
v 21.2427 28.309 19.7201
v 24.2427 28.3075 19.7201
v 24.2427 28.309 21.1695
v 24.2427 50.3001 21.1695
v 24.2427 28.309 19.7201
v 27.2427 28.3075 19.7201
v 27.2427 28.3075 21.1695
v 27.2427 50.3001 21.1695
v 27.2427 50.3001 19.7201
f 1 2 3
f 3 4 1
f 4 3 5
f 5 6 4
f 6 7 1
f 1 4 6
f 7 8 2
f 2 1 7
f 2 8 5
f 5 3 2
f 6 5 8
f 8 7 6
f 9 5 3
f 3 10 9
f 10 3 2
f 2 11 10
f 9 10 11
f 11 12 9
f 12 8 5
f 5 9 12
f 3 5 8
f 8 2 3
f 11 2 8
f 8 12 11
f 13 14 15
f 15 16 13
f 16 15 17
f 17 18 16
f 18 19 13
f 13 16 18
f 19 20 14
f 14 13 19
f 14 20 17
f 17 15 14
f 18 17 20
f 20 19 18
f 21 17 15
f 15 22 21
f 22 15 14
f 14 23 22
f 21 22 23
f 23 24 21
f 24 20 17
f 17 21 24
f 15 17 20
f 20 14 15
f 23 14 20
f 20 24 23
f 25 26 27
f 27 28 25
f 29 30 26
f 26 25 29
f 31 32 30
f 30 29 31
f 28 27 32
f 32 31 28
f 32 27 26
f 26 30 32
f 25 28 31
f 31 29 25
f 33 28 34
f 34 35 33
f 35 34 36
f 36 37 35
f 38 33 35
f 35 37 38
f 38 25 28
f 28 33 38
f 37 36 25
f 25 38 37
f 39 40 41
f 41 42 39
f 43 44 40
f 40 39 43
f 45 46 44
f 44 43 45
f 42 41 46
f 46 45 42
f 46 41 40
f 40 44 46
f 39 42 45
f 45 43 39
f 47 48 49
f 49 50 47
f 50 49 41
f 41 51 50
f 47 50 51
f 51 52 47
f 52 40 48
f 48 47 52
f 51 41 40
f 40 52 51
f 53 54 55
f 55 56 53
f 57 58 54
f 54 53 57
f 59 60 58
f 58 57 59
f 56 55 60
f 60 59 56
f 60 55 54
f 54 58 60
f 53 56 59
f 59 57 53
f 61 62 63
f 63 64 61
f 53 54 62
f 62 61 53
f 56 55 54
f 54 53 56
f 64 63 55
f 55 56 64
f 55 63 62
f 62 54 55
f 61 64 56
f 56 53 61
f 65 66 67
f 67 68 65
f 61 62 66
f 66 65 61
f 64 63 62
f 62 61 64
f 68 67 63
f 63 64 68
f 63 67 66
f 66 62 63
f 65 68 64
f 64 61 65
f 69 70 71
f 71 72 69
f 73 74 75
f 75 76 73
f 71 70 77
f 77 78 71
f 72 71 78
f 78 79 72
f 69 72 79
f 79 80 69
f 70 69 80
f 80 77 70
f 81 73 76
f 76 82 81
f 83 74 73
f 73 81 83
f 84 75 74
f 74 83 84
f 82 76 75
f 75 84 82
f 85 86 87
f 85 56 88
f 89 90 87
f 87 86 89
f 91 92 90
f 90 89 91
f 93 94 95
f 95 96 93
f 97 98 99
f 99 100 97
f 101 102 103
f 103 104 101
f 105 106 107
f 107 108 105
f 61 109 110
f 111 61 110
f 112 109 61
f 112 61 113
f 109 86 85
f 109 85 88
f 88 110 109
f 81 82 114
f 81 114 59
f 79 81 59
f 114 82 84
f 83 81 78
f 83 78 77
f 80 79 59
f 91 114 84
f 91 84 77
f 91 77 92
f 92 77 80
f 92 80 59
f 59 87 90
f 90 92 59
f 88 115 111
f 111 110 88
f 111 115 64
f 64 61 111
f 61 64 116
f 116 117 61
f 117 116 118
f 118 119 117
f 119 118 120
f 120 113 119
f 108 107 112
f 108 112 113
f 121 108 120
f 120 108 113
f 108 121 122
f 122 105 108
f 103 102 106
f 103 106 105
f 123 103 122
f 122 103 105
f 103 123 124
f 124 104 103
f 98 97 101
f 98 101 104
f 125 98 124
f 124 98 104
f 98 125 126
f 126 99 98
f 93 96 100
f 93 100 99
f 127 93 126
f 126 93 99
f 93 127 128
f 128 94 93
f 129 130 95
f 129 95 94
f 131 129 128
f 128 129 94
f 129 131 132
f 132 133 129
f 133 134 130
f 130 129 133
f 109 112 107
f 107 106 102
f 109 107 102
f 102 101 97
f 109 102 97
f 97 100 96
f 109 97 96
f 96 95 130
f 109 96 130
f 130 134 135
f 109 130 135
f 89 109 135
f 89 135 91
f 91 135 114
f 116 64 115
f 132 116 115
f 114 135 132
f 114 132 59
f 59 132 115
f 133 132 135
f 135 134 133
f 34 28 25
f 25 36 34
f 49 48 40
f 40 41 49
