# Thingi10K 314748, exact-welded from the raw STL. Non-manifold on purpose.
v -84.5 44.5686951 0
v -86.25 44.5686951 0
v -86.25 46.3476677 0
v -84.5 46.3476677 0
v -84.5 42.7897224 0
v -86.25 42.7897224 0
v -84.5 41.0107498 0
v -86.25 41.0107498 0
v -86.25 39.2317772 0
v -84.5 33.8948631 0
v -86.25 33.8948631 0
v -86.25 35.6738319 0
v -84.5 26.7789726 0
v -86.25 26.7789726 0
v -86.25 28.5579453 0
v -84.5 28.5579453 0
v -82.75 44.5686951 0
v -82.75 46.3476677 0
v -82.75 42.7897224 0
v -82.75 41.0107498 0
v -81 44.5686951 0
v -81 46.3476677 0
v -81 26.7789726 0
v -82.75 26.7789726 0
v -82.75 28.5579453 0
v -81 28.5579453 0
v -79.25 39.2317772 0
v -81 39.2317772 0
v -81 41.0107498 0
v -79.25 28.5579453 0
v -81 30.336916 0
v -79.25 30.336916 0
v -79.25 26.7789726 0
v -77.5 32.1158905 0
v -77.5 30.336916 0
v -77.5 28.5579453 0
v -77.5 26.7789726 0
v -75.75 41.0107498 0
v -75.75 39.2317772 0
v -77.5 39.2317772 0
v -75.75 37.4528046 0
v -77.5 37.4528046 0
v -75.75 35.6738319 0
v -77.5 35.6738319 0
v -75.75 33.8948631 0
v -77.5 33.8948631 0
v -75.75 32.1158905 0
v -75.75 30.336916 0
v -75.75 28.5579453 0
v -75.75 26.7789726 0
v -88 48.1266403 0
v -87.125 48.1266403 0
v -86.25 48.1266403 0
v -85.375 48.1266403 0
v -84.5 48.1266403 0
v -83.625 48.1266403 0
v -82.75 48.1266403 0
v -81.875 48.1266403 0
v -81 48.1266403 0
v -80.125 48.1266403 0
v -79.25 48.1266403 0
v -78.375 48.1266403 0
v -78.8473663 45 0
v -77.5 48.1266403 0
v -77.8473663 45 0
v -76.625 48.1266403 0
v -76.8473663 45 0
v -75.75 48.1266403 0
v -74.875 48.1266403 0
v -74 45.2003326 0
v -74 48.1266403 0
v -83.8473663 29 0
v -82.3381271 30.0061588 0
v -82.8473663 29.666666 0
v -80.8473663 31 0
v -81.8473663 30.333334 0
v -77.8473663 41 0
v -78.8473663 43 0
v -77.8473663 43 0
v -78.3473663 42 0
v -76.8473663 43 0
v -88 25 0
v -88 27.9263077 0
v -88 30.8660889 0
v -88 33.7276459 0
v -88 36.6345406 0
v -88 39.4514046 0
v -88 42.2679176 0
v -88 45.2743607 0
v -74 25 0
v -76.7370529 25 0
v -79.679924 25 0
v -82.331749 25 0
v -85.2263718 25 0
v -74 42.2605515 0
v -74 39.3989944 0
v -74 36.4920998 0
v -74 33.6752357 0
v -74 30.8587227 0
v -74 27.8522797 0
v -84.8473663 31 0
v -84.3473663 30 0
v -82.8473663 34 0
v -85.8473663 33 0
v -84.8473663 37 0
v -83.8412094 35.4907608 0
v -83.8473663 40 0
v -84.3504486 38.4907608 0
v -81.8473663 39 0
v -82.8473663 39.5 0
v -78.8473663 37 0
v -80.3566055 38.0061607 0
v -79.8473663 37.6666679 0
v -80.8473663 38.3333321 0
v -78.8473663 33 0
v -78.8473663 35.0123177 0
v -78.8473663 34.3333321 0
v -78.8473663 35.6666679 0
v -79.5140381 32.3333321 0
v -81.8473663 42 0
v -79.8350525 41.4969215 0
v -79.8473663 45 0
v -80.3473663 44.25 0
v -80.8473663 43.5 0
v -81.3473663 42.75 0
v -75.8473663 43 0
v -80.8473663 41.75 0
v -79.8473663 41.5 0
v -78.8473663 41.25 0
v -80.5140381 44 0
v -81.1807022 43 0
v -76.3473663 44 0
v -85.3473663 32 0
v -83.8473663 33.6666679 0
v -83.5140381 35 0
v -84.8473663 33.3333321 0
v -84.1807022 36 0
v -84.1807022 39 0
v -84.5140381 38 0
v -80.1807022 31.666666 0
v -88 48.1266403 0.5
v -88 42.2679176 0.5
v -88 39.4514046 0.5
v -88 36.6345406 0.5
v -88 33.7276459 0.5
v -88 30.8660889 0.5
v -88 27.9263077 0.5
v -88 25 0.5
v -88 45.2743607 0.5
v -83.8473663 29 0.5
v -85.8473663 33 0.5
v -77.8473663 41 0.5
v -81.8473663 42 0.5
v -78.8473663 41.25 0.5
v -79.8473663 41.5 0.5
v -80.8473663 41.75 0.5
v -84.3473663 30 0.5
v -84.8473663 31 0.5
v -85.3473663 32 0.5
v -84.5 44.5686951 0.5
v -84.5 46.3476677 0.5
v -86.25 46.3476677 0.5
v -86.25 44.5686951 0.5
v -84.5 42.7897224 0.5
v -86.25 42.7897224 0.5
v -84.5 41.0107498 0.5
v -86.25 41.0107498 0.5
v -86.25 39.2317772 0.5
v -84.5 26.7789726 0.5
v -84.5 28.5579453 0.5
v -86.25 28.5579453 0.5
v -86.25 26.7789726 0.5
v -82.75 44.5686951 0.5
v -82.75 46.3476677 0.5
v -82.75 42.7897224 0.5
v -82.75 41.0107498 0.5
v -81 44.5686951 0.5
v -81 46.3476677 0.5
v -81 26.7789726 0.5
v -81 28.5579453 0.5
v -82.75 28.5579453 0.5
v -82.75 26.7789726 0.5
v -79.25 39.2317772 0.5
v -81 41.0107498 0.5
v -81 39.2317772 0.5
v -79.25 28.5579453 0.5
v -79.25 30.336916 0.5
v -81 30.336916 0.5
v -79.25 26.7789726 0.5
v -77.5 32.1158905 0.5
v -77.5 30.336916 0.5
v -77.5 28.5579453 0.5
v -77.5 26.7789726 0.5
v -75.75 41.0107498 0.5
v -77.5 39.2317772 0.5
v -75.75 39.2317772 0.5
v -75.75 37.4528046 0.5
v -77.5 37.4528046 0.5
v -75.75 35.6738319 0.5
v -77.5 35.6738319 0.5
v -75.75 33.8948631 0.5
v -77.5 33.8948631 0.5
v -75.75 32.1158905 0.5
v -75.75 30.336916 0.5
v -75.75 28.5579453 0.5
v -75.75 26.7789726 0.5
v -87.125 48.1266403 0.5
v -86.25 48.1266403 0.5
v -85.375 48.1266403 0.5
v -84.5 48.1266403 0.5
v -83.625 48.1266403 0.5
v -82.75 48.1266403 0.5
v -81.875 48.1266403 0.5
v -81 48.1266403 0.5
v -80.125 48.1266403 0.5
v -79.25 48.1266403 0.5
v -78.8473663 45 0.5
v -78.375 48.1266403 0.5
v -77.8473663 45 0.5
v -77.5 48.1266403 0.5
v -76.8473663 45 0.5
v -76.625 48.1266403 0.5
v -75.75 48.1266403 0.5
v -74.875 48.1266403 0.5
v -74 42.2605515 0.5
v -74 48.1266403 0.5
v -82.8473663 29.666666 0.5
v -82.3381271 30.0061588 0.5
v -81.8473663 30.333334 0.5
v -80.8473663 31 0.5
v -77.8473663 43 0.5
v -78.8473663 43 0.5
v -76.8473663 43 0.5
v -78.3473663 42 0.5
v -74 25 0.5
v -74.875 25 0.5
v -75.75 25 0.5
v -76.625 25 0.5
v -77.5 25 0.5
v -78.375 25 0.5
v -79.25 25 0.5
v -80.125 25 0.5
v -81 25 0.5
v -81.875 25 0.5
v -82.75 25 0.5
v -83.625 25 0.5
v -84.5 25 0.5
v -85.375 25 0.5
v -86.25 25 0.5
v -87.125 25 0.5
v -74 39.3989944 0.5
v -74 36.4920998 0.5
v -74 33.6752357 0.5
v -74 30.8587227 0.5
v -74 27.8522797 0.5
v -82.8473663 34 0.5
v -83.5140381 35 0.5
v -83.5973663 33.75 0.5
v -84.3473663 33.5 0.5
v -85.0973663 33.25 0.5
v -83.8473663 40 0.5
v -84.0973663 39.25 0.5
v -84.1807022 39 0.5
v -84.3473663 38.5 0.5
v -84.5973663 37.75 0.5
v -84.8473663 37 0.5
v -81.8473663 39 0.5
v -82.8473663 39.5 0.5
v -78.8473663 37 0.5
v -79.8473663 37.6666679 0.5
v -80.3566055 38.0061607 0.5
v -80.8473663 38.3333321 0.5
v -78.8473663 33 0.5
v -78.8473663 34.3333321 0.5
v -78.8473663 35.0123177 0.5
v -78.8473663 35.6666679 0.5
v -79.5140381 32.3333321 0.5
v -79.8473663 45 0.5
v -80.3473663 44.25 0.5
v -80.8473663 43.5 0.5
v -81.3473663 42.75 0.5
v -77.5973663 45 0.5
v -78.3473663 45 0.5
v -79.0973663 45 0.5
v -75.8473663 43 0.5
v -80.5140381 44 0.5
v -81.1807022 43 0.5
v -76.3473663 44 0.5
v -83.8473663 33.6666679 0.5
v -84.8473663 33.3333321 0.5
v -84.1807022 36 0.5
v -84.5140381 38 0.5
v -80.1807022 31.666666 0.5
f 1 2 3
f 1 3 4
f 5 6 2
f 5 2 1
f 7 8 6
f 7 6 5
f 9 8 7
f 10 11 12
f 13 14 15
f 13 15 16
f 17 1 4
f 17 4 18
f 19 5 1
f 19 1 17
f 20 7 5
f 20 5 19
f 21 17 18
f 21 18 22
f 23 24 25
f 23 25 26
f 27 28 29
f 30 26 31
f 30 31 32
f 33 23 26
f 33 26 30
f 34 35 32
f 36 30 32
f 36 32 35
f 37 33 30
f 37 30 36
f 38 39 40
f 41 42 40
f 41 40 39
f 43 44 42
f 43 42 41
f 45 46 44
f 45 44 43
f 47 34 46
f 47 46 45
f 48 35 34
f 48 34 47
f 49 36 35
f 49 35 48
f 50 37 36
f 50 36 49
f 51 52 3
f 52 53 3
f 53 54 3
f 54 55 4
f 55 56 4
f 56 57 18
f 57 58 18
f 58 59 22
f 59 60 22
f 60 61 22
f 61 62 63
f 62 64 65
f 64 66 67
f 66 68 67
f 68 69 70
f 69 71 70
f 72 73 74
f 73 75 76
f 77 78 79
f 77 80 81
f 80 78 79
f 72 74 25
f 74 76 26
f 76 75 31
f 82 83 14
f 83 84 15
f 84 85 11
f 85 86 12
f 86 87 9
f 87 88 8
f 88 89 2
f 89 51 3
f 90 91 50
f 91 92 37
f 92 93 23
f 93 94 13
f 94 82 14
f 70 95 38
f 95 96 38
f 96 97 41
f 97 98 43
f 98 99 47
f 99 100 49
f 100 90 50
f 101 102 15
f 102 72 16
f 103 104 10
f 105 106 12
f 106 103 10
f 107 108 7
f 108 105 9
f 109 107 110
f 111 112 113
f 112 109 114
f 115 116 117
f 116 111 118
f 75 115 119
f 120 121 29
f 121 77 27
f 122 123 21
f 123 124 21
f 124 125 17
f 125 120 19
f 126 67 70
f 120 127 29
f 127 128 29
f 128 129 121
f 129 77 27
f 122 130 21
f 131 120 125
f 67 65 64
f 65 63 62
f 63 122 61
f 126 132 70
f 132 67 70
f 79 81 80
f 81 126 38
f 104 133 84
f 133 101 84
f 103 134 135
f 134 136 10
f 136 104 11
f 105 137 12
f 137 135 106
f 107 138 7
f 138 139 108
f 139 105 9
f 109 110 29
f 110 107 20
f 111 113 27
f 113 114 27
f 114 109 28
f 115 117 46
f 117 118 44
f 118 111 44
f 75 140 32
f 140 119 32
f 119 115 34
f 3 2 89
f 4 3 54
f 2 6 88
f 6 8 88
f 8 9 87
f 9 7 108
f 11 10 136
f 12 11 85
f 10 12 106
f 14 13 94
f 15 14 83
f 16 15 102
f 13 16 24
f 18 4 56
f 19 17 125
f 20 19 120
f 17 21 124
f 22 18 58
f 21 22 122
f 24 23 93
f 25 24 16
f 26 25 74
f 28 27 114
f 29 28 109
f 27 29 121
f 31 26 76
f 32 31 75
f 23 33 92
f 34 32 119
f 33 37 92
f 39 38 96
f 38 40 77
f 40 42 27
f 41 39 96
f 42 44 27
f 43 41 97
f 44 46 117
f 45 43 98
f 46 34 115
f 47 45 98
f 48 47 99
f 49 48 99
f 37 50 91
f 50 49 100
f 22 61 122
f 67 68 70
f 74 73 25
f 73 76 25
f 77 79 40
f 77 81 38
f 72 25 16
f 15 84 101
f 84 11 104
f 12 86 9
f 93 13 24
f 70 38 126
f 10 104 12
f 105 12 9
f 107 7 10
f 113 112 27
f 112 114 27
f 117 116 44
f 116 118 44
f 75 119 25
f 120 29 20
f 27 77 40
f 29 128 121
f 121 129 29
f 129 27 29
f 21 130 131
f 131 125 21
f 135 134 10
f 137 106 10
f 106 135 10
f 29 110 20
f 111 27 44
f 25 76 75
f 40 79 126
f 107 10 138
f 10 7 138
f 21 125 20
f 137 10 12
f 40 126 119
f 126 79 67
f 21 20 138
f 20 125 108
f 40 119 139
f 67 79 78
f 21 138 9
f 138 20 108
f 108 125 139
f 40 139 125
f 139 119 104
f 67 78 122
f 9 138 139
f 40 125 78
f 139 104 12
f 104 119 25
f 122 78 21
f 40 78 126
f 78 125 21
f 139 12 9
f 141 51 89
f 89 88 142
f 88 87 143
f 87 86 144
f 86 85 145
f 85 84 146
f 84 83 147
f 83 82 148
f 148 147 83
f 147 146 84
f 146 145 85
f 145 144 86
f 144 143 87
f 143 142 88
f 142 149 89
f 149 141 89
f 150 72 102
f 102 101 150
f 101 133 151
f 133 104 151
f 151 150 101
f 152 77 121
f 121 120 153
f 153 152 121
f 152 77 129
f 129 128 154
f 128 127 155
f 127 120 156
f 153 156 120
f 156 155 127
f 155 154 128
f 154 152 129
f 150 72 102
f 102 101 157
f 101 133 158
f 133 104 159
f 151 159 104
f 159 158 133
f 158 157 101
f 157 150 102
f 160 161 162
f 160 162 163
f 164 160 163
f 164 163 165
f 166 164 165
f 166 165 167
f 168 166 167
f 169 170 171
f 169 171 172
f 173 174 161
f 173 161 160
f 175 173 160
f 175 160 164
f 176 175 164
f 176 164 166
f 177 178 174
f 177 174 173
f 179 180 181
f 179 181 182
f 183 184 185
f 186 187 188
f 186 188 180
f 189 186 180
f 189 180 179
f 190 187 191
f 192 191 187
f 192 187 186
f 193 192 186
f 193 186 189
f 194 195 196
f 197 196 195
f 197 195 198
f 199 197 198
f 199 198 200
f 201 199 200
f 201 200 202
f 203 201 202
f 203 202 190
f 204 203 190
f 204 190 191
f 205 204 191
f 205 191 192
f 206 205 192
f 206 192 193
f 141 162 207
f 207 162 208
f 208 162 209
f 209 161 210
f 210 161 211
f 211 174 212
f 212 174 213
f 213 178 214
f 214 178 215
f 215 178 216
f 216 217 218
f 218 219 220
f 220 221 222
f 222 221 223
f 223 221 224
f 224 225 226
f 150 227 228
f 228 229 230
f 152 231 232
f 152 233 234
f 234 231 232
f 150 181 227
f 227 180 229
f 229 188 230
f 148 172 147
f 147 171 146
f 146 151 145
f 145 151 144
f 144 168 143
f 143 167 142
f 142 163 149
f 149 162 141
f 235 206 236
f 236 206 237
f 237 206 238
f 238 193 239
f 239 193 240
f 240 189 241
f 241 189 242
f 242 179 243
f 243 179 244
f 244 182 245
f 245 182 246
f 246 169 247
f 247 169 248
f 248 172 249
f 249 172 250
f 250 172 148
f 225 194 251
f 251 197 252
f 252 199 253
f 253 203 254
f 254 205 255
f 255 206 235
f 151 171 150
f 256 257 258
f 258 257 259
f 259 151 260
f 261 166 262
f 262 263 264
f 264 168 265
f 265 168 266
f 267 268 261
f 269 270 271
f 271 272 267
f 273 274 275
f 275 276 269
f 230 277 273
f 153 184 152
f 278 177 279
f 279 177 280
f 280 173 281
f 281 175 153
f 221 220 282
f 282 183 283
f 283 183 284
f 284 178 278
f 285 225 221
f 153 184 156
f 156 184 155
f 278 177 286
f 287 281 153
f 221 196 219
f 219 218 217
f 217 183 278
f 285 225 288
f 288 224 221
f 151 146 159
f 159 171 158
f 158 171 157
f 157 170 150
f 256 257 289
f 289 182 290
f 290 257 151
f 266 144 291
f 291 151 257
f 292 168 266
f 267 184 268
f 268 176 261
f 269 183 270
f 270 183 272
f 272 185 267
f 273 202 274
f 274 200 276
f 276 200 269
f 230 187 293
f 293 187 277
f 277 190 273
f 162 149 163
f 161 209 162
f 163 142 165
f 165 142 167
f 167 143 168
f 168 262 166
f 172 248 169
f 171 147 172
f 170 157 171
f 169 182 170
f 174 211 161
f 175 281 173
f 166 261 176
f 176 153 175
f 173 280 177
f 178 213 174
f 177 278 178
f 182 244 179
f 181 170 182
f 180 227 181
f 185 272 183
f 184 267 185
f 183 152 184
f 188 229 180
f 187 230 188
f 179 242 189
f 190 277 187
f 189 240 193
f 196 251 194
f 194 203 195
f 195 183 198
f 197 251 196
f 198 183 200
f 199 252 197
f 200 274 202
f 201 253 199
f 202 273 190
f 203 253 201
f 204 254 203
f 205 254 204
f 193 238 206
f 206 255 205
f 178 284 216
f 216 284 217
f 219 282 220
f 224 288 225
f 227 181 228
f 228 181 229
f 233 231 234
f 150 170 181
f 171 159 146
f 151 291 144
f 144 266 168
f 182 169 246
f 225 285 194
f 151 168 171
f 171 182 150
f 257 290 259
f 259 168 151
f 262 168 263
f 263 168 264
f 270 183 271
f 271 183 272
f 274 200 275
f 275 200 276
f 230 181 277
f 153 176 184
f 183 217 284
f 225 200 221
f 184 183 155
f 177 287 286
f 287 177 281
f 221 233 196
f 183 154 278
f 257 259 289
f 289 259 182
f 182 259 290
f 292 263 168
f 184 176 268
f 269 200 183
f 183 195 152
f 219 183 282
f 181 230 229
f 285 233 194
f 182 181 150
f 259 266 168
f 181 182 277
f 225 196 200
f 200 233 221
f 183 154 155
f 177 261 281
f 233 200 196
f 183 152 154
f 154 232 278
f 195 194 152
f 219 154 183
f 233 152 194
f 259 256 266
f 182 203 277
f 225 194 196
f 177 168 261
f 261 263 281
f 154 285 232
f 232 219 278
f 219 232 154
f 259 277 256
f 203 195 277
f 168 263 261
f 263 154 281
f 154 194 285
f 219 195 278
f 259 182 277
f 277 195 256
f 263 195 154
f 154 177 281
f 219 231 195
f 195 152 278
f 195 263 256
f 195 152 154
f 154 278 177
f 219 278 231
f 231 152 195
f 152 231 278
f 263 168 256
f 168 171 256
f 171 182 256
f 182 203 256
f 203 196 256
f 203 194 196
f 196 168 256
f 196 194 168
f 194 154 168
f 154 177 168
f 82 94 249
f 94 93 246
f 93 92 243
f 92 91 240
f 91 90 237
f 235 236 90
f 236 237 90
f 237 238 91
f 238 239 91
f 239 240 91
f 240 241 92
f 241 242 92
f 242 243 92
f 243 244 93
f 244 245 93
f 245 246 93
f 246 247 94
f 247 248 94
f 248 249 94
f 249 250 82
f 250 148 82
f 90 100 255
f 100 99 254
f 99 98 253
f 98 97 252
f 97 96 251
f 96 95 225
f 95 70 225
f 70 71 226
f 226 225 70
f 225 251 96
f 251 252 97
f 252 253 98
f 253 254 99
f 254 255 100
f 255 235 90
f 71 69 224
f 69 68 223
f 68 66 222
f 66 64 220
f 64 62 218
f 62 61 216
f 61 60 215
f 60 59 215
f 59 58 213
f 58 57 212
f 57 56 212
f 56 55 211
f 55 54 210
f 54 53 209
f 53 52 207
f 52 51 141
f 141 207 52
f 207 208 53
f 208 209 53
f 209 210 54
f 210 211 55
f 211 212 56
f 212 213 58
f 213 214 59
f 214 215 59
f 215 216 61
f 216 218 62
f 218 220 64
f 220 222 66
f 222 223 68
f 223 224 69
f 224 226 71
f 104 103 259
f 256 258 103
f 258 259 103
f 259 260 104
f 260 151 104
f 103 106 256
f 106 105 266
f 266 256 106
f 105 108 265
f 108 107 262
f 261 262 107
f 262 264 108
f 264 265 108
f 265 266 105
f 107 109 267
f 267 261 107
f 109 112 271
f 112 111 269
f 269 271 112
f 271 267 109
f 111 116 275
f 116 115 273
f 273 275 116
f 275 269 111
f 115 75 230
f 230 273 115
f 75 73 228
f 73 72 150
f 150 228 73
f 228 230 75
f 120 125 153
f 125 124 280
f 124 123 279
f 123 122 279
f 278 279 122
f 279 280 124
f 280 281 125
f 281 153 125
f 122 67 283
f 221 282 67
f 282 283 67
f 283 284 122
f 284 278 122
f 67 126 285
f 285 221 67
f 126 78 232
f 232 285 126
f 78 77 152
f 152 232 78
f 120 131 287
f 131 130 287
f 130 122 286
f 278 286 122
f 286 287 130
f 287 153 120
f 122 63 217
f 63 65 219
f 65 67 221
f 221 219 65
f 219 217 63
f 217 278 122
f 67 132 288
f 132 126 285
f 285 288 132
f 288 221 67
f 126 81 233
f 81 79 231
f 79 78 232
f 232 231 79
f 231 233 81
f 233 285 126
f 78 80 234
f 80 77 152
f 152 234 80
f 234 232 78
f 104 136 290
f 136 134 289
f 134 103 289
f 256 289 103
f 289 290 136
f 290 151 104
f 103 135 257
f 135 137 291
f 137 105 266
f 266 291 137
f 291 257 135
f 257 256 103
f 105 139 292
f 139 138 263
f 138 107 261
f 261 263 138
f 263 292 139
f 292 266 105
f 107 110 268
f 110 109 267
f 267 268 110
f 268 261 107
f 109 114 272
f 114 113 270
f 113 111 269
f 269 270 113
f 270 272 114
f 272 267 109
f 111 118 276
f 118 117 274
f 117 115 273
f 273 274 117
f 274 276 118
f 276 269 111
f 115 119 277
f 119 140 293
f 140 75 230
f 230 293 140
f 293 277 119
f 277 273 115
f 75 76 229
f 76 74 227
f 74 72 150
f 150 227 74
f 227 229 76
f 229 230 75
f 7 107 9
f 7 20 107
