# Thingi10K 49883, exact-welded from the raw STL. Non-manifold on purpose.
v 21.54527 27.54527 1.5
v 21.54527 -27.54527 18
v 21.54527 -27.54527 1.5
v 21.54527 27.54527 18
v -21.54527 27.54527 18
v -21.54527 27.54527 1.5
v -20 26 1.5
v 20 26 18
v -20 26 18
v 20 26 1.5
v 20 -26 1.5
v -21.54527 -27.54527 1.5
v -20 -26 1.5
v -20 -26 18
v 20 -26 18
v -21.54527 -27.54527 18
v 21.54527 27.54527 0
v -21.54527 27.54527 1.579534e-12
v -21.54527 -27.54527 1.579534e-12
v 21.54527 -27.54527 0
f 1 2 3
f 2 1 4
f 1 5 4
f 5 1 6
f 7 8 9
f 8 7 10
f 3 11 1
f 11 3 12
f 11 12 13
f 13 12 7
f 1 10 6
f 10 1 11
f 6 10 7
f 6 7 12
f 7 14 13
f 14 7 9
f 11 14 15
f 14 11 13
f 8 11 15
f 11 8 10
f 5 12 16
f 12 5 6
f 12 2 16
f 2 12 3
f 4 8 2
f 8 4 5
f 8 5 9
f 9 5 14
f 2 15 16
f 15 2 8
f 16 15 14
f 16 14 5
f 17 6 1
f 6 17 18
f 19 17 20
f 17 19 18
f 19 3 12
f 3 19 20
f 6 19 12
f 19 6 18
f 17 3 20
f 3 17 1
f 6 3 1
f 3 6 12
