# Thingi10K 91143, exact-welded from the raw STL. Non-manifold on purpose.
v -36.9560261 55.0097564 18.6959651
v -28.9560261 55.0097564 10.6959651
v -36.9560261 55.0097564 10.6959651
v -28.9560261 55.0097564 18.6959651
v -30.9560261 52.0097564 10.6959651
v -30.9560261 47.0097564 17.6959651
v -30.9560261 47.0097564 10.6959651
v -30.9560261 52.0097564 17.6959651
v -30.9560261 -13.3902436 10.6959651
v -30.9560261 -18.3902436 17.6959651
v -30.9560261 -18.3902436 10.6959651
v -30.9560261 -13.3902436 17.6959651
v -34.9560261 52.0097564 17.6959651
v -34.9560261 47.0097564 10.6959651
v -34.9560261 47.0097564 17.6959651
v -34.9560261 52.0097564 10.6959651
v -28.9560261 -0.690243615 18.6959651
v -28.9560261 -13.3902436 10.6959651
v -28.9560261 -13.3902436 18.6959651
v -28.9560261 -0.690243615 10.6959651
v -36.9560261 -18.3902436 18.6959651
v -36.9560261 -21.3902436 10.6959651
v -36.9560261 -21.3902436 18.6959651
v -36.9560261 -18.3902436 10.6959651
v -28.9560261 52.0097564 18.6959651
v -28.9560261 52.0097564 10.6959651
v -36.9560261 52.0097564 10.6959651
v -36.9560261 52.0097564 18.6959651
v -34.9560261 -13.3902436 17.6959651
v -34.9560261 -18.3902436 17.6959651
v -28.9560261 -21.3902436 18.6959651
v -28.9560261 -18.3902436 18.6959651
v -34.9560261 -18.3902436 10.6959651
v -34.9560261 -13.3902436 10.6959651
v -36.9560261 47.0097564 18.6959651
v -36.9560261 47.0097564 10.6959651
v -28.9560261 47.0097564 10.6959651
v -28.9560261 47.0097564 18.6959651
v -28.9560261 34.3097564 18.6959651
v -36.9560261 34.3097564 18.6959651
v -39.0630324 34.3097564 12.8497129
v -36.9560261 34.3097564 10.6959651
v -37.6229308 34.3097564 10.6959651
v -39.5992948 34.3097564 15.3628698
v -39.0630324 34.3097564 17.8650327
v -37.6229308 34.3097564 20.0297746
v -28.2891213 34.3097564 10.6959651
v -28.9560261 34.3097564 10.6959651
v -26.8213505 34.3097564 13.0025065
v -26.296584 34.3097564 15.3906211
v -26.8811354 34.3097564 17.9240574
v -28.2891213 34.3097564 20.0297746
v -35.5026948 34.3097564 21.4487777
v -30.4149603 34.3097564 21.4653923
v -32.9560261 34.3097564 21.9726845
v -36.9560261 -13.3902436 10.6959651
v -36.9560261 -0.690243615 10.6959651
v -28.9560261 -21.3902436 10.6959651
v -28.9560261 -18.3902436 10.6959651
v -36.9560261 -13.3902436 18.6959651
v -36.9560261 -0.690243615 18.6959651
v -35.5026948 -0.690243615 21.4487777
v -37.6229308 -0.690243615 20.0297746
v -30.4149603 -0.690243615 21.4653923
v -32.9560261 -0.690243615 21.9726845
v -28.2891213 -0.690243615 10.6959651
v -37.6229308 -0.690243615 10.6959651
v -28.2891213 -0.690243615 20.0297746
v -26.8811354 -0.690243615 17.9240574
v -26.296584 -0.690243615 15.3906211
v -26.8213505 -0.690243615 13.0025065
v -39.0630324 -0.690243615 12.8497129
v -39.5992948 -0.690243615 15.3628698
v -39.0630324 -0.690243615 17.8650327
f 1 2 3
f 2 1 4
f 5 6 7
f 6 5 8
f 9 10 11
f 10 9 12
f 13 14 15
f 14 13 16
f 17 18 19
f 18 17 20
f 21 22 23
f 22 21 24
f 25 5 26
f 5 25 8
f 8 25 13
f 13 27 16
f 27 13 28
f 28 13 25
f 6 13 15
f 13 6 8
f 10 29 30
f 29 10 12
f 31 21 23
f 21 31 32
f 29 33 30
f 33 29 34
f 35 14 36
f 14 35 15
f 15 35 6
f 6 37 7
f 37 6 38
f 38 6 35
f 39 35 40
f 35 39 38
f 25 1 28
f 1 25 4
f 41 42 43
f 42 41 40
f 40 41 44
f 40 44 45
f 40 45 46
f 40 46 39
f 39 47 48
f 47 39 49
f 49 39 50
f 50 39 51
f 51 39 52
f 52 39 46
f 52 46 53
f 52 53 54
f 54 53 55
f 20 56 57
f 56 20 34
f 34 20 33
f 33 20 9
f 9 20 18
f 33 22 24
f 22 33 58
f 58 33 11
f 11 33 9
f 58 11 59
f 1 27 28
f 27 1 3
f 60 34 56
f 34 60 29
f 29 60 12
f 12 18 9
f 18 12 19
f 19 12 60
f 57 60 56
f 60 57 61
f 17 60 61
f 60 17 19
f 31 22 58
f 22 31 23
f 59 31 58
f 31 59 32
f 21 33 24
f 33 21 30
f 30 21 10
f 10 59 11
f 59 10 32
f 32 10 21
f 2 25 26
f 25 2 4
f 62 46 63
f 46 62 53
f 64 55 65
f 55 64 54
f 2 27 3
f 27 2 16
f 16 2 14
f 14 2 5
f 5 2 26
f 14 42 36
f 42 14 57
f 57 14 20
f 20 14 7
f 7 14 5
f 20 7 37
f 20 37 48
f 20 48 47
f 20 47 66
f 43 57 67
f 57 43 42
f 51 68 69
f 68 51 52
f 50 69 70
f 69 50 51
f 17 40 61
f 40 17 39
f 40 36 42
f 36 40 35
f 68 54 64
f 54 68 52
f 71 20 66
f 20 71 17
f 17 71 70
f 17 70 69
f 17 69 68
f 17 68 61
f 61 67 57
f 67 61 72
f 72 61 73
f 73 61 74
f 74 61 63
f 63 61 68
f 63 68 64
f 63 64 62
f 62 64 65
f 65 53 62
f 53 65 55
f 72 43 67
f 43 72 41
f 45 73 74
f 73 45 44
f 63 45 74
f 45 63 46
f 49 70 71
f 70 49 50
f 47 71 66
f 71 47 49
f 44 72 73
f 72 44 41
f 37 39 48
f 39 37 38
