solid Part 6 Stand
facet normal -6.57769595774469e-006 -0.999999999956734 -6.57770083944094e-006
outer loop
vertex -122.276669080582 -32.5471822282234 136.590780719968
vertex -123.77666908055 -32.5471723616795 138.090780719935
vertex -128.588500579593 -32.5470991936063 136.590780719968
endloop
endfacet
facet normal -6.57769595774469e-006 -0.999999999956734 -6.57770083944094e-006
outer loop
vertex -122.276669080582 -32.5471822282234 136.590780719968
vertex -123.77666908055 -32.5471723616795 138.090780719935
vertex -128.588500579593 -32.5470991936063 136.590780719968
endloop
endfacet
facet normal -6.57769595774469e-006 -0.999999999956734 -6.57770083944094e-006
outer loop
vertex -122.276669080582 -32.5471822282234 136.590780719968
vertex -123.77666908055 -32.5471723616795 138.090780719935
vertex -128.588500579593 -32.5470991936063 136.590780719968
endloop
endfacet
facet normal -6.57769595774469e-006 -0.999999999956734 -6.57770083944094e-006
outer loop
vertex -123.77666908055 -32.5471723616795 138.090780719935
vertex -122.276669080582 -32.5471822282234 136.590780719968
vertex -122.276669080582 -32.5471822282234 142.9026075346
endloop
endfacet
facet normal -6.57769595774469e-006 -0.999999999956734 -6.57770083944094e-006
outer loop
vertex -123.77666908055 -32.5471723616795 138.090780719935
vertex -122.276669080582 -32.5471822282234 136.590780719968
vertex -122.276669080582 -32.5471822282234 142.9026075346
endloop
endfacet
facet normal -6.57769595774469e-006 -0.999999999956734 -6.57770083944094e-006
outer loop
vertex -123.77666908055 -32.5471723616795 138.090780719935
vertex -122.276669080582 -32.5471822282234 136.590780719968
vertex -122.276669080582 -32.5471822282234 142.9026075346
endloop
endfacet
facet normal -6.57769595774469e-006 -0.999999999956734 -6.57770083944094e-006
outer loop
vertex -123.77666908055 -32.5471723616795 138.090780719935
vertex -122.276669080582 -32.5471822282234 142.9026075346
vertex -123.77666908055 -32.5471723616722 141.402607534632
endloop
endfacet
facet normal -6.57769595774469e-006 -0.999999999956734 -6.57770083944094e-006
outer loop
vertex -123.77666908055 -32.5471723616795 138.090780719935
vertex -122.276669080582 -32.5471822282234 142.9026075346
vertex -123.77666908055 -32.5471723616722 141.402607534632
endloop
endfacet
facet normal -6.57769595774469e-006 -0.999999999956734 -6.57770083944094e-006
outer loop
vertex -123.77666908055 -32.5471723616795 138.090780719935
vertex -122.276669080582 -32.5471822282234 142.9026075346
vertex -123.77666908055 -32.5471723616722 141.402607534632
endloop
endfacet
facet normal -6.57769595774469e-006 -0.999999999956734 -6.57770083944094e-006
outer loop
vertex -123.77666908055 -32.5471723616722 141.402607534632
vertex -122.276669080582 -32.5471822282234 142.9026075346
vertex -127.088500579626 -32.5471723616648 141.402607534632
endloop
endfacet
facet normal -6.57769595774469e-006 -0.999999999956734 -6.57770083944094e-006
outer loop
vertex -123.77666908055 -32.5471723616722 141.402607534632
vertex -122.276669080582 -32.5471822282234 142.9026075346
vertex -127.088500579626 -32.5471723616648 141.402607534632
endloop
endfacet
facet normal -6.57769595774469e-006 -0.999999999956734 -6.57770083944094e-006
outer loop
vertex -123.77666908055 -32.5471723616722 141.402607534632
vertex -122.276669080582 -32.5471822282234 142.9026075346
vertex -127.088500579626 -32.5471723616648 141.402607534632
endloop
endfacet
facet normal -6.57769595774469e-006 -0.999999999956734 -6.57770083944094e-006
outer loop
vertex -128.588500579593 -32.5470991936063 136.590780719968
vertex -127.088500579626 -32.5471287932455 138.090780719935
vertex -128.588500579593 -32.5471822282234 142.9026075346
endloop
endfacet
facet normal -6.57769595774469e-006 -0.999999999956734 -6.57770083944094e-006
outer loop
vertex -128.588500579593 -32.5470991936063 136.590780719968
vertex -127.088500579626 -32.5471287932455 138.090780719935
vertex -128.588500579593 -32.5471822282234 142.9026075346
endloop
endfacet
facet normal -6.57769595774469e-006 -0.999999999956734 -6.57770083944094e-006
outer loop
vertex -128.588500579593 -32.5470991936063 136.590780719968
vertex -127.088500579626 -32.5471287932455 138.090780719935
vertex -128.588500579593 -32.5471822282234 142.9026075346
endloop
endfacet
facet normal -6.57769595774469e-006 -0.999999999956734 -6.57770083944094e-006
outer loop
vertex -127.088500579626 -32.5471287932455 138.090780719935
vertex -128.588500579593 -32.5470991936063 136.590780719968
vertex -123.77666908055 -32.5471723616795 138.090780719935
endloop
endfacet
facet normal -6.57769595774469e-006 -0.999999999956734 -6.57770083944094e-006
outer loop
vertex -127.088500579626 -32.5471287932455 138.090780719935
vertex -128.588500579593 -32.5470991936063 136.590780719968
vertex -123.77666908055 -32.5471723616795 138.090780719935
endloop
endfacet
facet normal -6.57769595774469e-006 -0.999999999956734 -6.57770083944094e-006
outer loop
vertex -127.088500579626 -32.5471287932455 138.090780719935
vertex -128.588500579593 -32.5470991936063 136.590780719968
vertex -123.77666908055 -32.5471723616795 138.090780719935
endloop
endfacet
facet normal -6.57769595774469e-006 -0.999999999956734 -6.57770083944094e-006
outer loop
vertex -128.588500579593 -32.5471822282234 142.9026075346
vertex -127.088500579626 -32.5471287932455 138.090780719935
vertex -127.088500579626 -32.5471723616648 141.402607534632
endloop
endfacet
facet normal -6.57769595774469e-006 -0.999999999956734 -6.57770083944094e-006
outer loop
vertex -128.588500579593 -32.5471822282234 142.9026075346
vertex -127.088500579626 -32.5471287932455 138.090780719935
vertex -127.088500579626 -32.5471723616648 141.402607534632
endloop
endfacet
facet normal -6.57769595774469e-006 -0.999999999956734 -6.57770083944094e-006
outer loop
vertex -128.588500579593 -32.5471822282234 142.9026075346
vertex -127.088500579626 -32.5471287932455 138.090780719935
vertex -127.088500579626 -32.5471723616648 141.402607534632
endloop
endfacet
facet normal -6.57769595774469e-006 -0.999999999956734 -6.57770083944094e-006
outer loop
vertex -128.588500579593 -32.5471822282234 142.9026075346
vertex -127.088500579626 -32.5471723616648 141.402607534632
vertex -122.276669080582 -32.5471822282234 142.9026075346
endloop
endfacet
facet normal -6.57769595774469e-006 -0.999999999956734 -6.57770083944094e-006
outer loop
vertex -128.588500579593 -32.5471822282234 142.9026075346
vertex -127.088500579626 -32.5471723616648 141.402607534632
vertex -122.276669080582 -32.5471822282234 142.9026075346
endloop
endfacet
facet normal -6.57769595774469e-006 -0.999999999956734 -6.57770083944094e-006
outer loop
vertex -128.588500579593 -32.5471822282234 142.9026075346
vertex -127.088500579626 -32.5471723616648 141.402607534632
vertex -122.276669080582 -32.5471822282234 142.9026075346
endloop
endfacet
facet normal 2.23388536591551e-016 -6.57770083969933e-006 0.999999999978367
outer loop
vertex -122.276669080582 -32.5471822282234 142.9026075346
vertex -128.588045246521 36.6766121652352 142.90306286801
vertex -128.588500579593 -32.5471822282234 142.9026075346
endloop
endfacet
facet normal 2.23388536591551e-016 -6.57770083969933e-006 0.999999999978367
outer loop
vertex -122.276669080582 -32.5471822282234 142.9026075346
vertex -128.588045246521 36.6766121652352 142.90306286801
vertex -128.588500579593 -32.5471822282234 142.9026075346
endloop
endfacet
facet normal 2.23388536591551e-016 -6.57770083969933e-006 0.999999999978367
outer loop
vertex -122.276669080582 -32.5471822282234 142.9026075346
vertex -128.588045246521 36.6766121652352 142.90306286801
vertex -128.588500579593 -32.5471822282234 142.9026075346
endloop
endfacet
facet normal 2.23388536591551e-016 -6.57770083969933e-006 0.999999999978367
outer loop
vertex -128.588045246521 36.6766121652352 142.90306286801
vertex -122.276669080582 -32.5471822282234 142.9026075346
vertex -122.27621374751 36.6766121652352 142.90306286801
endloop
endfacet
facet normal 2.23388536591551e-016 -6.57770083969933e-006 0.999999999978367
outer loop
vertex -128.588045246521 36.6766121652352 142.90306286801
vertex -122.276669080582 -32.5471822282234 142.9026075346
vertex -122.27621374751 36.6766121652352 142.90306286801
endloop
endfacet
facet normal 2.23388536591551e-016 -6.57770083969933e-006 0.999999999978367
outer loop
vertex -128.588045246521 36.6766121652352 142.90306286801
vertex -122.276669080582 -32.5471822282234 142.9026075346
vertex -122.27621374751 36.6766121652352 142.90306286801
endloop
endfacet
facet normal 0.999999999978367 -6.57769595694802e-006 -3.26967882455898e-015
outer loop
vertex -122.276182174569 41.4766121648732 136.591267626342
vertex -122.276669080582 -32.5471822282234 142.9026075346
vertex -122.276669080582 -32.5471822282234 136.590780719968
endloop
endfacet
facet normal 0.999999999978367 -6.57769595694802e-006 -3.26967882455898e-015
outer loop
vertex -122.276182174569 41.4766121648732 136.591267626342
vertex -122.276669080582 -32.5471822282234 142.9026075346
vertex -122.276669080582 -32.5471822282234 136.590780719968
endloop
endfacet
facet normal 0.999999999978367 -6.57769595694802e-006 -3.26967882455898e-015
outer loop
vertex -122.276182174569 41.4766121648732 136.591267626342
vertex -122.276669080582 -32.5471822282234 142.9026075346
vertex -122.276669080582 -32.5471822282234 136.590780719968
endloop
endfacet
facet normal 0.999999999978367 -6.57769595694802e-006 -3.26967882455898e-015
outer loop
vertex -122.276669080582 -32.5471822282234 142.9026075346
vertex -122.276182174569 41.4766121648732 136.591267626342
vertex -122.27621374751 36.6766121652352 142.90306286801
endloop
endfacet
facet normal 0.999999999978367 -6.57769595694802e-006 -3.26967882455898e-015
outer loop
vertex -122.276669080582 -32.5471822282234 142.9026075346
vertex -122.276182174569 41.4766121648732 136.591267626342
vertex -122.27621374751 36.6766121652352 142.90306286801
endloop
endfacet
facet normal 0.999999999978367 -6.57769595694802e-006 -3.26967882455898e-015
outer loop
vertex -122.276669080582 -32.5471822282234 142.9026075346
vertex -122.276182174569 41.4766121648732 136.591267626342
vertex -122.27621374751 36.6766121652352 142.90306286801
endloop
endfacet
facet normal 0.999999999978367 -6.57769595694802e-006 -3.26967882455898e-015
outer loop
vertex -122.27621374751 36.6766121652352 142.90306286801
vertex -122.276182174569 41.4766121648732 136.591267626342
vertex -122.276182174543 41.4765726986638 148.903094440856
endloop
endfacet
facet normal 0.999999999978367 -6.57769595694802e-006 -3.26967882455898e-015
outer loop
vertex -122.27621374751 36.6766121652352 142.90306286801
vertex -122.276182174569 41.4766121648732 136.591267626342
vertex -122.276182174543 41.4765726986638 148.903094440856
endloop
endfacet
facet normal 0.999999999978367 -6.57769595694802e-006 -3.26967882455898e-015
outer loop
vertex -122.27621374751 36.6766121652352 142.90306286801
vertex -122.276182174569 41.4766121648732 136.591267626342
vertex -122.276182174543 41.4765726986638 148.903094440856
endloop
endfacet
facet normal 0.999999999978367 -6.57769595694802e-006 -3.26967882455898e-015
outer loop
vertex -122.276182174543 41.4765726986638 148.903094440856
vertex -122.276213747484 36.6765726990257 148.90306286788
vertex -122.27621374751 36.6766121652352 142.90306286801
endloop
endfacet
facet normal 0.999999999978367 -6.57769595694802e-006 -3.26967882455898e-015
outer loop
vertex -122.276182174543 41.4765726986638 148.903094440856
vertex -122.276213747484 36.6765726990257 148.90306286788
vertex -122.27621374751 36.6766121652352 142.90306286801
endloop
endfacet
facet normal 0.999999999978367 -6.57769595694802e-006 -3.26967882455898e-015
outer loop
vertex -122.276182174543 41.4765726986638 148.903094440856
vertex -122.276213747484 36.6765726990257 148.90306286788
vertex -122.27621374751 36.6766121652352 142.90306286801
endloop
endfacet
facet normal 8.65322324438171e-011 6.57770083901405e-006 -0.999999999978367
outer loop
vertex -128.58801367358 41.4766951994903 136.591267626342
vertex -122.276669080582 -32.5471822282234 136.590780719968
vertex -128.588500579593 -32.5470991936063 136.590780719968
endloop
endfacet
facet normal 8.65322324438171e-011 6.57770083901405e-006 -0.999999999978367
outer loop
vertex -128.58801367358 41.4766951994903 136.591267626342
vertex -122.276669080582 -32.5471822282234 136.590780719968
vertex -128.588500579593 -32.5470991936063 136.590780719968
endloop
endfacet
facet normal 8.65322324438171e-011 6.57770083901405e-006 -0.999999999978367
outer loop
vertex -128.58801367358 41.4766951994903 136.591267626342
vertex -122.276669080582 -32.5471822282234 136.590780719968
vertex -128.588500579593 -32.5470991936063 136.590780719968
endloop
endfacet
facet normal 8.65322324438171e-011 6.57770083901405e-006 -0.999999999978367
outer loop
vertex -122.276669080582 -32.5471822282234 136.590780719968
vertex -128.58801367358 41.4766951994903 136.591267626342
vertex -122.276182174569 41.4766121648732 136.591267626342
endloop
endfacet
facet normal 8.65322324438171e-011 6.57770083901405e-006 -0.999999999978367
outer loop
vertex -122.276669080582 -32.5471822282234 136.590780719968
vertex -128.58801367358 41.4766951994903 136.591267626342
vertex -122.276182174569 41.4766121648732 136.591267626342
endloop
endfacet
facet normal 8.65322324438171e-011 6.57770083901405e-006 -0.999999999978367
outer loop
vertex -122.276669080582 -32.5471822282234 136.590780719968
vertex -128.58801367358 41.4766951994903 136.591267626342
vertex -122.276182174569 41.4766121648732 136.591267626342
endloop
endfacet
facet normal -0.999999999978367 6.57769595637884e-006 8.6535502111272e-011
outer loop
vertex -128.588013673555 41.4765726986638 148.903094440856
vertex -128.588045246521 36.6766121652352 142.90306286801
vertex -128.588045246495 36.6765726990257 148.90306286788
endloop
endfacet
facet normal -0.999999999978367 6.57769595637884e-006 8.6535502111272e-011
outer loop
vertex -128.588013673555 41.4765726986638 148.903094440856
vertex -128.588045246521 36.6766121652352 142.90306286801
vertex -128.588045246495 36.6765726990257 148.90306286788
endloop
endfacet
facet normal -0.999999999978367 6.57769595637884e-006 8.6535502111272e-011
outer loop
vertex -128.588013673555 41.4765726986638 148.903094440856
vertex -128.588045246521 36.6766121652352 142.90306286801
vertex -128.588045246495 36.6765726990257 148.90306286788
endloop
endfacet
facet normal -0.999999999978367 6.57769595637884e-006 8.6535502111272e-011
outer loop
vertex -128.588045246521 36.6766121652352 142.90306286801
vertex -128.588500579593 -32.5470991936063 136.590780719968
vertex -128.588500579593 -32.5471822282234 142.9026075346
endloop
endfacet
facet normal -0.999999999978367 6.57769595637884e-006 8.6535502111272e-011
outer loop
vertex -128.588045246521 36.6766121652352 142.90306286801
vertex -128.588500579593 -32.5470991936063 136.590780719968
vertex -128.588500579593 -32.5471822282234 142.9026075346
endloop
endfacet
facet normal -0.999999999978367 6.57769595637884e-006 8.6535502111272e-011
outer loop
vertex -128.588045246521 36.6766121652352 142.90306286801
vertex -128.588500579593 -32.5470991936063 136.590780719968
vertex -128.588500579593 -32.5471822282234 142.9026075346
endloop
endfacet
facet normal -0.999999999978367 6.57769595637884e-006 8.6535502111272e-011
outer loop
vertex -128.588500579593 -32.5470991936063 136.590780719968
vertex -128.588045246521 36.6766121652352 142.90306286801
vertex -128.58801367358 41.4766951994903 136.591267626342
endloop
endfacet
facet normal -0.999999999978367 6.57769595637884e-006 8.6535502111272e-011
outer loop
vertex -128.588500579593 -32.5470991936063 136.590780719968
vertex -128.588045246521 36.6766121652352 142.90306286801
vertex -128.58801367358 41.4766951994903 136.591267626342
endloop
endfacet
facet normal -0.999999999978367 6.57769595637884e-006 8.6535502111272e-011
outer loop
vertex -128.588500579593 -32.5470991936063 136.590780719968
vertex -128.588045246521 36.6766121652352 142.90306286801
vertex -128.58801367358 41.4766951994903 136.591267626342
endloop
endfacet
facet normal -0.999999999978367 6.57769595637884e-006 8.6535502111272e-011
outer loop
vertex -128.58801367358 41.4766951994903 136.591267626342
vertex -128.588045246521 36.6766121652352 142.90306286801
vertex -128.588013673555 41.4765726986638 148.903094440856
endloop
endfacet
facet normal -0.999999999978367 6.57769595637884e-006 8.6535502111272e-011
outer loop
vertex -128.58801367358 41.4766951994903 136.591267626342
vertex -128.588045246521 36.6766121652352 142.90306286801
vertex -128.588013673555 41.4765726986638 148.903094440856
endloop
endfacet
facet normal -0.999999999978367 6.57769595637884e-006 8.6535502111272e-011
outer loop
vertex -128.58801367358 41.4766951994903 136.591267626342
vertex -128.588045246521 36.6766121652352 142.90306286801
vertex -128.588013673555 41.4765726986638 148.903094440856
endloop
endfacet
facet normal -0.999999999978367 6.57769596007866e-006 -1.45172755691915e-017
outer loop
vertex -123.77666908055 -32.5471723616722 141.402607534632
vertex -123.776182174536 41.4766220314134 138.09126762631
vertex -123.77666908055 -32.5471723616795 138.090780719935
endloop
endfacet
facet normal -0.999999999978367 6.57769596007866e-006 -1.45172755691915e-017
outer loop
vertex -123.77666908055 -32.5471723616722 141.402607534632
vertex -123.776182174536 41.4766220314134 138.09126762631
vertex -123.77666908055 -32.5471723616795 138.090780719935
endloop
endfacet
facet normal -0.999999999978367 6.57769596007866e-006 -1.45172755691915e-017
outer loop
vertex -123.77666908055 -32.5471723616722 141.402607534632
vertex -123.776182174536 41.4766220314134 138.09126762631
vertex -123.77666908055 -32.5471723616795 138.090780719935
endloop
endfacet
facet normal -0.999999999978367 6.57769596007866e-006 -1.45172755691915e-017
outer loop
vertex -123.776182174536 41.4766220314134 138.09126762631
vertex -123.77666908055 -32.5471723616722 141.402607534632
vertex -123.776172343239 38.1766220315068 141.40307273459
endloop
endfacet
facet normal -0.999999999978367 6.57769596007866e-006 -1.45172755691915e-017
outer loop
vertex -123.776182174536 41.4766220314134 138.09126762631
vertex -123.77666908055 -32.5471723616722 141.402607534632
vertex -123.776172343239 38.1766220315068 141.40307273459
endloop
endfacet
facet normal -0.999999999978367 6.57769596007866e-006 -1.45172755691915e-017
outer loop
vertex -123.776182174536 41.4766220314134 138.09126762631
vertex -123.77666908055 -32.5471723616722 141.402607534632
vertex -123.776172343239 38.1766220315068 141.40307273459
endloop
endfacet
facet normal -0.999999999978367 6.57769596007866e-006 -1.45172755691915e-017
outer loop
vertex -123.776182174536 41.4766220314134 138.09126762631
vertex -123.776172343239 38.1766220315068 141.40307273459
vertex -123.776182174536 41.4766220314207 141.403094441007
endloop
endfacet
facet normal -0.999999999978367 6.57769596007866e-006 -1.45172755691915e-017
outer loop
vertex -123.776182174536 41.4766220314134 138.09126762631
vertex -123.776172343239 38.1766220315068 141.40307273459
vertex -123.776182174536 41.4766220314207 141.403094441007
endloop
endfacet
facet normal -0.999999999978367 6.57769596007866e-006 -1.45172755691915e-017
outer loop
vertex -123.776182174536 41.4766220314134 138.09126762631
vertex -123.776172343239 38.1766220315068 141.40307273459
vertex -123.776182174536 41.4766220314207 141.403094441007
endloop
endfacet
facet normal 1.4562072188033e-017 6.57770084292916e-006 -0.999999999978367
outer loop
vertex -127.088003842315 38.1766220315141 141.40307273459
vertex -123.77666908055 -32.5471723616722 141.402607534632
vertex -127.088500579626 -32.5471723616648 141.402607534632
endloop
endfacet
facet normal 1.4562072188033e-017 6.57770084292916e-006 -0.999999999978367
outer loop
vertex -127.088003842315 38.1766220315141 141.40307273459
vertex -123.77666908055 -32.5471723616722 141.402607534632
vertex -127.088500579626 -32.5471723616648 141.402607534632
endloop
endfacet
facet normal 1.4562072188033e-017 6.57770084292916e-006 -0.999999999978367
outer loop
vertex -127.088003842315 38.1766220315141 141.40307273459
vertex -123.77666908055 -32.5471723616722 141.402607534632
vertex -127.088500579626 -32.5471723616648 141.402607534632
endloop
endfacet
facet normal 1.4562072188033e-017 6.57770084292916e-006 -0.999999999978367
outer loop
vertex -123.77666908055 -32.5471723616722 141.402607534632
vertex -127.088003842315 38.1766220315141 141.40307273459
vertex -123.776172343239 38.1766220315068 141.40307273459
endloop
endfacet
facet normal 1.4562072188033e-017 6.57770084292916e-006 -0.999999999978367
outer loop
vertex -123.77666908055 -32.5471723616722 141.402607534632
vertex -127.088003842315 38.1766220315141 141.40307273459
vertex -123.776172343239 38.1766220315068 141.40307273459
endloop
endfacet
facet normal 1.4562072188033e-017 6.57770084292916e-006 -0.999999999978367
outer loop
vertex -123.77666908055 -32.5471723616722 141.402607534632
vertex -127.088003842315 38.1766220315141 141.40307273459
vertex -123.776172343239 38.1766220315068 141.40307273459
endloop
endfacet
facet normal 0.999999999978367 -6.57769595950948e-006 -8.6532247033942e-011
outer loop
vertex -127.088500579626 -32.5471287932455 138.090780719935
vertex -127.088003842315 38.1766220315141 141.40307273459
vertex -127.088500579626 -32.5471723616648 141.402607534632
endloop
endfacet
facet normal 0.999999999978367 -6.57769595950948e-006 -8.6532247033942e-011
outer loop
vertex -127.088500579626 -32.5471287932455 138.090780719935
vertex -127.088003842315 38.1766220315141 141.40307273459
vertex -127.088500579626 -32.5471723616648 141.402607534632
endloop
endfacet
facet normal 0.999999999978367 -6.57769595950948e-006 -8.6532247033942e-011
outer loop
vertex -127.088500579626 -32.5471287932455 138.090780719935
vertex -127.088003842315 38.1766220315141 141.40307273459
vertex -127.088500579626 -32.5471723616648 141.402607534632
endloop
endfacet
facet normal 0.999999999978367 -6.57769595950948e-006 -8.6532247033942e-011
outer loop
vertex -127.088003842315 38.1766220315141 141.40307273459
vertex -127.088500579626 -32.5471287932455 138.090780719935
vertex -127.088013673612 41.4766655998474 138.09126762631
endloop
endfacet
facet normal 0.999999999978367 -6.57769595950948e-006 -8.6532247033942e-011
outer loop
vertex -127.088003842315 38.1766220315141 141.40307273459
vertex -127.088500579626 -32.5471287932455 138.090780719935
vertex -127.088013673612 41.4766655998474 138.09126762631
endloop
endfacet
facet normal 0.999999999978367 -6.57769595950948e-006 -8.6532247033942e-011
outer loop
vertex -127.088003842315 38.1766220315141 141.40307273459
vertex -127.088500579626 -32.5471287932455 138.090780719935
vertex -127.088013673612 41.4766655998474 138.09126762631
endloop
endfacet
facet normal 0.999999999978367 -6.57769595950948e-006 -8.6532247033942e-011
outer loop
vertex -127.088003842315 38.1766220315141 141.40307273459
vertex -127.088013673612 41.4766655998474 138.09126762631
vertex -127.088013673612 41.476622031428 141.403094441007
endloop
endfacet
facet normal 0.999999999978367 -6.57769595950948e-006 -8.6532247033942e-011
outer loop
vertex -127.088003842315 38.1766220315141 141.40307273459
vertex -127.088013673612 41.4766655998474 138.09126762631
vertex -127.088013673612 41.476622031428 141.403094441007
endloop
endfacet
facet normal 0.999999999978367 -6.57769595950948e-006 -8.6532247033942e-011
outer loop
vertex -127.088003842315 38.1766220315141 141.40307273459
vertex -127.088013673612 41.4766655998474 138.09126762631
vertex -127.088013673612 41.476622031428 141.403094441007
endloop
endfacet
facet normal -8.65322179545942e-011 -6.57770084235997e-006 0.999999999978367
outer loop
vertex -123.77666908055 -32.5471723616795 138.090780719935
vertex -127.088013673612 41.4766655998474 138.09126762631
vertex -127.088500579626 -32.5471287932455 138.090780719935
endloop
endfacet
facet normal -8.65322179545942e-011 -6.57770084235997e-006 0.999999999978367
outer loop
vertex -123.77666908055 -32.5471723616795 138.090780719935
vertex -127.088013673612 41.4766655998474 138.09126762631
vertex -127.088500579626 -32.5471287932455 138.090780719935
endloop
endfacet
facet normal -8.65322179545942e-011 -6.57770084235997e-006 0.999999999978367
outer loop
vertex -123.77666908055 -32.5471723616795 138.090780719935
vertex -127.088013673612 41.4766655998474 138.09126762631
vertex -127.088500579626 -32.5471287932455 138.090780719935
endloop
endfacet
facet normal -8.65322179545942e-011 -6.57770084235997e-006 0.999999999978367
outer loop
vertex -127.088013673612 41.4766655998474 138.09126762631
vertex -123.77666908055 -32.5471723616795 138.090780719935
vertex -123.776182174536 41.4766220314134 138.09126762631
endloop
endfacet
facet normal -8.65322179545942e-011 -6.57770084235997e-006 0.999999999978367
outer loop
vertex -127.088013673612 41.4766655998474 138.09126762631
vertex -123.77666908055 -32.5471723616795 138.090780719935
vertex -123.776182174536 41.4766220314134 138.09126762631
endloop
endfacet
facet normal -8.65322179545942e-011 -6.57770084235997e-006 0.999999999978367
outer loop
vertex -127.088013673612 41.4766655998474 138.09126762631
vertex -123.77666908055 -32.5471723616795 138.090780719935
vertex -123.776182174536 41.4766220314134 138.09126762631
endloop
endfacet
facet normal 5.35639059055845e-006 0.999999999964021 6.577700970737e-006
outer loop
vertex -128.58801367358 41.4766951994903 136.591267626342
vertex -127.088013673612 41.4766655998474 138.09126762631
vertex -122.276182174569 41.4766121648732 136.591267626342
endloop
endfacet
facet normal 5.35639059055845e-006 0.999999999964021 6.577700970737e-006
outer loop
vertex -128.58801367358 41.4766951994903 136.591267626342
vertex -127.088013673612 41.4766655998474 138.09126762631
vertex -122.276182174569 41.4766121648732 136.591267626342
endloop
endfacet
facet normal 5.35639059055845e-006 0.999999999964021 6.577700970737e-006
outer loop
vertex -128.58801367358 41.4766951994903 136.591267626342
vertex -127.088013673612 41.4766655998474 138.09126762631
vertex -122.276182174569 41.4766121648732 136.591267626342
endloop
endfacet
facet normal 5.35639059055845e-006 0.999999999964021 6.577700970737e-006
outer loop
vertex -127.088013673612 41.4766655998474 138.09126762631
vertex -128.58801367358 41.4766951994903 136.591267626342
vertex -128.588013673555 41.4765726986638 148.903094440856
endloop
endfacet
facet normal 5.35639059055845e-006 0.999999999964021 6.577700970737e-006
outer loop
vertex -127.088013673612 41.4766655998474 138.09126762631
vertex -128.58801367358 41.4766951994903 136.591267626342
vertex -128.588013673555 41.4765726986638 148.903094440856
endloop
endfacet
facet normal 5.35639059055845e-006 0.999999999964021 6.577700970737e-006
outer loop
vertex -127.088013673612 41.4766655998474 138.09126762631
vertex -128.58801367358 41.4766951994903 136.591267626342
vertex -128.588013673555 41.4765726986638 148.903094440856
endloop
endfacet
facet normal 5.35639059055845e-006 0.999999999964021 6.577700970737e-006
outer loop
vertex -127.088013673612 41.4766655998474 138.09126762631
vertex -128.588013673555 41.4765726986638 148.903094440856
vertex -127.088013673612 41.476622031428 141.403094441007
endloop
endfacet
facet normal 5.35639059055845e-006 0.999999999964021 6.577700970737e-006
outer loop
vertex -127.088013673612 41.4766655998474 138.09126762631
vertex -128.588013673555 41.4765726986638 148.903094440856
vertex -127.088013673612 41.476622031428 141.403094441007
endloop
endfacet
facet normal 5.35639059055845e-006 0.999999999964021 6.577700970737e-006
outer loop
vertex -127.088013673612 41.4766655998474 138.09126762631
vertex -128.588013673555 41.4765726986638 148.903094440856
vertex -127.088013673612 41.476622031428 141.403094441007
endloop
endfacet
facet normal 5.35639059055845e-006 0.999999999964021 6.577700970737e-006
outer loop
vertex -127.088013673612 41.476622031428 141.403094441007
vertex -128.588013673555 41.4765726986638 148.903094440856
vertex -127.088013673587 41.4765628321127 148.903094440791
endloop
endfacet
facet normal 5.35639059055845e-006 0.999999999964021 6.577700970737e-006
outer loop
vertex -127.088013673612 41.476622031428 141.403094441007
vertex -128.588013673555 41.4765726986638 148.903094440856
vertex -127.088013673587 41.4765628321127 148.903094440791
endloop
endfacet
facet normal 5.35639059055845e-006 0.999999999964021 6.577700970737e-006
outer loop
vertex -127.088013673612 41.476622031428 141.403094441007
vertex -128.588013673555 41.4765726986638 148.903094440856
vertex -127.088013673587 41.4765628321127 148.903094440791
endloop
endfacet
facet normal 5.35639059055845e-006 0.999999999964021 6.577700970737e-006
outer loop
vertex -122.276182174569 41.4766121648732 136.591267626342
vertex -123.776182174536 41.4766220314134 138.09126762631
vertex -122.276182174543 41.4765726986638 148.903094440856
endloop
endfacet
facet normal 5.35639059055845e-006 0.999999999964021 6.577700970737e-006
outer loop
vertex -122.276182174569 41.4766121648732 136.591267626342
vertex -123.776182174536 41.4766220314134 138.09126762631
vertex -122.276182174543 41.4765726986638 148.903094440856
endloop
endfacet
facet normal 5.35639059055845e-006 0.999999999964021 6.577700970737e-006
outer loop
vertex -122.276182174569 41.4766121648732 136.591267626342
vertex -123.776182174536 41.4766220314134 138.09126762631
vertex -122.276182174543 41.4765726986638 148.903094440856
endloop
endfacet
facet normal 5.35639059055845e-006 0.999999999964021 6.577700970737e-006
outer loop
vertex -123.776182174536 41.4766220314134 138.09126762631
vertex -122.276182174569 41.4766121648732 136.591267626342
vertex -127.088013673612 41.4766655998474 138.09126762631
endloop
endfacet
facet normal 5.35639059055845e-006 0.999999999964021 6.577700970737e-006
outer loop
vertex -123.776182174536 41.4766220314134 138.09126762631
vertex -122.276182174569 41.4766121648732 136.591267626342
vertex -127.088013673612 41.4766655998474 138.09126762631
endloop
endfacet
facet normal 5.35639059055845e-006 0.999999999964021 6.577700970737e-006
outer loop
vertex -123.776182174536 41.4766220314134 138.09126762631
vertex -122.276182174569 41.4766121648732 136.591267626342
vertex -127.088013673612 41.4766655998474 138.09126762631
endloop
endfacet
facet normal 5.35639059055845e-006 0.999999999964021 6.577700970737e-006
outer loop
vertex -122.276182174543 41.4765726986638 148.903094440856
vertex -123.776182174536 41.4766220314134 138.09126762631
vertex -123.776182174536 41.4766220314207 141.403094441007
endloop
endfacet
facet normal 5.35639059055845e-006 0.999999999964021 6.577700970737e-006
outer loop
vertex -122.276182174543 41.4765726986638 148.903094440856
vertex -123.776182174536 41.4766220314134 138.09126762631
vertex -123.776182174536 41.4766220314207 141.403094441007
endloop
endfacet
facet normal 5.35639059055845e-006 0.999999999964021 6.577700970737e-006
outer loop
vertex -122.276182174543 41.4765726986638 148.903094440856
vertex -123.776182174536 41.4766220314134 138.09126762631
vertex -123.776182174536 41.4766220314207 141.403094441007
endloop
endfacet
facet normal 5.35639059055845e-006 0.999999999964021 6.577700970737e-006
outer loop
vertex -122.276182174543 41.4765726986638 148.903094440856
vertex -123.776182174536 41.4766220314207 141.403094441007
vertex -123.776182174511 41.4765825652113 148.903094440856
endloop
endfacet
facet normal 5.35639059055845e-006 0.999999999964021 6.577700970737e-006
outer loop
vertex -122.276182174543 41.4765726986638 148.903094440856
vertex -123.776182174536 41.4766220314207 141.403094441007
vertex -123.776182174511 41.4765825652113 148.903094440856
endloop
endfacet
facet normal 5.35639059055845e-006 0.999999999964021 6.577700970737e-006
outer loop
vertex -122.276182174543 41.4765726986638 148.903094440856
vertex -123.776182174536 41.4766220314207 141.403094441007
vertex -123.776182174511 41.4765825652113 148.903094440856
endloop
endfacet
facet normal -2.97918104124869e-006 0.999999999973929 6.57770194880813e-006
outer loop
vertex -127.088003842289 38.1765628321988 148.903072734375
vertex -123.776172343239 38.1766220315068 141.40307273459
vertex -127.088003842315 38.1766220315141 141.40307273459
endloop
endfacet
facet normal -2.97918104124869e-006 0.999999999973929 6.57770194880813e-006
outer loop
vertex -127.088003842289 38.1765628321988 148.903072734375
vertex -123.776172343239 38.1766220315068 141.40307273459
vertex -127.088003842315 38.1766220315141 141.40307273459
endloop
endfacet
facet normal -2.97918104124869e-006 0.999999999973929 6.57770194880813e-006
outer loop
vertex -127.088003842289 38.1765628321988 148.903072734375
vertex -123.776172343239 38.1766220315068 141.40307273459
vertex -127.088003842315 38.1766220315141 141.40307273459
endloop
endfacet
facet normal -2.97918104124869e-006 0.999999999973929 6.57770194880813e-006
outer loop
vertex -123.776172343239 38.1766220315068 141.40307273459
vertex -127.088003842289 38.1765628321988 148.903072734375
vertex -123.776172343213 38.1765825652973 148.90307273444
endloop
endfacet
facet normal -2.97918104124869e-006 0.999999999973929 6.57770194880813e-006
outer loop
vertex -123.776172343239 38.1766220315068 141.40307273459
vertex -127.088003842289 38.1765628321988 148.903072734375
vertex -123.776172343213 38.1765825652973 148.90307273444
endloop
endfacet
facet normal -2.97918104124869e-006 0.999999999973929 6.57770194880813e-006
outer loop
vertex -123.776172343239 38.1766220315068 141.40307273459
vertex -127.088003842289 38.1765628321988 148.903072734375
vertex -123.776172343213 38.1765825652973 148.90307273444
endloop
endfacet
facet normal 0.999999999995562 2.97918104105534e-006 3.91923298819217e-011
outer loop
vertex -127.088003842315 38.1766220315141 141.40307273459
vertex -127.088013673587 41.4765628321127 148.903094440791
vertex -127.088003842289 38.1765628321988 148.903072734375
endloop
endfacet
facet normal 0.999999999995562 2.97918104105534e-006 3.91923298819217e-011
outer loop
vertex -127.088003842315 38.1766220315141 141.40307273459
vertex -127.088013673587 41.4765628321127 148.903094440791
vertex -127.088003842289 38.1765628321988 148.903072734375
endloop
endfacet
facet normal 0.999999999995562 2.97918104105534e-006 3.91923298819217e-011
outer loop
vertex -127.088003842315 38.1766220315141 141.40307273459
vertex -127.088013673587 41.4765628321127 148.903094440791
vertex -127.088003842289 38.1765628321988 148.903072734375
endloop
endfacet
facet normal 0.999999999995562 2.97918104105534e-006 3.91923298819217e-011
outer loop
vertex -127.088013673587 41.4765628321127 148.903094440791
vertex -127.088003842315 38.1766220315141 141.40307273459
vertex -127.088013673612 41.476622031428 141.403094441007
endloop
endfacet
facet normal 0.999999999995562 2.97918104105534e-006 3.91923298819217e-011
outer loop
vertex -127.088013673587 41.4765628321127 148.903094440791
vertex -127.088003842315 38.1766220315141 141.40307273459
vertex -127.088013673612 41.476622031428 141.403094441007
endloop
endfacet
facet normal 0.999999999995562 2.97918104105534e-006 3.91923298819217e-011
outer loop
vertex -127.088013673587 41.4765628321127 148.903094440791
vertex -127.088003842315 38.1766220315141 141.40307273459
vertex -127.088013673612 41.476622031428 141.403094441007
endloop
endfacet
facet normal -0.999999999995562 -2.97918104131314e-006 -0.0
outer loop
vertex -123.776182174511 41.4765825652113 148.903094440856
vertex -123.776172343239 38.1766220315068 141.40307273459
vertex -123.776172343213 38.1765825652973 148.90307273444
endloop
endfacet
facet normal -0.999999999995562 -2.97918104131314e-006 -0.0
outer loop
vertex -123.776182174511 41.4765825652113 148.903094440856
vertex -123.776172343239 38.1766220315068 141.40307273459
vertex -123.776172343213 38.1765825652973 148.90307273444
endloop
endfacet
facet normal -0.999999999995562 -2.97918104131314e-006 -0.0
outer loop
vertex -123.776182174511 41.4765825652113 148.903094440856
vertex -123.776172343239 38.1766220315068 141.40307273459
vertex -123.776172343213 38.1765825652973 148.90307273444
endloop
endfacet
facet normal -0.999999999995562 -2.97918104131314e-006 -0.0
outer loop
vertex -123.776172343239 38.1766220315068 141.40307273459
vertex -123.776182174511 41.4765825652113 148.903094440856
vertex -123.776182174536 41.4766220314207 141.403094441007
endloop
endfacet
facet normal -0.999999999995562 -2.97918104131314e-006 -0.0
outer loop
vertex -123.776172343239 38.1766220315068 141.40307273459
vertex -123.776182174511 41.4765825652113 148.903094440856
vertex -123.776182174536 41.4766220314207 141.403094441007
endloop
endfacet
facet normal -0.999999999995562 -2.97918104131314e-006 -0.0
outer loop
vertex -123.776172343239 38.1766220315068 141.40307273459
vertex -123.776182174511 41.4765825652113 148.903094440856
vertex -123.776182174536 41.4766220314207 141.403094441007
endloop
endfacet
facet normal 4.22988105057621e-012 -6.57770157431441e-006 0.999999999978367
outer loop
vertex -128.588045246495 36.6765726990257 148.90306286788
vertex -127.088003842289 38.1765628321988 148.903072734375
vertex -128.588013673555 41.4765726986638 148.903094440856
endloop
endfacet
facet normal 4.22988105057621e-012 -6.57770157431441e-006 0.999999999978367
outer loop
vertex -128.588045246495 36.6765726990257 148.90306286788
vertex -127.088003842289 38.1765628321988 148.903072734375
vertex -128.588013673555 41.4765726986638 148.903094440856
endloop
endfacet
facet normal 4.22988105057621e-012 -6.57770157431441e-006 0.999999999978367
outer loop
vertex -128.588045246495 36.6765726990257 148.90306286788
vertex -127.088003842289 38.1765628321988 148.903072734375
vertex -128.588013673555 41.4765726986638 148.903094440856
endloop
endfacet
facet normal 4.22988105057621e-012 -6.57770157431441e-006 0.999999999978367
outer loop
vertex -127.088003842289 38.1765628321988 148.903072734375
vertex -128.588045246495 36.6765726990257 148.90306286788
vertex -122.276213747484 36.6765726990257 148.90306286788
endloop
endfacet
facet normal 4.22988105057621e-012 -6.57770157431441e-006 0.999999999978367
outer loop
vertex -127.088003842289 38.1765628321988 148.903072734375
vertex -128.588045246495 36.6765726990257 148.90306286788
vertex -122.276213747484 36.6765726990257 148.90306286788
endloop
endfacet
facet normal 4.22988105057621e-012 -6.57770157431441e-006 0.999999999978367
outer loop
vertex -127.088003842289 38.1765628321988 148.903072734375
vertex -128.588045246495 36.6765726990257 148.90306286788
vertex -122.276213747484 36.6765726990257 148.90306286788
endloop
endfacet
facet normal 4.22988105057621e-012 -6.57770157431441e-006 0.999999999978367
outer loop
vertex -128.588013673555 41.4765726986638 148.903094440856
vertex -127.088003842289 38.1765628321988 148.903072734375
vertex -127.088013673587 41.4765628321127 148.903094440791
endloop
endfacet
facet normal 4.22988105057621e-012 -6.57770157431441e-006 0.999999999978367
outer loop
vertex -128.588013673555 41.4765726986638 148.903094440856
vertex -127.088003842289 38.1765628321988 148.903072734375
vertex -127.088013673587 41.4765628321127 148.903094440791
endloop
endfacet
facet normal 4.22988105057621e-012 -6.57770157431441e-006 0.999999999978367
outer loop
vertex -128.588013673555 41.4765726986638 148.903094440856
vertex -127.088003842289 38.1765628321988 148.903072734375
vertex -127.088013673587 41.4765628321127 148.903094440791
endloop
endfacet
facet normal 4.22988105057621e-012 -6.57770157431441e-006 0.999999999978367
outer loop
vertex -127.088003842289 38.1765628321988 148.903072734375
vertex -122.276213747484 36.6765726990257 148.90306286788
vertex -123.776172343213 38.1765825652973 148.90307273444
endloop
endfacet
facet normal 4.22988105057621e-012 -6.57770157431441e-006 0.999999999978367
outer loop
vertex -127.088003842289 38.1765628321988 148.903072734375
vertex -122.276213747484 36.6765726990257 148.90306286788
vertex -123.776172343213 38.1765825652973 148.90307273444
endloop
endfacet
facet normal 4.22988105057621e-012 -6.57770157431441e-006 0.999999999978367
outer loop
vertex -127.088003842289 38.1765628321988 148.903072734375
vertex -122.276213747484 36.6765726990257 148.90306286788
vertex -123.776172343213 38.1765825652973 148.90307273444
endloop
endfacet
facet normal 4.22988105057621e-012 -6.57770157431441e-006 0.999999999978367
outer loop
vertex -123.776172343213 38.1765825652973 148.90307273444
vertex -122.276182174543 41.4765726986638 148.903094440856
vertex -123.776182174511 41.4765825652113 148.903094440856
endloop
endfacet
facet normal 4.22988105057621e-012 -6.57770157431441e-006 0.999999999978367
outer loop
vertex -123.776172343213 38.1765825652973 148.90307273444
vertex -122.276182174543 41.4765726986638 148.903094440856
vertex -123.776182174511 41.4765825652113 148.903094440856
endloop
endfacet
facet normal 4.22988105057621e-012 -6.57770157431441e-006 0.999999999978367
outer loop
vertex -123.776172343213 38.1765825652973 148.90307273444
vertex -122.276182174543 41.4765726986638 148.903094440856
vertex -123.776182174511 41.4765825652113 148.903094440856
endloop
endfacet
facet normal 4.22988105057621e-012 -6.57770157431441e-006 0.999999999978367
outer loop
vertex -122.276182174543 41.4765726986638 148.903094440856
vertex -123.776172343213 38.1765825652973 148.90307273444
vertex -122.276213747484 36.6765726990257 148.90306286788
endloop
endfacet
facet normal 4.22988105057621e-012 -6.57770157431441e-006 0.999999999978367
outer loop
vertex -122.276182174543 41.4765726986638 148.903094440856
vertex -123.776172343213 38.1765825652973 148.90307273444
vertex -122.276213747484 36.6765726990257 148.90306286788
endloop
endfacet
facet normal 4.22988105057621e-012 -6.57770157431441e-006 0.999999999978367
outer loop
vertex -122.276182174543 41.4765726986638 148.903094440856
vertex -123.776172343213 38.1765825652973 148.90307273444
vertex -122.276213747484 36.6765726990257 148.90306286788
endloop
endfacet
facet normal -2.93875049970442e-021 -0.999999999978367 -6.57770157431441e-006
outer loop
vertex -122.276213747484 36.6765726990257 148.90306286788
vertex -128.588045246521 36.6766121652352 142.90306286801
vertex -122.27621374751 36.6766121652352 142.90306286801
endloop
endfacet
facet normal -2.93875049970442e-021 -0.999999999978367 -6.57770157431441e-006
outer loop
vertex -122.276213747484 36.6765726990257 148.90306286788
vertex -128.588045246521 36.6766121652352 142.90306286801
vertex -122.27621374751 36.6766121652352 142.90306286801
endloop
endfacet
facet normal -2.93875049970442e-021 -0.999999999978367 -6.57770157431441e-006
outer loop
vertex -122.276213747484 36.6765726990257 148.90306286788
vertex -128.588045246521 36.6766121652352 142.90306286801
vertex -122.27621374751 36.6766121652352 142.90306286801
endloop
endfacet
facet normal -2.93875049970442e-021 -0.999999999978367 -6.57770157431441e-006
outer loop
vertex -128.588045246521 36.6766121652352 142.90306286801
vertex -122.276213747484 36.6765726990257 148.90306286788
vertex -128.588045246495 36.6765726990257 148.90306286788
endloop
endfacet
facet normal -2.93875049970442e-021 -0.999999999978367 -6.57770157431441e-006
outer loop
vertex -128.588045246521 36.6766121652352 142.90306286801
vertex -122.276213747484 36.6765726990257 148.90306286788
vertex -128.588045246495 36.6765726990257 148.90306286788
endloop
endfacet
facet normal -2.93875049970442e-021 -0.999999999978367 -6.57770157431441e-006
outer loop
vertex -128.588045246521 36.6766121652352 142.90306286801
vertex -122.276213747484 36.6765726990257 148.90306286788
vertex -128.588045246495 36.6765726990257 148.90306286788
endloop
endfacet
endsolid Part 6 Stand
