v 60.54977 21.669225000000097 0
v 228.368955 21.669225000000097 0
v 396.18814000000003 21.669225000000097 0
v 564.007325 21.669225000000097 0
v 731.82651 21.669225000000097 0
v 899.645695 21.669225000000097 0
v 1067.46488 21.669225000000097 0
v 1235.284065 21.669225000000097 0
v 1403.1032500000001 21.669225000000097 0
v 1403.1370000000002 21.664449999999988 0
v 1403.1370000000002 146.97075499999997 0
v 1403.1370000000002 272.27705999999995 0
v 1403.1370000000002 397.58336499999996 0
v 1403.1370000000002 522.8896699999999 0
v 1403.1370000000002 648.1959749999999 0
v 1403.1370000000002 773.5022799999999 0
v 1403.1370000000002 898.8085849999999 0
v 1403.1370000000002 1024.1148899999998 0
v 1403.0425 1024.128875 0
v 1235.2309075 1024.128875 0
v 1067.419315 1024.128875 0
v 899.6077224999999 1024.128875 0
v 731.79613 1024.128875 0
v 563.9845375 1024.128875 0
v 396.1729449999999 1024.128875 0
v 228.36135249999984 1024.128875 0
v 60.54975999999988 1024.128875 0
v 60.54942125 1023.91278 0
v 60.54942125 898.6531496875 0
v 60.54942125 773.393519375 0
v 60.54942125 648.1338890625 0
v 60.54942125 522.8742587500001 0
v 60.54942125 397.6146284375001 0
v 60.54942125 272.35499812500007 0
v 60.54942125 147.09536781250006 0
v 60.54942125 21.83573750000005 0
v 69.46633375 32.58615000000009 0
v 234.78121390625 32.58615000000009 0
v 400.0960940625 32.58615000000009 0
v 565.4109742187501 32.58615000000009 0
v 730.725854375 32.58615000000009 0
v 896.04073453125 32.58615000000009 0
v 1061.3556146875 32.58615000000009 0
v 1226.6704948437502 32.58615000000009 0
v 1391.9853750000002 32.58615000000009 0
v 1391.9853749999997 32.58615000000009 0
v 1391.9853749999997 155.16437640625008 0
v 1391.9853749999997 277.7426028125001 0
v 1391.9853749999997 400.3208292187501 0
v 1391.9853749999997 522.8990556250001 0
v 1391.9853749999997 645.4772820312501 0
v 1391.9853749999997 768.0555084375001 0
v 1391.9853749999997 890.6337348437501 0
v 1391.9853749999997 1013.2119612500001 0
v 1391.9853749999997 1013.2119612500001 0
v 1226.6704948437498 1013.2119612500001 0
v 1061.3556146874998 1013.2119612500001 0
v 896.0407345312497 1013.2119612500001 0
v 730.7258543749997 1013.2119612500001 0
v 565.4109742187497 1013.2119612500001 0
v 400.0960940624997 1013.2119612500001 0
v 234.7812139062496 1013.2119612500001 0
v 69.46633374999965 1013.2119612500001 0
v 69.46633375 1013.2119612500001 0
v 69.46633375 890.6337348437501 0
v 69.46633375 768.0555084375001 0
v 69.46633375 645.4772820312501 0
v 69.46633375 522.8990556250001 0
v 69.46633375 400.3208292187501 0
v 69.46633375 277.7426028125001 0
v 69.46633375 155.16437640625008 0
v 69.46633375 32.58615000000009 0
v 192.425875 21.833037500000046 0
v 192.425875 23.17121093750005 0
v 192.425875 24.509384375000053 0
v 192.425875 25.847557812500057 0
v 192.425875 27.18573125000006 0
v 192.425875 28.523904687500064 0
v 192.425875 29.862078125000068 0
v 192.425875 31.20025156250007 0
v 192.425875 32.538425000000075 0
v 192.425875 1013.2584437500001 0
v 192.425875 1014.5907312500001 0
v 192.425875 1015.9230187500001 0
v 192.425875 1017.2553062500001 0
v 192.425875 1018.58759375 0
v 192.425875 1019.91988125 0
v 192.425875 1021.25216875 0
v 192.425875 1022.58445625 0
v 192.425875 1023.91674375 0
v 324.537 21.9296875 0
v 324.537 23.25609375000002 0
v 324.537 24.58250000000004 0
v 324.537 25.908906250000058 0
v 324.537 27.235312500000077 0
v 324.537 28.561718750000097 0
v 324.537 29.888125000000116 0
v 324.537 31.214531250000135 0
v 324.537 32.540937500000155 0
v 324.537 1013.254675 0
v 324.537 1014.5693134375 0
v 324.537 1015.883951875 0
v 324.537 1017.1985903125 0
v 324.537 1018.51322875 0
v 324.537 1019.8278671875 0
v 324.537 1021.142505625 0
v 324.537 1022.4571440625 0
v 324.537 1023.7717825 0
v 456.4134375 21.832587500000045 0
v 456.4134375 23.170875000000038 0
v 456.4134375 24.50916250000003 0
v 456.4134375 25.847450000000023 0
v 456.4134375 27.185737500000016 0
v 456.4134375 28.52402500000001 0
v 456.4134375 29.8623125 0
v 456.4134375 31.200599999999994 0
v 456.4134375 32.53888749999999 0
v 456.4134375 1013.2604025 0
v 456.4134375 1014.6045946875 0
v 456.4134375 1015.948786875 0
v 456.4134375 1017.2929790625001 0
v 456.4134375 1018.63717125 0
v 456.4134375 1019.9813634375 0
v 456.4134375 1021.3255556250001 0
v 456.4134375 1022.6697478125001 0
v 456.4134375 1024.01394 0
v 588.2898875 21.71308750000003 0
v 588.2898875 23.033635937500037 0
v 588.2898875 24.354184375000045 0
v 588.2898875 25.674732812500054 0
v 588.2898875 26.995281250000062 0
v 588.2898875 28.31582968750007 0
v 588.2898875 29.63637812500008 0
v 588.2898875 30.956926562500087 0
v 588.2898875 32.277475000000095 0
v 588.2898875 1013.25593125 0
v 588.2898875 1014.57645265625 0
v 588.2898875 1015.8969740625 0
v 588.2898875 1017.21749546875 0
v 588.2898875 1018.538016875 0
v 588.2898875 1019.85853828125 0
v 588.2898875 1021.1790596875001 0
v 588.2898875 1022.4995810937501 0
v 588.2898875 1023.8201025000001 0
v 720.16635 22.026325000000043 0
v 720.16635 23.340965625000038 0
v 720.16635 24.655606250000034 0
v 720.16635 25.97024687500003 0
v 720.16635 27.284887500000025 0
v 720.16635 28.59952812500002 0
v 720.16635 29.914168750000016 0
v 720.16635 31.22880937500001 0
v 720.16635 32.54345000000001 0
v 720.16635 1013.254675 0
v 720.16635 1014.5693134375 0
v 720.16635 1015.883951875 0
v 720.16635 1017.1985903125 0
v 720.16635 1018.51322875 0
v 720.16635 1019.8278671875 0
v 720.16635 1021.142505625 0
v 720.16635 1022.4571440625 0
v 720.16635 1023.7717825 0
v 852.2774625 21.881362500000023 0
v 852.2774625 23.21365156250002 0
v 852.2774625 24.545940625000014 0
v 852.2774625 25.87822968750001 0
v 852.2774625 27.210518750000006 0
v 852.2774625 28.5428078125 0
v 852.2774625 29.875096874999997 0
v 852.2774625 31.207385937499993 0
v 852.2774625 32.53967499999999 0
v 852.2774625 1013.25341875 0
v 852.2774625 1014.5621740625 0
v 852.2774625 1015.8709293750001 0
v 852.2774625 1017.1796846875001 0
v 852.2774625 1018.4884400000001 0
v 852.2774625 1019.7971953125 0
v 852.2774625 1021.105950625 0
v 852.2774625 1022.4147059375 0
v 852.2774625 1023.72346125 0
v 984.153925 22.026325000000043 0
v 984.153925 23.340965625000038 0
v 984.153925 24.655606250000034 0
v 984.153925 25.97024687500003 0
v 984.153925 27.284887500000025 0
v 984.153925 28.59952812500002 0
v 984.153925 29.914168750000016 0
v 984.153925 31.22880937500001 0
v 984.153925 32.54345000000001 0
v 984.153925 1013.2571875 0
v 984.153925 1014.58359203125 0
v 984.153925 1015.9099965625 0
v 984.153925 1017.23640109375 0
v 984.153925 1018.562805625 0
v 984.153925 1019.88921015625 0
v 984.153925 1021.2156146875 0
v 984.153925 1022.54201921875 0
v 984.153925 1023.86842375 0
v 1116.0303875 21.687212499999987 0
v 1116.0303875 23.04325156249999 0
v 1116.0303875 24.399290624999992 0
v 1116.0303875 25.755329687499994 0
v 1116.0303875 27.111368749999997 0
v 1116.0303875 28.4674078125 0
v 1116.0303875 29.823446875000002 0
v 1116.0303875 31.179485937500004 0
v 1116.0303875 32.53552500000001 0
v 1116.0303875 1013.25593125 0
v 1116.0303875 1014.57645265625 0
v 1116.0303875 1015.8969740625 0
v 1116.0303875 1017.21749546875 0
v 1116.0303875 1018.538016875 0
v 1116.0303875 1019.85853828125 0
v 1116.0303875 1021.1790596875001 0
v 1116.0303875 1022.4995810937501 0
v 1116.0303875 1023.8201025000001 0
v 1248.1415 21.9296875 0
v 1248.1415 23.25609375000002 0
v 1248.1415 24.58250000000004 0
v 1248.1415 25.908906250000058 0
v 1248.1415 27.235312500000077 0
v 1248.1415 28.561718750000097 0
v 1248.1415 29.888125000000116 0
v 1248.1415 31.214531250000135 0
v 1248.1415 32.540937500000155 0
v 1248.1415 1013.2584437500001 0
v 1248.1415 1014.5907312500001 0
v 1248.1415 1015.9230187500001 0
v 1248.1415 1017.2553062500001 0
v 1248.1415 1018.58759375 0
v 1248.1415 1019.91988125 0
v 1248.1415 1021.25216875 0
v 1248.1415 1022.58445625 0
v 1248.1415 1023.91674375 0
v 60.54942125 146.39412500000003 0
v 61.664035312500005 146.39412500000003 0
v 62.778649375 146.39412500000003 0
v 63.8932634375 146.39412500000003 0
v 65.0078775 146.39412500000003 0
v 66.1224915625 146.39412500000003 0
v 67.237105625 146.39412500000003 0
v 68.35171968750001 146.39412500000003 0
v 69.46633375 146.39412500000003 0
v 1402.905875 146.39412500000003 0
v 1401.546390625 146.39412500000003 0
v 1400.18690625 146.39412500000003 0
v 1398.8274218749998 146.39412500000003 0
v 1397.4679374999998 146.39412500000003 0
v 1396.1084531249999 146.39412500000003 0
v 1394.7489687499997 146.39412500000003 0
v 1393.3894843749997 146.39412500000003 0
v 1392.0299999999997 146.39412500000003 0
v 60.54942125 269.35366250000004 0
v 61.664035312500005 269.35366250000004 0
v 62.778649375 269.35366250000004 0
v 63.8932634375 269.35366250000004 0
v 65.0078775 269.35366250000004 0
v 66.1224915625 269.35366250000004 0
v 67.237105625 269.35366250000004 0
v 68.35171968750001 269.35366250000004 0
v 69.46633375 269.35366250000004 0
v 1402.897125 269.35366250000004 0
v 1401.538703125 269.35366250000004 0
v 1400.18028125 269.35366250000004 0
v 1398.821859375 269.35366250000004 0
v 1397.4634375 269.35366250000004 0
v 1396.105015625 269.35366250000004 0
v 1394.74659375 269.35366250000004 0
v 1393.3881718750001 269.35366250000004 0
v 1392.0297500000001 269.35366250000004 0
v 60.54942125 392.3132125000001 0
v 61.664035312500005 392.3132125000001 0
v 62.778649375 392.3132125000001 0
v 63.8932634375 392.3132125000001 0
v 65.0078775 392.3132125000001 0
v 66.1224915625 392.3132125000001 0
v 67.237105625 392.3132125000001 0
v 68.35171968750001 392.3132125000001 0
v 69.46633375 392.3132125000001 0
v 1402.9566249999998 392.3132125000001 0
v 1401.5909374999999 392.3132125000001 0
v 1400.22525 392.3132125000001 0
v 1398.8595624999998 392.3132125000001 0
v 1397.493875 392.3132125000001 0
v 1396.1281875 392.3132125000001 0
v 1394.7624999999998 392.3132125000001 0
v 1393.3968125 392.3132125000001 0
v 1392.031125 392.3132125000001 0
v 60.54942125 515.2727375000001 0
v 61.664035312500005 515.2727375000001 0
v 62.778649375 515.2727375000001 0
v 63.8932634375 515.2727375000001 0
v 65.0078775 515.2727375000001 0
v 66.1224915625 515.2727375000001 0
v 67.237105625 515.2727375000001 0
v 68.35171968750001 515.2727375000001 0
v 69.46633375 515.2727375000001 0
v 1402.95625 515.2727375000001 0
v 1401.59065625 515.2727375000001 0
v 1400.2250625 515.2727375000001 0
v 1398.85946875 515.2727375000001 0
v 1397.4938750000001 515.2727375000001 0
v 1396.12828125 515.2727375000001 0
v 1394.7626875 515.2727375000001 0
v 1393.39709375 515.2727375000001 0
v 1392.0315 515.2727375000001 0
v 60.54942125 638.2322750000001 0
v 61.664035312500005 638.2322750000001 0
v 62.778649375 638.2322750000001 0
v 63.8932634375 638.2322750000001 0
v 65.0078775 638.2322750000001 0
v 66.1224915625 638.2322750000001 0
v 67.237105625 638.2322750000001 0
v 68.35171968750001 638.2322750000001 0
v 69.46633375 638.2322750000001 0
v 1403.1151249999998 638.2322750000001 0
v 1401.73009375 638.2322750000001 0
v 1400.3450624999998 638.2322750000001 0
v 1398.9600312499997 638.2322750000001 0
v 1397.5749999999998 638.2322750000001 0
v 1396.18996875 638.2322750000001 0
v 1394.8049374999998 638.2322750000001 0
v 1393.4199062499997 638.2322750000001 0
v 1392.0348749999998 638.2322750000001 0
v 60.54942125 761.1918250000001 0
v 61.664035312500005 761.1918250000001 0
v 62.778649375 761.1918250000001 0
v 63.8932634375 761.1918250000001 0
v 65.0078775 761.1918250000001 0
v 66.1224915625 761.1918250000001 0
v 67.237105625 761.1918250000001 0
v 68.35171968750001 761.1918250000001 0
v 69.46633375 761.1918250000001 0
v 1402.7585 761.1918250000001 0
v 1401.417 761.1918250000001 0
v 1400.0755 761.1918250000001 0
v 1398.734 761.1918250000001 0
v 1397.3925 761.1918250000001 0
v 1396.051 761.1918250000001 0
v 1394.7095 761.1918250000001 0
v 1393.368 761.1918250000001 0
v 1392.0265 761.1918250000001 0
v 60.54942125 884.151375 0
v 61.664035312500005 884.151375 0
v 62.778649375 884.151375 0
v 63.8932634375 884.151375 0
v 65.0078775 884.151375 0
v 66.1224915625 884.151375 0
v 67.237105625 884.151375 0
v 68.35171968750001 884.151375 0
v 69.46633375 884.151375 0
v 1402.916625 884.151375 0
v 1401.555859375 884.151375 0
v 1400.19509375 884.151375 0
v 1398.834328125 884.151375 0
v 1397.4735624999998 884.151375 0
v 1396.112796875 884.151375 0
v 1394.7520312499998 884.151375 0
v 1393.391265625 884.151375 0
v 1392.0304999999998 884.151375 0
v 402.44263750000005 959.24116875 0
v 526.1354796875 959.24116875 0
v 649.828321875 959.24116875 0
v 773.5211640624999 959.24116875 0
v 897.2140062499999 959.24116875 0
v 1020.9068484374999 959.24116875 0
v 1144.5996906249998 959.24116875 0
v 1268.2925328124998 959.24116875 0
v 1391.9853749999997 959.24116875 0
v 402.44263750000005 977.30965125 0
v 436.1743828125 977.30965125 0
v 469.906128125 977.30965125 0
v 503.6378734375 977.30965125 0
v 537.36961875 977.30965125 0
v 571.1013640624999 977.30965125 0
v 604.8331093749999 977.30965125 0
v 638.5648546875 977.30965125 0
v 672.2965999999999 977.30965125 0
v 402.44263750000005 995.14347875 0
v 436.1743828125 995.14347875 0
v 469.906128125 995.14347875 0
v 503.6378734375 995.14347875 0
v 537.36961875 995.14347875 0
v 571.1013640624999 995.14347875 0
v 604.8331093749999 995.14347875 0
v 638.5648546875 995.14347875 0
v 672.2965999999999 995.14347875 0
v 1194.1707 986.226565 0
v 1218.8975343749999 986.226565 0
v 1243.6243687499998 986.226565 0
v 1268.3512031249998 986.226565 0
v 1293.0780375 986.226565 0
v 1317.804871875 986.226565 0
v 1342.5317062499998 986.226565 0
v 1367.2585406249998 986.226565 0
v 1391.9853749999997 986.226565 0
v 492.31575 959.24116875 0
v 492.31575 965.9875178125001 0
v 492.31575 972.7338668750001 0
v 492.31575 979.4802159375 0
v 492.31575 986.226565 0
v 492.31575 992.9729140625001 0
v 492.31575 999.719263125 0
v 492.31575 1006.4656121875 0
v 492.31575 1013.2119612500001 0
v 582.4235 959.24116875 0
v 582.4235 965.9875178125001 0
v 582.4235 972.7338668750001 0
v 582.4235 979.4802159375 0
v 582.4235 986.226565 0
v 582.4235 992.9729140625001 0
v 582.4235 999.719263125 0
v 582.4235 1006.4656121875 0
v 582.4235 1013.2119612500001 0
v 672.2965999999999 959.24116875 0
v 672.2965999999999 965.9875178125001 0
v 672.2965999999999 972.7338668750001 0
v 672.2965999999999 979.4802159375 0
v 672.2965999999999 986.226565 0
v 672.2965999999999 992.9729140625001 0
v 672.2965999999999 999.719263125 0
v 672.2965999999999 1006.4656121875 0
v 672.2965999999999 1013.2119612500001 0
v 762.1697125000001 959.24116875 0
v 762.1697125000001 965.9875178125001 0
v 762.1697125000001 972.7338668750001 0
v 762.1697125000001 979.4802159375 0
v 762.1697125000001 986.226565 0
v 762.1697125000001 992.9729140625001 0
v 762.1697125000001 999.719263125 0
v 762.1697125000001 1006.4656121875 0
v 762.1697125000001 1013.2119612500001 0
v 978.2875375000001 959.24116875 0
v 978.2875375000001 965.9875178125001 0
v 978.2875375000001 972.7338668750001 0
v 978.2875375000001 979.4802159375 0
v 978.2875375000001 986.226565 0
v 978.2875375000001 992.9729140625001 0
v 978.2875375000001 999.719263125 0
v 978.2875375000001 1006.4656121875 0
v 978.2875375000001 1013.2119612500001 0
v 1194.1707 959.24116875 0
v 1194.1707 965.9875178125001 0
v 1194.1707 972.7338668750001 0
v 1194.1707 979.4802159375 0
v 1194.1707 986.226565 0
v 1194.1707 992.9729140625001 0
v 1194.1707 999.719263125 0
v 1194.1707 1006.4656121875 0
v 1194.1707 1013.2119612500001 0
v 1302.1122500000001 959.24116875 0
v 1302.1122500000001 962.6143432812501 0
v 1302.1122500000001 965.9875178125001 0
v 1302.1122500000001 969.3606923437501 0
v 1302.1122500000001 972.7338668750001 0
v 1302.1122500000001 976.10704140625 0
v 1302.1122500000001 979.4802159375 0
v 1302.1122500000001 982.85339046875 0
v 1302.1122500000001 986.226565 0
v 402.44263750000005 959.24116875 0
v 402.44263750000005 965.9875178125001 0
v 402.44263750000005 972.7338668750001 0
v 402.44263750000005 979.4802159375 0
v 402.44263750000005 986.226565 0
v 402.44263750000005 992.9729140625001 0
v 402.44263750000005 999.719263125 0
v 402.44263750000005 1006.4656121875 0
v 402.44263750000005 1013.2119612500001 0
v 402.44263750000005 1013.2119612500001 0
v 526.1354796875 1013.2119612500001 0
v 649.828321875 1013.2119612500001 0
v 773.5211640624999 1013.2119612500001 0
v 897.2140062499999 1013.2119612500001 0
v 1020.9068484374999 1013.2119612500001 0
v 1144.5996906249998 1013.2119612500001 0
v 1268.2925328124998 1013.2119612500001 0
v 1391.9853749999997 1013.2119612500001 0
v 1391.9853749999997 959.24116875 0
v 1391.9853749999997 965.9875178125001 0
v 1391.9853749999997 972.7338668750001 0
v 1391.9853749999997 979.4802159375 0
v 1391.9853749999997 986.226565 0
v 1391.9853749999997 992.9729140625001 0
v 1391.9853749999997 999.719263125 0
v 1391.9853749999997 1006.4656121875 0
v 1391.9853749999997 1013.2119612500001 0
l 1 2
l 2 3
l 3 4
l 4 5
l 5 6
l 6 7
l 7 8
l 8 9

l 10 11
l 11 12
l 12 13
l 13 14
l 14 15
l 15 16
l 16 17
l 17 18

l 19 20
l 20 21
l 21 22
l 22 23
l 23 24
l 24 25
l 25 26
l 26 27

l 28 29
l 29 30
l 30 31
l 31 32
l 32 33
l 33 34
l 34 35
l 35 36

l 37 38
l 38 39
l 39 40
l 40 41
l 41 42
l 42 43
l 43 44
l 44 45

l 46 47
l 47 48
l 48 49
l 49 50
l 50 51
l 51 52
l 52 53
l 53 54

l 55 56
l 56 57
l 57 58
l 58 59
l 59 60
l 60 61
l 61 62
l 62 63

l 64 65
l 65 66
l 66 67
l 67 68
l 68 69
l 69 70
l 70 71
l 71 72

l 73 74
l 74 75
l 75 76
l 76 77
l 77 78
l 78 79
l 79 80
l 80 81

l 82 83
l 83 84
l 84 85
l 85 86
l 86 87
l 87 88
l 88 89
l 89 90

l 91 92
l 92 93
l 93 94
l 94 95
l 95 96
l 96 97
l 97 98
l 98 99

l 100 101
l 101 102
l 102 103
l 103 104
l 104 105
l 105 106
l 106 107
l 107 108

l 109 110
l 110 111
l 111 112
l 112 113
l 113 114
l 114 115
l 115 116
l 116 117

l 118 119
l 119 120
l 120 121
l 121 122
l 122 123
l 123 124
l 124 125
l 125 126

l 127 128
l 128 129
l 129 130
l 130 131
l 131 132
l 132 133
l 133 134
l 134 135

l 136 137
l 137 138
l 138 139
l 139 140
l 140 141
l 141 142
l 142 143
l 143 144

l 145 146
l 146 147
l 147 148
l 148 149
l 149 150
l 150 151
l 151 152
l 152 153

l 154 155
l 155 156
l 156 157
l 157 158
l 158 159
l 159 160
l 160 161
l 161 162

l 163 164
l 164 165
l 165 166
l 166 167
l 167 168
l 168 169
l 169 170
l 170 171

l 172 173
l 173 174
l 174 175
l 175 176
l 176 177
l 177 178
l 178 179
l 179 180

l 181 182
l 182 183
l 183 184
l 184 185
l 185 186
l 186 187
l 187 188
l 188 189

l 190 191
l 191 192
l 192 193
l 193 194
l 194 195
l 195 196
l 196 197
l 197 198

l 199 200
l 200 201
l 201 202
l 202 203
l 203 204
l 204 205
l 205 206
l 206 207

l 208 209
l 209 210
l 210 211
l 211 212
l 212 213
l 213 214
l 214 215
l 215 216

l 217 218
l 218 219
l 219 220
l 220 221
l 221 222
l 222 223
l 223 224
l 224 225

l 226 227
l 227 228
l 228 229
l 229 230
l 230 231
l 231 232
l 232 233
l 233 234

l 235 236
l 236 237
l 237 238
l 238 239
l 239 240
l 240 241
l 241 242
l 242 243

l 244 245
l 245 246
l 246 247
l 247 248
l 248 249
l 249 250
l 250 251
l 251 252

l 253 254
l 254 255
l 255 256
l 256 257
l 257 258
l 258 259
l 259 260
l 260 261

l 262 263
l 263 264
l 264 265
l 265 266
l 266 267
l 267 268
l 268 269
l 269 270

l 271 272
l 272 273
l 273 274
l 274 275
l 275 276
l 276 277
l 277 278
l 278 279

l 280 281
l 281 282
l 282 283
l 283 284
l 284 285
l 285 286
l 286 287
l 287 288

l 289 290
l 290 291
l 291 292
l 292 293
l 293 294
l 294 295
l 295 296
l 296 297

l 298 299
l 299 300
l 300 301
l 301 302
l 302 303
l 303 304
l 304 305
l 305 306

l 307 308
l 308 309
l 309 310
l 310 311
l 311 312
l 312 313
l 313 314
l 314 315

l 316 317
l 317 318
l 318 319
l 319 320
l 320 321
l 321 322
l 322 323
l 323 324

l 325 326
l 326 327
l 327 328
l 328 329
l 329 330
l 330 331
l 331 332
l 332 333

l 334 335
l 335 336
l 336 337
l 337 338
l 338 339
l 339 340
l 340 341
l 341 342

l 343 344
l 344 345
l 345 346
l 346 347
l 347 348
l 348 349
l 349 350
l 350 351

l 352 353
l 353 354
l 354 355
l 355 356
l 356 357
l 357 358
l 358 359
l 359 360

l 361 362
l 362 363
l 363 364
l 364 365
l 365 366
l 366 367
l 367 368
l 368 369

l 370 371
l 371 372
l 372 373
l 373 374
l 374 375
l 375 376
l 376 377
l 377 378

l 379 380
l 380 381
l 381 382
l 382 383
l 383 384
l 384 385
l 385 386
l 386 387

l 388 389
l 389 390
l 390 391
l 391 392
l 392 393
l 393 394
l 394 395
l 395 396

l 397 398
l 398 399
l 399 400
l 400 401
l 401 402
l 402 403
l 403 404
l 404 405

l 406 407
l 407 408
l 408 409
l 409 410
l 410 411
l 411 412
l 412 413
l 413 414

l 415 416
l 416 417
l 417 418
l 418 419
l 419 420
l 420 421
l 421 422
l 422 423

l 424 425
l 425 426
l 426 427
l 427 428
l 428 429
l 429 430
l 430 431
l 431 432

l 433 434
l 434 435
l 435 436
l 436 437
l 437 438
l 438 439
l 439 440
l 440 441

l 442 443
l 443 444
l 444 445
l 445 446
l 446 447
l 447 448
l 448 449
l 449 450

l 451 452
l 452 453
l 453 454
l 454 455
l 455 456
l 456 457
l 457 458
l 458 459

l 460 461
l 461 462
l 462 463
l 463 464
l 464 465
l 465 466
l 466 467
l 467 468

l 469 470
l 470 471
l 471 472
l 472 473
l 473 474
l 474 475
l 475 476
l 476 477

l 478 479
l 479 480
l 480 481
l 481 482
l 482 483
l 483 484
l 484 485
l 485 486

