v 10.0 0.0 0
v 10.229601514769838 0.3214781787206248 0
v 10.442878114169865 0.6570102017234185 0
v 10.633583156778556 1.0051695534748204 0
v 10.795872598167582 1.3638358751098816 0
v 10.924485090951944 1.7302684569641644 0
v 11.014903126082919 2.1012051477495004 0
v 11.063489922315789 2.4729829909033016 0
v 11.067597601734025 2.8416760782358104 0
v 11.025643172104804 3.2032454542393256 0
v 10.937149937394265 3.5536954353118952 0
v 10.80275313762167 3.889230443968494 0
v 10.62416983728556 4.2064064088052815 0
v 10.404134295472533 4.502270948782663 0
v 10.146301218283 4.774486939744331 0
v 9.855120374886257 5.021434638835623 0
v 9.535687014961379 5.242288298329207 0
v 9.193573324518963 5.437064107590669 0
v 8.834646771728352 5.606637328324923 0
v 8.46488160351833 5.752727597304762 0
v 8.090169943749475 5.877852522924732 0
v 7.716138908767132 5.9852508559433835 0
v 7.34797989814489 6.078777629304955 0
v 6.990295747262048 6.162774696903553 0
v 6.646970761340827 6.241921019240321 0
v 6.3210678118654755 6.321067811865475 0
v 6.014755696067141 6.405064262288963 0
v 5.7292688734466894 6.498579910944614 0
v 5.464900538846877 6.605929967107456 0
v 5.221028810387421 6.7309097842774905 0
v 4.996174644486023 6.876644452187052 0
v 4.788088980400985 7.045458982830043 0
v 4.593865602334483 7.23877389186216 0
v 4.410075323730216 7.457030127483986 0
v 4.2329163768408655 7.699646305778975 0
v 4.058375355955314 7.965010108881104 0
v 3.8823927331804966 8.250504528688005 0
v 3.7010268523381193 8.552568435110985 0
v 3.5106104126074187 8.866789756217981 0
v 3.3078937744392958 9.188028419905262 0
v 3.0901699437494745 9.510565162951535 0
v 2.8553767970286383 9.828271400270005 0
v 2.6021729738432398 10.134794597167543 0
v 2.329984852730058 10.42375302707263 0
v 2.0390231057602457 10.68893344652675 0
v 1.7302684569641649 10.924485090951944 0
v 1.405427409513275 11.125103493743733 0
v 1.0668598149058817 11.286197954573499 0
v 0.7174811944330028 11.404037019545378 0
v 0.36064365154734934 11.47586706768969 0
v 7.041719095097281e-16 11.5 0
v -0.360643651547348 11.47586706768969 0
v -0.7174811944330014 11.404037019545378 0
v -1.0668598149058828 11.286197954573499 0
v -1.4054274095132715 11.125103493743735 0
v -1.730268456964164 10.924485090951945 0
v -2.0390231057602444 10.68893344652675 0
v -2.329984852730055 10.423753027072635 0
v -2.602172973843241 10.134794597167543 0
v -2.855376797028636 9.828271400270008 0
v -3.0901699437494723 9.51056516295154 0
v -3.307893774439295 9.188028419905262 0
v -3.5106104126074165 8.866789756217983 0
v -3.7010268523381202 8.552568435110985 0
v -3.8823927331804975 8.250504528688005 0
v -4.058375355955312 7.965010108881102 0
v -4.232916376840867 7.6996463057789715 0
v -4.410075323730217 7.457030127483986 0
v -4.5938656023344855 7.238773891862159 0
v -4.788088980400985 7.045458982830043 0
v -4.996174644486021 6.876644452187053 0
v -5.221028810387422 6.73090978427749 0
v -5.464900538846877 6.605929967107456 0
v -5.729268873446687 6.498579910944614 0
v -6.0147556960671436 6.405064262288963 0
v -6.321067811865474 6.321067811865475 0
v -6.646970761340825 6.241921019240323 0
v -6.990295747262048 6.162774696903554 0
v -7.347979898144888 6.078777629304957 0
v -7.716138908767133 5.985250855943384 0
v -8.090169943749473 5.877852522924733 0
v -8.464881603518329 5.752727597304763 0
v -8.834646771728346 5.606637328324925 0
v -9.193573324518967 5.437064107590669 0
v -9.535687014961377 5.242288298329205 0
v -9.855120374886253 5.021434638835623 0
v -10.146301218282995 4.774486939744333 0
v -10.404134295472529 4.502270948782668 0
v -10.624169837285558 4.206406408805284 0
v -10.80275313762167 3.889230443968493 0
v -10.937149937394265 3.553695435311896 0
v -11.025643172104804 3.2032454542393287 0
v -11.067597601734024 2.8416760782358157 0
v -11.06348992231579 2.4729829909033043 0
v -11.014903126082917 2.1012051477494995 0
v -10.924485090951944 1.7302684569641658 0
v -10.79587259816758 1.3638358751098847 0
v -10.633583156778556 1.0051695534748208 0
v -10.442878114169865 0.6570102017234207 0
v -10.229601514769836 0.3214781787206242 0
v -10.000000000000002 1.2246467991473535e-15 0
v -9.760529692544797 -0.3067370028419382 0
v -9.517656454395564 -0.5988001888628486 0
v -9.277656135283046 -0.8769967128954641 0
v -9.046421428121977 -1.142828796176204 0
v -8.829281720950812 -1.3984208438404517 0
v -8.630841888490854 -1.6464211439649932 0
v -8.45484531645916 -1.889881837027549 0
v -8.304065620838596 -2.1321216650612835 0
v -8.18023054143406 -2.3765766665452572 0
v -8.083980388508806 -2.626644452187052 0
v -8.014862241462842 -2.885527960937335 0
v -7.9713598804794685 -3.156084644888277 0
v -7.9509582182070915 -3.4406868639129473 0
v -7.950239831037392 -3.741098891557118 0
v -7.965010108881103 -4.058375355955317 0
v -7.990446585915891 -4.3927851837051 0
v -8.02126721555991 -4.743764207416756 0
v -8.051911738311947 -5.109898571255006 0
v -8.076729881972907 -5.488939959737845 0
v -8.090169943749473 -5.877852522924723 0
v -8.086961338746676 -6.272890217116148 0
v -8.062284957370897 -6.669702165668839 0
v -8.011925645347143 -7.063462609569481 0
v -7.932401787087406 -7.449021099333447 0
v -7.821067811865476 -7.821067811865468 0
v -7.676186422506631 -8.174308286139269 0
v -7.496968433026349 -8.503641481664577 0
v -7.283579256126915 -8.80433488840833 0
v -7.03711226267211 -9.07219046323632 0
v -6.759530401363443 -9.303695435311894 0
v -6.453578576641631 -9.49615250266119 0
v -6.1226702972454445 -9.647784618178143 0
v -5.770752991277207 -9.757810412594889 0
v -5.402157105193439 -9.826487295098298 0
v -5.0214346388356255 -9.855120374886255 0
v -4.63319309812095 -9.846036520632387 0
v -4.241930960357489 -9.80252407856864 0
v -3.8518806410861393 -9.728739961547046 0
v -3.4668646304665316 -9.629586959179244 0
v -3.0901699437494763 -9.510565162951536 0
v -2.724445323755954 -9.377602313268858 0
v -2.371624769453852 -9.236868625405078 0
v -2.032879975200792 -9.094582211702313 0
v -1.7086031859542483 -8.956811568047025 0
v -1.3984208438404544 -8.829281720950812 0
v -1.101237261772816 -8.717190532545825 0
v -0.815306451464401 -8.6250413374881 0
v -0.5383291961532648 -8.556497549020051 0
v -0.26757153001521766 -8.51426413962494 0
v -1.5614246689128753e-15 -8.5 0
v 0.26757153001521455 -8.51426413962494 0
v 0.5383291961532617 -8.556497549020053 0
v 0.8153064514644057 -8.625041337488101 0
v 1.1012372617728123 -8.717190532545823 0
v 1.398420843840451 -8.82928172095081 0
v 1.7086031859542445 -8.956811568047023 0
v 2.032879975200788 -9.094582211702312 0
v 2.3716247694538573 -9.23686862540508 0
v 2.724445323755948 -9.377602313268852 0
v 3.090169943749472 -9.510565162951535 0
v 3.4668646304665294 -9.62958695917925 0
v 3.8518806410861344 -9.728739961547046 0
v 4.241930960357482 -9.802524078568636 0
v 4.6331930981209455 -9.846036520632387 0
v 5.0214346388356095 -9.855120374886257 0
v 5.402157105193446 -9.8264872950983 0
v 5.770752991277213 -9.757810412594885 0
v 6.122670297245451 -9.64778461817814 0
v 6.453578576641626 -9.496152502661191 0
v 6.759530401363438 -9.303695435311896 0
v 7.037112262672107 -9.072190463236321 0
v 7.283579256126913 -8.804334888408334 0
v 7.496968433026345 -8.503641481664586 0
v 7.6761864225066265 -8.174308286139276 0
v 7.821067811865471 -7.821067811865488 0
v 7.932401787087403 -7.449021099333456 0
v 8.011925645347144 -7.063462609569481 0
v 8.062284957370894 -6.669702165668837 0
v 8.086961338746672 -6.272890217116144 0
v 8.090169943749475 -5.8778525229247345 0
v 8.076729881972907 -5.488939959737856 0
v 8.05191173831195 -5.109898571255017 0
v 8.021267215559908 -4.743764207416764 0
v 7.990446585915893 -4.392785183705109 0
v 7.965010108881103 -4.058375355955315 0
v 7.950239831037393 -3.7410988915571264 0
v 7.95095821820709 -3.4406868639129464 0
v 7.9713598804794685 -3.1560846448882764 0
v 8.014862241462842 -2.8855279609373348 0
v 8.083980388508804 -2.626644452187055 0
v 8.180230541434057 -2.376576666545263 0
v 8.304065620838594 -2.13212166506129 0
v 8.454845316459155 -1.8898818370275552 0
v 8.630841888490856 -1.6464211439649925 0
v 8.82928172095081 -1.398420843840455 0
v 9.046421428121972 -1.1428287961762067 0
v 9.277656135283038 -0.876996712895471 0
v 9.517656454395567 -0.598800188862848 0
v 9.760529692544791 -0.30673700284194166 0
l 1 2 3 4 5 6 7 8 9 10 11 12 13 14 15 16 17 18 19 20 21 22 23 24 25 26 27 28 29 30 31 32 33 34 35 36 37 38 39 40 41 42 43 44 45 46 47 48 49 50 51 52 53 54 55 56 57 58 59 60 61 62 63 64 65 66 67 68 69 70 71 72 73 74 75 76 77 78 79 80 81 82 83 84 85 86 87 88 89 90 91 92 93 94 95 96 97 98 99 100 101 102 103 104 105 106 107 108 109 110 111 112 113 114 115 116 117 118 119 120 121 122 123 124 125 126 127 128 129 130 131 132 133 134 135 136 137 138 139 140 141 142 143 144 145 146 147 148 149 150 151 152 153 154 155 156 157 158 159 160 161 162 163 164 165 166 167 168 169 170 171 172 173 174 175 176 177 178 179 180 181 182 183 184 185 186 187 188 189 190 191 192 193 194 195 196 197 198 199 200 1
