v 7.0 9.0 0
v 13.375 9.0 0
v 19.75 9.0 0
v 26.125 9.0 0
v 32.5 9.0 0
v 38.875 9.0 0
v 45.25 9.0 0
v 51.625 9.0 0
v 58.0 9.0 0
v 58.0 9.0 0
v 58.0 15.375 0
v 58.0 21.75 0
v 58.0 28.125 0
v 58.0 34.5 0
v 58.0 40.875 0
v 58.0 47.25 0
v 58.0 53.625 0
v 58.0 60.0 0
v 58.0 60.0 0
v 51.625 60.0 0
v 45.25 60.0 0
v 38.875 60.0 0
v 32.5 60.0 0
v 26.125 60.0 0
v 19.75 60.0 0
v 13.375 60.0 0
v 7.0 60.0 0
v 7.0 60.0 0
v 7.0 53.625 0
v 7.0 47.25 0
v 7.0 40.875 0
v 7.0 34.5 0
v 7.0 28.125 0
v 7.0 21.75 0
v 7.0 15.375 0
v 7.0 9.0 0
v 9.0 5.0 0
v 14.875 5.0 0
v 20.75 5.0 0
v 26.625 5.0 0
v 32.5 5.0 0
v 38.375 5.0 0
v 44.25 5.0 0
v 50.125 5.0 0
v 56.0 5.0 0
v 56.0 5.0 0
v 56.0 5.5 0
v 56.0 6.0 0
v 56.0 6.5 0
v 56.0 7.0 0
v 56.0 7.5 0
v 56.0 8.0 0
v 56.0 8.5 0
v 56.0 9.0 0
v 56.0 9.0 0
v 50.125 9.0 0
v 44.25 9.0 0
v 38.375 9.0 0
v 32.5 9.0 0
v 26.625 9.0 0
v 20.75 9.0 0
v 14.875 9.0 0
v 9.0 9.0 0
v 9.0 9.0 0
v 9.0 8.5 0
v 9.0 8.0 0
v 9.0 7.5 0
v 9.0 7.0 0
v 9.0 6.5 0
v 9.0 6.0 0
v 9.0 5.5 0
v 9.0 5.0 0
v 9.0 9.0 0
v 9.0 8.5 0
v 9.0 8.0 0
v 9.0 7.5 0
v 9.0 7.0 0
v 9.0 6.5 0
v 9.0 6.0 0
v 9.0 5.5 0
v 9.0 5.0 0
v 9.0 5.0 0
v 9.625 5.5 0
v 10.25 6.0 0
v 10.875 6.5 0
v 11.5 7.0 0
v 12.125 7.5 0
v 12.75 8.0 0
v 13.375 8.5 0
v 14.0 9.0 0
v 14.0 9.0 0
v 13.375 9.0 0
v 12.75 9.0 0
v 12.125 9.0 0
v 11.5 9.0 0
v 10.875 9.0 0
v 10.25 9.0 0
v 9.625 9.0 0
v 9.0 9.0 0
v 56.0 9.0 0
v 56.0 8.5 0
v 56.0 8.0 0
v 56.0 7.5 0
v 56.0 7.0 0
v 56.0 6.5 0
v 56.0 6.0 0
v 56.0 5.5 0
v 56.0 5.0 0
v 56.0 5.0 0
v 55.375 5.5 0
v 54.75 6.0 0
v 54.125 6.5 0
v 53.5 7.0 0
v 52.875 7.5 0
v 52.25 8.0 0
v 51.625 8.5 0
v 51.0 9.0 0
v 51.0 9.0 0
v 51.625 9.0 0
v 52.25 9.0 0
v 52.875 9.0 0
v 53.5 9.0 0
v 54.125 9.0 0
v 54.75 9.0 0
v 55.375 9.0 0
v 56.0 9.0 0
v 7.5053 60.5 0
v 13.753924999999999 60.5 0
v 20.00255 60.5 0
v 26.251174999999996 60.5 0
v 32.4998 60.5 0
v 38.748425 60.5 0
v 44.997049999999994 60.5 0
v 51.245675 60.5 0
v 57.494299999999996 60.5 0
v 24.0 24.0 0
v 28.25 28.25 0
v 32.5 32.5 0
v 36.75 36.75 0
v 41.0 41.0 0
v 45.25 45.25 0
v 49.5 49.5 0
v 53.75 53.75 0
v 58.0 58.0 0
v 58.0 58.0 0
v 58.0 54.125 0
v 58.0 50.25 0
v 58.0 46.375 0
v 58.0 42.5 0
v 58.0 38.625 0
v 58.0 34.75 0
v 58.0 30.875 0
v 58.0 27.0 0
v 58.0 27.0 0
v 56.125 25.25 0
v 54.25 23.5 0
v 52.375 21.75 0
v 50.5 20.0 0
v 48.625 18.25 0
v 46.75 16.5 0
v 44.875 14.75 0
v 43.0 13.0 0
v 43.0 13.0 0
v 43.0 14.125 0
v 43.0 15.25 0
v 43.0 16.375 0
v 43.0 17.5 0
v 43.0 18.625 0
v 43.0 19.75 0
v 43.0 20.875 0
v 43.0 22.0 0
v 43.0 22.0 0
v 42.75 22.25 0
v 42.5 22.5 0
v 42.25 22.75 0
v 42.0 23.0 0
v 41.75 23.25 0
v 41.5 23.5 0
v 41.25 23.75 0
v 41.0 24.0 0
v 41.0 24.0 0
v 38.875 24.0 0
v 36.75 24.0 0
v 34.625 24.0 0
v 32.5 24.0 0
v 30.375 24.0 0
v 28.25 24.0 0
v 26.125 24.0 0
v 24.0 24.0 0
v 41.0 22.0 0
v 41.0 22.25 0
v 41.0 22.5 0
v 41.0 22.75 0
v 41.0 23.0 0
v 41.0 23.25 0
v 41.0 23.5 0
v 41.0 23.75 0
v 41.0 24.0 0
v 41.0 24.0 0
v 38.875 24.0 0
v 36.75 24.0 0
v 34.625 24.0 0
v 32.5 24.0 0
v 30.375 24.0 0
v 28.25 24.0 0
v 26.125 24.0 0
v 24.0 24.0 0
v 24.0 24.0 0
v 24.0 23.75 0
v 24.0 23.5 0
v 24.0 23.25 0
v 24.0 23.0 0
v 24.0 22.75 0
v 24.0 22.5 0
v 24.0 22.25 0
v 24.0 22.0 0
v 24.0 22.0 0
v 26.125 22.0 0
v 28.25 22.0 0
v 30.375 22.0 0
v 32.5 22.0 0
v 34.625 22.0 0
v 36.75 22.0 0
v 38.875 22.0 0
v 41.0 22.0 0
v 22.0 13.0 0
v 22.25 13.0 0
v 22.5 13.0 0
v 22.75 13.0 0
v 23.0 13.0 0
v 23.25 13.0 0
v 23.5 13.0 0
v 23.75 13.0 0
v 24.0 13.0 0
v 24.0 13.0 0
v 24.0 13.25 0
v 24.0 13.5 0
v 24.0 13.75 0
v 24.0 14.0 0
v 24.0 14.25 0
v 24.0 14.5 0
v 24.0 14.75 0
v 24.0 15.0 0
v 24.0 15.0 0
v 23.75 15.0 0
v 23.5 15.0 0
v 23.25 15.0 0
v 23.0 15.0 0
v 22.75 15.0 0
v 22.5 15.0 0
v 22.25 15.0 0
v 22.0 15.0 0
v 22.0 15.0 0
v 22.0 14.75 0
v 22.0 14.5 0
v 22.0 14.25 0
v 22.0 14.0 0
v 22.0 13.75 0
v 22.0 13.5 0
v 22.0 13.25 0
v 22.0 13.0 0
v 22.0 14.0 0
v 22.25 14.0 0
v 22.5 14.0 0
v 22.75 14.0 0
v 23.0 14.0 0
v 23.25 14.0 0
v 23.5 14.0 0
v 23.75 14.0 0
v 24.0 14.0 0
v 24.0 14.0 0
v 24.0 15.25 0
v 24.0 16.5 0
v 24.0 17.75 0
v 24.0 19.0 0
v 24.0 20.25 0
v 24.0 21.5 0
v 24.0 22.75 0
v 24.0 24.0 0
v 24.0 24.0 0
v 23.75 23.75 0
v 23.5 23.5 0
v 23.25 23.25 0
v 23.0 23.0 0
v 22.75 22.75 0
v 22.5 22.5 0
v 22.25 22.25 0
v 22.0 22.0 0
v 22.0 22.0 0
v 22.0 21.0 0
v 22.0 20.0 0
v 22.0 19.0 0
v 22.0 18.0 0
v 22.0 17.0 0
v 22.0 16.0 0
v 22.0 15.0 0
v 22.0 14.0 0
v 41.0 13.0 0
v 41.25 13.0 0
v 41.5 13.0 0
v 41.75 13.0 0
v 42.0 13.0 0
v 42.25 13.0 0
v 42.5 13.0 0
v 42.75 13.0 0
v 43.0 13.0 0
v 43.0 13.0 0
v 43.0 13.25 0
v 43.0 13.5 0
v 43.0 13.75 0
v 43.0 14.0 0
v 43.0 14.25 0
v 43.0 14.5 0
v 43.0 14.75 0
v 43.0 15.0 0
v 43.0 15.0 0
v 42.75 15.0 0
v 42.5 15.0 0
v 42.25 15.0 0
v 42.0 15.0 0
v 41.75 15.0 0
v 41.5 15.0 0
v 41.25 15.0 0
v 41.0 15.0 0
v 41.0 15.0 0
v 41.0 14.75 0
v 41.0 14.5 0
v 41.0 14.25 0
v 41.0 14.0 0
v 41.0 13.75 0
v 41.0 13.5 0
v 41.0 13.25 0
v 41.0 13.0 0
v 41.0 14.0 0
v 41.25 14.0 0
v 41.5 14.0 0
v 41.75 14.0 0
v 42.0 14.0 0
v 42.25 14.0 0
v 42.5 14.0 0
v 42.75 14.0 0
v 43.0 14.0 0
v 43.0 14.0 0
v 43.0 15.0 0
v 43.0 16.0 0
v 43.0 17.0 0
v 43.0 18.0 0
v 43.0 19.0 0
v 43.0 20.0 0
v 43.0 21.0 0
v 43.0 22.0 0
v 43.0 22.0 0
v 42.75 22.25 0
v 42.5 22.5 0
v 42.25 22.75 0
v 42.0 23.0 0
v 41.75 23.25 0
v 41.5 23.5 0
v 41.25 23.75 0
v 41.0 24.0 0
v 41.0 24.0 0
v 41.0 22.75 0
v 41.0 21.5 0
v 41.0 20.25 0
v 41.0 19.0 0
v 41.0 17.75 0
v 41.0 16.5 0
v 41.0 15.25 0
v 41.0 14.0 0
l 1 2
l 2 3
l 3 4
l 4 5
l 5 6
l 6 7
l 7 8
l 8 9
l 10 11
l 11 12
l 12 13
l 13 14
l 14 15
l 15 16
l 16 17
l 17 18
l 19 20
l 20 21
l 21 22
l 22 23
l 23 24
l 24 25
l 25 26
l 26 27
l 28 29
l 29 30
l 30 31
l 31 32
l 32 33
l 33 34
l 34 35
l 35 36

l 37 38
l 38 39
l 39 40
l 40 41
l 41 42
l 42 43
l 43 44
l 44 45
l 46 47
l 47 48
l 48 49
l 49 50
l 50 51
l 51 52
l 52 53
l 53 54
l 55 56
l 56 57
l 57 58
l 58 59
l 59 60
l 60 61
l 61 62
l 62 63
l 64 65
l 65 66
l 66 67
l 67 68
l 68 69
l 69 70
l 70 71
l 71 72

l 73 74
l 74 75
l 75 76
l 76 77
l 77 78
l 78 79
l 79 80
l 80 81
l 82 83
l 83 84
l 84 85
l 85 86
l 86 87
l 87 88
l 88 89
l 89 90
l 91 92
l 92 93
l 93 94
l 94 95
l 95 96
l 96 97
l 97 98
l 98 99

l 100 101
l 101 102
l 102 103
l 103 104
l 104 105
l 105 106
l 106 107
l 107 108
l 109 110
l 110 111
l 111 112
l 112 113
l 113 114
l 114 115
l 115 116
l 116 117
l 118 119
l 119 120
l 120 121
l 121 122
l 122 123
l 123 124
l 124 125
l 125 126

l 127 128
l 128 129
l 129 130
l 130 131
l 131 132
l 132 133
l 133 134
l 134 135

l 136 137
l 137 138
l 138 139
l 139 140
l 140 141
l 141 142
l 142 143
l 143 144
l 145 146
l 146 147
l 147 148
l 148 149
l 149 150
l 150 151
l 151 152
l 152 153
l 154 155
l 155 156
l 156 157
l 157 158
l 158 159
l 159 160
l 160 161
l 161 162
l 163 164
l 164 165
l 165 166
l 166 167
l 167 168
l 168 169
l 169 170
l 170 171
l 172 173
l 173 174
l 174 175
l 175 176
l 176 177
l 177 178
l 178 179
l 179 180
l 181 182
l 182 183
l 183 184
l 184 185
l 185 186
l 186 187
l 187 188
l 188 189

l 190 191
l 191 192
l 192 193
l 193 194
l 194 195
l 195 196
l 196 197
l 197 198
l 199 200
l 200 201
l 201 202
l 202 203
l 203 204
l 204 205
l 205 206
l 206 207
l 208 209
l 209 210
l 210 211
l 211 212
l 212 213
l 213 214
l 214 215
l 215 216
l 217 218
l 218 219
l 219 220
l 220 221
l 221 222
l 222 223
l 223 224
l 224 225

l 226 227
l 227 228
l 228 229
l 229 230
l 230 231
l 231 232
l 232 233
l 233 234
l 235 236
l 236 237
l 237 238
l 238 239
l 239 240
l 240 241
l 241 242
l 242 243
l 244 245
l 245 246
l 246 247
l 247 248
l 248 249
l 249 250
l 250 251
l 251 252
l 253 254
l 254 255
l 255 256
l 256 257
l 257 258
l 258 259
l 259 260
l 260 261

l 262 263
l 263 264
l 264 265
l 265 266
l 266 267
l 267 268
l 268 269
l 269 270
l 271 272
l 272 273
l 273 274
l 274 275
l 275 276
l 276 277
l 277 278
l 278 279
l 280 281
l 281 282
l 282 283
l 283 284
l 284 285
l 285 286
l 286 287
l 287 288
l 289 290
l 290 291
l 291 292
l 292 293
l 293 294
l 294 295
l 295 296
l 296 297

l 298 299
l 299 300
l 300 301
l 301 302
l 302 303
l 303 304
l 304 305
l 305 306
l 307 308
l 308 309
l 309 310
l 310 311
l 311 312
l 312 313
l 313 314
l 314 315
l 316 317
l 317 318
l 318 319
l 319 320
l 320 321
l 321 322
l 322 323
l 323 324
l 325 326
l 326 327
l 327 328
l 328 329
l 329 330
l 330 331
l 331 332
l 332 333

l 334 335
l 335 336
l 336 337
l 337 338
l 338 339
l 339 340
l 340 341
l 341 342
l 343 344
l 344 345
l 345 346
l 346 347
l 347 348
l 348 349
l 349 350
l 350 351
l 352 353
l 353 354
l 354 355
l 355 356
l 356 357
l 357 358
l 358 359
l 359 360
l 361 362
l 362 363
l 363 364
l 364 365
l 365 366
l 366 367
l 367 368
l 368 369

