v 282.843 482.338 0
v 247.48800000000003 446.98300000000006 0
v 212.13300000000004 411.62800000000004 0
v 176.77800000000002 376.273 0
v 141.42300000000003 340.91800000000006 0
v 106.06800000000004 305.5630000000001 0
v 70.71300000000002 270.2080000000001 0
v 35.35800000000003 234.8530000000001 0
v 0.0030000000000427463 199.4980000000001 0
v 0.0030000000000285354 199.49800000000008 0
v 35.358000000000025 199.49800000000008 0
v 70.71300000000002 199.49800000000008 0
v 106.06800000000003 199.49800000000008 0
v 141.423 199.49800000000008 0
v 176.77800000000002 199.49800000000008 0
v 212.13300000000004 199.49800000000008 0
v 247.488 199.49800000000008 0
v 282.843 199.49800000000008 0
v 282.843 199.49800000000008 0
v 282.843 234.85300000000007 0
v 282.843 270.2080000000001 0
v 282.843 305.56300000000005 0
v 282.843 340.918 0
v 282.843 376.273 0
v 282.843 411.62800000000004 0
v 282.843 446.983 0
v 282.843 482.33799999999997 0
v 565.683 481.998 0
v 530.328 446.64300000000003 0
v 494.973 411.288 0
v 459.61800000000005 375.933 0
v 424.26300000000003 340.57800000000003 0
v 388.908 305.22300000000007 0
v 353.55300000000005 269.86800000000005 0
v 318.1980000000001 234.51300000000006 0
v 282.8430000000001 199.15800000000007 0
v 282.8430000000001 199.15800000000004 0
v 282.8430000000001 234.51300000000003 0
v 282.8430000000001 269.86800000000005 0
v 282.8430000000001 305.223 0
v 282.8430000000001 340.578 0
v 282.8430000000001 375.933 0
v 282.8430000000001 411.288 0
v 282.8430000000001 446.643 0
v 282.8430000000001 481.99799999999993 0
v 282.8430000000001 481.998 0
v 318.1980000000001 481.998 0
v 353.55300000000005 481.998 0
v 388.908 481.998 0
v 424.26300000000003 481.998 0
v 459.61800000000005 481.998 0
v 494.973 481.998 0
v 530.328 481.998 0
v 565.683 481.998 0
v 224.84300000000002 763.998 0
v 249.84300000000002 763.998 0
v 274.843 763.998 0
v 299.843 763.998 0
v 324.843 763.998 0
v 349.843 763.998 0
v 374.843 763.998 0
v 399.843 763.998 0
v 424.843 763.998 0
v 424.843 763.998 0
v 412.343 751.498 0
v 399.843 738.998 0
v 387.343 726.498 0
v 374.843 713.998 0
v 362.343 701.498 0
v 349.843 688.998 0
v 337.343 676.498 0
v 324.843 663.998 0
v 324.843 663.998 0
v 312.343 676.498 0
v 299.843 688.998 0
v 287.343 701.498 0
v 274.843 713.998 0
v 262.343 726.498 0
v 249.84300000000002 738.998 0
v 237.34300000000002 751.498 0
v 224.84300000000002 763.998 0
v 482.343 765.498 0
v 482.343 740.498 0
v 482.343 715.498 0
v 482.343 690.498 0
v 482.343 665.498 0
v 482.343 640.498 0
v 482.343 615.498 0
v 482.343 590.498 0
v 482.343 565.498 0
v 482.343 565.498 0
v 494.843 577.998 0
v 507.343 590.498 0
v 519.843 602.998 0
v 532.343 615.498 0
v 544.843 627.998 0
v 557.343 640.498 0
v 569.843 652.998 0
v 582.343 665.498 0
v 582.343 665.498 0
v 569.843 677.998 0
v 557.343 690.498 0
v 544.843 702.998 0
v 532.343 715.498 0
v 519.843 727.998 0
v 507.343 740.498 0
v 494.843 752.998 0
v 482.343 765.498 0
v 482.843 681.498 0
v 457.843 656.498 0
v 432.843 631.498 0
v 407.843 606.498 0
v 382.843 581.498 0
v 357.843 556.498 0
v 332.843 531.498 0
v 307.843 506.498 0
v 282.843 481.498 0
v 282.843 481.498 0
v 307.843 481.498 0
v 332.843 481.498 0
v 357.843 481.498 0
v 382.843 481.498 0
v 407.843 481.498 0
v 432.843 481.498 0
v 457.843 481.498 0
v 482.843 481.498 0
v 482.843 481.498 0
v 482.843 506.498 0
v 482.843 531.498 0
v 482.843 556.498 0
v 482.843 581.498 0
v 482.843 606.498 0
v 482.843 631.498 0
v 482.843 656.498 0
v 482.843 681.498 0
v 182.84300000000002 0.0 0
v 195.34300000000002 12.5 0
v 207.84300000000002 25.0 0
v 220.34300000000002 37.5 0
v 232.84300000000002 50.0 0
v 245.34300000000002 62.5 0
v 257.843 75.0 0
v 270.343 87.5 0
v 282.843 100.0 0
v 282.843 100.0 0
v 270.343 112.5 0
v 257.843 125.0 0
v 245.34300000000002 137.5 0
v 232.84300000000002 150.0 0
v 220.34300000000002 162.5 0
v 207.84300000000002 175.0 0
v 195.34300000000002 187.5 0
v 182.84300000000002 200.0 0
v 182.84300000000002 200.0 0
v 170.34300000000002 187.5 0
v 157.84300000000002 175.0 0
v 145.34300000000002 162.5 0
v 132.84300000000002 150.0 0
v 120.34300000000002 137.5 0
v 107.843 125.0 0
v 95.343 112.5 0
v 82.843 100.0 0
v 82.843 100.0 0
v 95.343 87.5 0
v 107.843 75.0 0
v 120.34300000000002 62.5 0
v 132.84300000000002 50.0 0
v 145.34300000000002 37.5 0
v 157.84300000000002 25.0 0
v 170.34300000000002 12.5 0
v 182.84300000000002 0.0 0
v 282.843 622.498 0
v 282.843 604.8205 0
v 282.843 587.143 0
v 282.843 569.4655 0
v 282.843 551.788 0
v 282.843 534.1105 0
v 282.843 516.433 0
v 282.843 498.75550000000004 0
v 282.843 481.07800000000003 0
v 282.843 481.07800000000003 0
v 300.5205 498.75550000000004 0
v 318.198 516.433 0
v 335.8755 534.1105 0
v 353.553 551.788 0
v 371.2305 569.4655 0
v 388.908 587.143 0
v 406.58549999999997 604.8205 0
v 424.263 622.498 0
v 424.263 622.498 0
v 424.263 640.1755 0
v 424.263 657.8530000000001 0
v 424.263 675.5305000000001 0
v 424.263 693.2080000000001 0
v 424.263 710.8855 0
v 424.263 728.563 0
v 424.263 746.2405 0
v 424.263 763.918 0
v 424.263 763.918 0
v 406.58549999999997 746.2405 0
v 388.908 728.563 0
v 371.2305 710.8855 0
v 353.553 693.2080000000001 0
v 335.8755 675.5305000000001 0
v 318.198 657.8530000000001 0
v 300.5205 640.1755 0
v 282.843 622.498 0
l 1 2
l 2 3
l 3 4
l 4 5
l 5 6
l 6 7
l 7 8
l 8 9
l 10 11
l 11 12
l 12 13
l 13 14
l 14 15
l 15 16
l 16 17
l 17 18
l 19 20
l 20 21
l 21 22
l 22 23
l 23 24
l 24 25
l 25 26
l 26 27

l 28 29
l 29 30
l 30 31
l 31 32
l 32 33
l 33 34
l 34 35
l 35 36
l 37 38
l 38 39
l 39 40
l 40 41
l 41 42
l 42 43
l 43 44
l 44 45
l 46 47
l 47 48
l 48 49
l 49 50
l 50 51
l 51 52
l 52 53
l 53 54

l 55 56
l 56 57
l 57 58
l 58 59
l 59 60
l 60 61
l 61 62
l 62 63
l 64 65
l 65 66
l 66 67
l 67 68
l 68 69
l 69 70
l 70 71
l 71 72
l 73 74
l 74 75
l 75 76
l 76 77
l 77 78
l 78 79
l 79 80
l 80 81

l 82 83
l 83 84
l 84 85
l 85 86
l 86 87
l 87 88
l 88 89
l 89 90
l 91 92
l 92 93
l 93 94
l 94 95
l 95 96
l 96 97
l 97 98
l 98 99
l 100 101
l 101 102
l 102 103
l 103 104
l 104 105
l 105 106
l 106 107
l 107 108

l 109 110
l 110 111
l 111 112
l 112 113
l 113 114
l 114 115
l 115 116
l 116 117
l 118 119
l 119 120
l 120 121
l 121 122
l 122 123
l 123 124
l 124 125
l 125 126
l 127 128
l 128 129
l 129 130
l 130 131
l 131 132
l 132 133
l 133 134
l 134 135

l 136 137
l 137 138
l 138 139
l 139 140
l 140 141
l 141 142
l 142 143
l 143 144
l 145 146
l 146 147
l 147 148
l 148 149
l 149 150
l 150 151
l 151 152
l 152 153
l 154 155
l 155 156
l 156 157
l 157 158
l 158 159
l 159 160
l 160 161
l 161 162
l 163 164
l 164 165
l 165 166
l 166 167
l 167 168
l 168 169
l 169 170
l 170 171

l 172 173
l 173 174
l 174 175
l 175 176
l 176 177
l 177 178
l 178 179
l 179 180
l 181 182
l 182 183
l 183 184
l 184 185
l 185 186
l 186 187
l 187 188
l 188 189
l 190 191
l 191 192
l 192 193
l 193 194
l 194 195
l 195 196
l 196 197
l 197 198
l 199 200
l 200 201
l 201 202
l 202 203
l 203 204
l 204 205
l 205 206
l 206 207

