v 167.0 225.8 0
v 168.1125 225.22500000000002 0
v 169.225 224.65 0
v 170.3375 224.07500000000002 0
v 171.45 223.5 0
v 172.5625 222.925 0
v 173.675 222.35000000000002 0
v 174.7875 221.775 0
v 175.9 221.20000000000002 0
v 175.9 221.20000000000002 0
v 177.0 220.6125 0
v 178.10000000000002 220.02500000000003 0
v 179.20000000000002 219.43750000000003 0
v 180.3 218.85000000000002 0
v 181.4 218.26250000000002 0
v 182.5 217.675 0
v 183.60000000000002 217.08750000000003 0
v 184.70000000000002 216.50000000000003 0
v 184.70000000000002 216.50000000000003 0
v 184.8625 216.42500000000004 0
v 185.02500000000003 216.35000000000002 0
v 185.18750000000003 216.27500000000003 0
v 185.35000000000002 216.20000000000005 0
v 185.51250000000002 216.12500000000003 0
v 185.675 216.05000000000004 0
v 185.83750000000003 215.97500000000002 0
v 186.00000000000003 215.90000000000003 0
v 186.00000000000003 215.90000000000003 0
v 186.08750000000003 215.85000000000002 0
v 186.175 215.80000000000004 0
v 186.26250000000002 215.75000000000003 0
v 186.35000000000002 215.70000000000005 0
v 186.43750000000003 215.65000000000003 0
v 186.52500000000003 215.60000000000002 0
v 186.6125 215.55000000000004 0
v 186.70000000000002 215.50000000000003 0
v 308.4 121.0 0
v 290.5875 128.7375 0
v 272.775 136.475 0
v 254.96249999999998 144.2125 0
v 237.14999999999998 151.95 0
v 219.33749999999998 159.6875 0
v 201.52499999999998 167.425 0
v 183.71249999999998 175.16250000000002 0
v 165.89999999999998 182.9 0
v 165.89999999999998 182.9 0
v 166.84999999999997 203.20000000000002 0
v 167.79999999999998 223.5 0
v 168.74999999999997 243.8 0
v 169.7 264.1 0
v 170.64999999999998 284.4 0
v 171.59999999999997 304.70000000000005 0
v 172.54999999999998 325.0 0
v 173.49999999999997 345.3 0
v 173.49999999999997 345.3 0
v 173.56249999999997 346.55 0
v 173.62499999999997 347.8 0
v 173.68749999999997 349.05 0
v 173.74999999999997 350.3 0
v 173.81249999999997 351.55 0
v 173.87499999999997 352.8 0
v 173.93749999999997 354.05 0
v 173.99999999999997 355.3 0
v 173.99999999999997 355.3 0
v 173.59999999999997 355.52500000000003 0
v 173.2 355.75 0
v 172.79999999999998 355.975 0
v 172.39999999999998 356.20000000000005 0
v 171.99999999999997 356.425 0
v 171.59999999999997 356.65000000000003 0
v 171.2 356.875 0
v 170.79999999999998 357.1 0
v 170.79999999999998 357.1 0
v 169.71249999999998 357.725 0
v 168.625 358.35 0
v 167.5375 358.975 0
v 166.45 359.6 0
v 165.36249999999998 360.225 0
v 164.27499999999998 360.85 0
v 163.1875 361.475 0
v 162.1 362.1 0
v 162.1 362.1 0
v 161.92499999999998 361.975 0
v 161.75 361.85 0
v 161.575 361.725 0
v 161.39999999999998 361.6 0
v 161.225 361.475 0
v 161.04999999999998 361.35 0
v 160.875 361.225 0
v 160.7 361.1 0
v 160.7 361.1 0
v 146.225 350.875 0
v 131.75 340.65000000000003 0
v 117.27499999999999 330.425 0
v 102.79999999999998 320.20000000000005 0
v 88.32499999999999 309.975 0
v 73.85 299.75 0
v 59.374999999999986 289.525 0
v 44.89999999999999 279.3 0
v 44.89999999999999 279.3 0
v 44.849999999999994 278.925 0
v 44.79999999999999 278.55 0
v 44.74999999999999 278.175 0
v 44.69999999999999 277.8 0
v 44.64999999999999 277.425 0
v 44.599999999999994 277.05 0
v 44.54999999999999 276.675 0
v 44.49999999999999 276.3 0
v 44.49999999999999 276.3 0
v 42.2375 255.76250000000002 0
v 39.974999999999994 235.22500000000002 0
v 37.71249999999999 214.6875 0
v 35.449999999999996 194.15 0
v 33.1875 173.6125 0
v 30.924999999999997 153.075 0
v 28.662499999999998 132.5375 0
v 26.4 112.0 0
v 26.4 112.0 0
v 26.95 111.8125 0
v 27.5 111.625 0
v 28.049999999999997 111.4375 0
v 28.599999999999998 111.25 0
v 29.15 111.0625 0
v 29.699999999999996 110.875 0
v 30.249999999999996 110.6875 0
v 30.799999999999997 110.5 0
v 30.799999999999997 110.5 0
v 57.3125 101.4375 0
v 83.825 92.375 0
v 110.3375 83.3125 0
v 136.85000000000002 74.25 0
v 163.3625 65.1875 0
v 189.875 56.125 0
v 216.38750000000005 47.0625 0
v 242.90000000000003 38.0 0
v 242.9 38.0 0
v 243.25 38.125 0
v 243.60000000000002 38.25 0
v 243.95000000000002 38.375 0
v 244.3 38.5 0
v 244.65 38.625 0
v 245.0 38.75 0
v 245.35000000000002 38.875 0
v 245.70000000000002 39.0 0
v 245.70000000000002 39.0 0
v 261.6875 44.75 0
v 277.675 50.5 0
v 293.6625 56.25 0
v 309.65000000000003 62.0 0
v 325.63750000000005 67.75 0
v 341.625 73.5 0
v 357.6125 79.25 0
v 373.6 85.0 0
v 373.6 85.0 0
v 372.57500000000005 105.25 0
v 371.55 125.5 0
v 370.52500000000003 145.75 0
v 369.5 166.0 0
v 368.475 186.25 0
v 367.45000000000005 206.5 0
v 366.425 226.75 0
v 365.40000000000003 247.0 0
v 365.40000000000003 247.0 0
v 357.83750000000003 251.2875 0
v 350.27500000000003 255.575 0
v 342.71250000000003 259.8625 0
v 335.15000000000003 264.15 0
v 327.58750000000003 268.4375 0
v 320.02500000000003 272.725 0
v 312.46250000000003 277.0125 0
v 304.90000000000003 281.3 0
v 304.90000000000003 281.3 0
v 290.15000000000003 273.175 0
v 275.40000000000003 265.05 0
v 260.65000000000003 256.925 0
v 245.90000000000003 248.8 0
v 231.15000000000003 240.675 0
v 216.40000000000003 232.55 0
v 201.65000000000003 224.425 0
v 186.90000000000003 216.3 0
v 186.90000000000003 216.3 0
v 186.70000000000005 211.0625 0
v 186.50000000000003 205.82500000000002 0
v 186.30000000000004 200.5875 0
v 186.10000000000002 195.35000000000002 0
v 185.90000000000003 190.1125 0
v 185.70000000000005 184.875 0
v 185.50000000000003 179.6375 0
v 185.30000000000004 174.4 0
v 162.1 362.0 0
v 160.8875 339.525 0
v 159.675 317.05 0
v 158.4625 294.575 0
v 157.25 272.1 0
v 156.0375 249.625 0
v 154.825 227.14999999999998 0
v 153.6125 204.67499999999998 0
v 152.4 182.2 0
v 152.4 182.2 0
v 152.375 181.79999999999998 0
v 152.35000000000002 181.39999999999998 0
v 152.32500000000002 181.0 0
v 152.3 180.6 0
v 152.275 180.2 0
v 152.25 179.8 0
v 152.22500000000002 179.4 0
v 152.20000000000002 179.0 0
v 152.20000000000002 179.0 0
v 153.35000000000002 178.5125 0
v 154.5 178.025 0
v 155.65 177.5375 0
v 156.8 177.05 0
v 157.95000000000002 176.5625 0
v 159.10000000000002 176.075 0
v 160.25 175.5875 0
v 161.4 175.1 0
v 161.4 175.1 0
v 186.775 164.3375 0
v 212.15 153.575 0
v 237.52499999999998 142.8125 0
v 262.9 132.05 0
v 288.275 121.2875 0
v 313.65 110.525 0
v 339.025 99.7625 0
v 364.4 89.0 0
v 364.4 89.0 0
v 365.54999999999995 88.5 0
v 366.7 88.0 0
v 367.84999999999997 87.5 0
v 369.0 87.0 0
v 370.15 86.5 0
v 371.29999999999995 86.0 0
v 372.45 85.5 0
v 373.59999999999997 85.0 0
v 308.4 112.7 0
v 308.4 113.325 0
v 308.4 113.95 0
v 308.4 114.575 0
v 308.4 115.2 0
v 308.4 115.825 0
v 308.4 116.45 0
v 308.4 117.075 0
v 308.4 117.7 0
v 308.4 117.7 0
v 307.9625 137.75 0
v 307.525 157.8 0
v 307.0875 177.85000000000002 0
v 306.65 197.90000000000003 0
v 306.2125 217.95000000000005 0
v 305.775 238.00000000000003 0
v 305.3375 258.05 0
v 304.9 278.1 0
v 304.9 278.1 0
v 304.9 278.5 0
v 304.9 278.90000000000003 0
v 304.9 279.3 0
v 304.9 279.70000000000005 0
v 304.9 280.1 0
v 304.9 280.5 0
v 304.9 280.90000000000003 0
v 304.9 281.3 0
v 26.2 112.0 0
v 27.3125 112.5875 0
v 28.425 113.175 0
v 29.5375 113.7625 0
v 30.65 114.35 0
v 31.762500000000003 114.9375 0
v 32.875 115.525 0
v 33.9875 116.1125 0
v 35.1 116.7 0
v 35.1 116.7 0
v 49.5375 124.375 0
v 63.975 132.05 0
v 78.4125 139.725 0
v 92.85 147.4 0
v 107.2875 155.075 0
v 121.725 162.75 0
v 136.1625 170.425 0
v 150.6 178.1 0
v 150.6 178.1 0
v 150.79999999999998 178.2 0
v 151.0 178.3 0
v 151.2 178.4 0
v 151.39999999999998 178.5 0
v 151.6 178.6 0
v 151.79999999999998 178.7 0
v 152.0 178.8 0
v 152.2 178.9 0
l 1 2
l 2 3
l 3 4
l 4 5
l 5 6
l 6 7
l 7 8
l 8 9
l 10 11
l 11 12
l 12 13
l 13 14
l 14 15
l 15 16
l 16 17
l 17 18
l 19 20
l 20 21
l 21 22
l 22 23
l 23 24
l 24 25
l 25 26
l 26 27
l 28 29
l 29 30
l 30 31
l 31 32
l 32 33
l 33 34
l 34 35
l 35 36
l 37 38
l 38 39
l 39 40
l 40 41
l 41 42
l 42 43
l 43 44
l 44 45
l 46 47
l 47 48
l 48 49
l 49 50
l 50 51
l 51 52
l 52 53
l 53 54
l 55 56
l 56 57
l 57 58
l 58 59
l 59 60
l 60 61
l 61 62
l 62 63
l 64 65
l 65 66
l 66 67
l 67 68
l 68 69
l 69 70
l 70 71
l 71 72
l 73 74
l 74 75
l 75 76
l 76 77
l 77 78
l 78 79
l 79 80
l 80 81
l 82 83
l 83 84
l 84 85
l 85 86
l 86 87
l 87 88
l 88 89
l 89 90
l 91 92
l 92 93
l 93 94
l 94 95
l 95 96
l 96 97
l 97 98
l 98 99
l 100 101
l 101 102
l 102 103
l 103 104
l 104 105
l 105 106
l 106 107
l 107 108
l 109 110
l 110 111
l 111 112
l 112 113
l 113 114
l 114 115
l 115 116
l 116 117
l 118 119
l 119 120
l 120 121
l 121 122
l 122 123
l 123 124
l 124 125
l 125 126
l 127 128
l 128 129
l 129 130
l 130 131
l 131 132
l 132 133
l 133 134
l 134 135
l 136 137
l 137 138
l 138 139
l 139 140
l 140 141
l 141 142
l 142 143
l 143 144
l 145 146
l 146 147
l 147 148
l 148 149
l 149 150
l 150 151
l 151 152
l 152 153
l 154 155
l 155 156
l 156 157
l 157 158
l 158 159
l 159 160
l 160 161
l 161 162
l 163 164
l 164 165
l 165 166
l 166 167
l 167 168
l 168 169
l 169 170
l 170 171
l 172 173
l 173 174
l 174 175
l 175 176
l 176 177
l 177 178
l 178 179
l 179 180
l 181 182
l 182 183
l 183 184
l 184 185
l 185 186
l 186 187
l 187 188
l 188 189
l 190 191
l 191 192
l 192 193
l 193 194
l 194 195
l 195 196
l 196 197
l 197 198
l 199 200
l 200 201
l 201 202
l 202 203
l 203 204
l 204 205
l 205 206
l 206 207
l 208 209
l 209 210
l 210 211
l 211 212
l 212 213
l 213 214
l 214 215
l 215 216
l 217 218
l 218 219
l 219 220
l 220 221
l 221 222
l 222 223
l 223 224
l 224 225
l 226 227
l 227 228
l 228 229
l 229 230
l 230 231
l 231 232
l 232 233
l 233 234
l 235 236
l 236 237
l 237 238
l 238 239
l 239 240
l 240 241
l 241 242
l 242 243
l 244 245
l 245 246
l 246 247
l 247 248
l 248 249
l 249 250
l 250 251
l 251 252
l 253 254
l 254 255
l 255 256
l 256 257
l 257 258
l 258 259
l 259 260
l 260 261
l 262 263
l 263 264
l 264 265
l 265 266
l 266 267
l 267 268
l 268 269
l 269 270
l 271 272
l 272 273
l 273 274
l 274 275
l 275 276
l 276 277
l 277 278
l 278 279
l 280 281
l 281 282
l 282 283
l 283 284
l 284 285
l 285 286
l 286 287
l 287 288

