v 58.839999999999975 0.7899999999999636 0
v 66.09824999999998 1.450987499999961 0
v 73.35649999999998 2.1119749999999584 0
v 80.61474999999999 2.772962499999956 0
v 87.87299999999999 3.433949999999953 0
v 95.13125 4.094937499999951 0
v 102.3895 4.755924999999948 0
v 109.64775 5.416912499999945 0
v 116.906 6.077899999999943 0
v 116.906 6.077899999999943 0
v 109.98225000000001 11.831024999999947 0
v 103.05850000000001 17.58414999999995 0
v 96.13475000000001 23.337274999999956 0
v 89.21100000000001 29.09039999999996 0
v 82.28725000000001 34.843524999999964 0
v 75.36350000000002 40.59664999999997 0
v 68.43975000000002 46.34977499999997 0
v 61.51600000000002 52.10289999999998 0
v 100.19999999999999 64.26999999999998 0
v 99.59836249999998 69.95187499999999 0
v 98.99672499999998 75.63374999999999 0
v 98.39508749999999 81.315625 0
v 97.79344999999998 86.9975 0
v 97.19181249999997 92.67937500000001 0
v 96.59017499999997 98.36125000000001 0
v 95.98853749999998 104.04312500000002 0
v 95.38689999999997 109.72500000000002 0
v 95.38689999999997 109.72500000000002 0
v 90.90652499999996 103.01800000000003 0
v 86.42614999999996 96.31100000000004 0
v 81.94577499999997 89.60400000000004 0
v 77.46539999999996 82.89700000000005 0
v 72.98502499999995 76.19000000000005 0
v 68.50464999999996 69.48300000000006 0
v 64.02427499999996 62.77600000000007 0
v 59.54389999999995 56.069000000000074 0
v 100.19999999999999 64.26999999999998 0
v 99.59836249999998 69.95187499999999 0
v 98.99672499999998 75.63374999999999 0
v 98.39508749999999 81.315625 0
v 97.79344999999998 86.9975 0
v 97.19181249999997 92.67937500000001 0
v 96.59017499999997 98.36125000000001 0
v 95.98853749999998 104.04312500000002 0
v 95.38689999999997 109.72500000000002 0
v 95.38689999999997 109.72500000000002 0
v 93.57264999999997 106.45387500000002 0
v 91.75839999999997 103.18275000000003 0
v 89.94414999999996 99.91162500000003 0
v 88.12989999999996 96.64050000000003 0
v 86.31564999999996 93.36937500000003 0
v 84.50139999999996 90.09825000000004 0
v 82.68714999999996 86.82712500000004 0
v 80.87289999999996 83.55600000000004 0
v 80.87289999999996 83.55600000000004 0
v 78.68177499999996 81.35325000000005 0
v 76.49064999999996 79.15050000000005 0
v 74.29952499999996 76.94775000000006 0
v 72.10839999999996 74.74500000000006 0
v 69.91727499999996 72.54225000000007 0
v 67.72614999999996 70.33950000000007 0
v 65.53502499999996 68.13675000000008 0
v 63.34389999999996 65.93400000000008 0
v 53.889999999999986 64.10000000000002 0
v 59.166749999999986 64.12326000000002 0
v 64.44349999999999 64.14652000000001 0
v 69.72025 64.16978 0
v 74.99699999999999 64.19304 0
v 80.27374999999998 64.21629999999999 0
v 85.55049999999999 64.23955999999998 0
v 90.82724999999999 64.26281999999998 0
v 96.10399999999998 64.28607999999997 0
v 53.349999999999966 102.21000000000004 0
v 50.49137499999996 99.58512500000003 0
v 47.63274999999996 96.96025000000003 0
v 44.774124999999955 94.33537500000003 0
v 41.91549999999995 91.71050000000002 0
v 39.05687499999995 89.08562500000002 0
v 36.198249999999945 86.46075000000002 0
v 33.33962499999994 83.83587500000002 0
v 30.480999999999938 81.21100000000001 0
v 59.370000000000005 107.62 0
v 52.046625000000006 107.397175 0
v 44.72325000000001 107.17435 0
v 37.39987500000001 106.951525 0
v 30.07650000000001 106.7287 0
v 22.75312500000001 106.505875 0
v 15.429750000000013 106.28305 0
v 8.106375000000014 106.060225 0
v 0.7830000000000155 105.8374 0
v 0.7830000000000155 105.8374 0
v 8.421625000000013 98.7729 0
v 16.06025000000001 91.70840000000001 0
v 23.698875000000008 84.64390000000002 0
v 31.337500000000006 77.57940000000002 0
v 38.976125 70.51490000000003 0
v 46.61475 63.45040000000003 0
v 54.253375 56.385900000000035 0
v 61.891999999999996 49.32140000000004 0
v 59.370000000000005 107.62 0
v 52.046625000000006 107.397175 0
v 44.72325000000001 107.17435 0
v 37.39987500000001 106.951525 0
v 30.07650000000001 106.7287 0
v 22.75312500000001 106.505875 0
v 15.429750000000013 106.28305 0
v 8.106375000000014 106.060225 0
v 0.7830000000000155 105.8374 0
v 0.7830000000000155 105.8374 0
v 8.374375000000015 99.12015 0
v 15.965750000000014 92.40289999999999 0
v 23.557125000000013 85.68564999999998 0
v 31.148500000000013 78.96839999999997 0
v 38.73987500000001 72.25114999999997 0
v 46.33125000000001 65.53389999999996 0
v 53.92262500000001 58.81664999999995 0
v 61.51400000000001 52.099399999999946 0
v 59.69999999999999 47.879999999999995 0
v 66.18275 48.76962499999999 0
v 72.6655 49.659249999999986 0
v 79.14824999999999 50.54887499999998 0
v 85.631 51.438499999999976 0
v 92.11375000000001 52.32812499999997 0
v 98.5965 53.21774999999997 0
v 105.07925 54.10737499999996 0
v 111.56200000000001 54.99699999999996 0
v 111.56200000000001 54.99699999999996 0
v 105.03762500000002 61.57449999999996 0
v 98.51325000000001 68.15199999999996 0
v 91.98887500000001 74.72949999999996 0
v 85.46450000000002 81.30699999999996 0
v 78.94012500000002 87.88449999999996 0
v 72.41575000000002 94.46199999999996 0
v 65.89137500000001 101.03949999999996 0
v 59.36700000000002 107.61699999999996 0
v 59.539999999999964 61.319999999999936 0
v 59.548312499999966 65.33399999999993 0
v 59.55662499999997 69.34799999999993 0
v 59.56493749999997 73.36199999999992 0
v 59.57324999999997 77.37599999999992 0
v 59.581562499999976 81.38999999999992 0
v 59.58987499999998 85.40399999999991 0
v 59.59818749999998 89.4179999999999 0
v 59.60649999999998 93.4319999999999 0
v 35.52999999999997 85.88 0
v 37.99399999999997 88.021625 0
v 40.45799999999997 90.16325 0
v 42.92199999999997 92.30487500000001 0
v 45.38599999999997 94.44650000000001 0
v 47.849999999999966 96.58812500000002 0
v 50.313999999999965 98.72975000000002 0
v 52.77799999999996 100.87137500000003 0
v 55.24199999999996 103.01300000000003 0
v 82.5 22.71999999999997 0
v 80.053375 20.558499999999974 0
v 77.60675 18.396999999999977 0
v 75.16012500000001 16.23549999999998 0
v 72.71350000000001 14.073999999999984 0
v 70.26687500000001 11.912499999999987 0
v 67.82025000000002 9.75099999999999 0
v 65.37362500000002 7.589499999999994 0
v 62.92700000000002 5.427999999999997 0
v 111.56 55.0 0
v 111.337175 62.323375 0
v 111.11435 69.64675 0
v 110.891525 76.970125 0
v 110.6687 84.2935 0
v 110.445875 91.616875 0
v 110.22305 98.94024999999999 0
v 110.000225 106.26362499999999 0
v 109.7774 113.58699999999999 0
v 109.7774 113.58699999999999 0
v 103.514275 106.148125 0
v 97.25115 98.70925 0
v 90.988025 91.270375 0
v 84.72489999999999 83.8315 0
v 78.46177499999999 76.39262500000001 0
v 72.19864999999999 68.95375000000001 0
v 65.93552499999998 61.51487500000002 0
v 59.67239999999998 54.07600000000002 0
v 58.839999999999975 0.7899999999999636 0
v 65.43087499999997 7.5667499999999706 0
v 72.02174999999997 14.343499999999977 0
v 78.61262499999997 21.120249999999984 0
v 85.20349999999996 27.89699999999999 0
v 91.79437499999996 34.67375 0
v 98.38524999999996 41.450500000000005 0
v 104.97612499999995 48.22725000000001 0
v 111.56699999999995 55.00400000000002 0
v 111.56699999999995 55.00400000000002 0
v 111.34417499999995 62.32737500000002 0
v 111.12134999999995 69.65075000000002 0
v 110.89852499999995 76.97412500000002 0
v 110.67569999999995 84.29750000000001 0
v 110.45287499999995 91.62087500000001 0
v 110.23004999999995 98.94425000000001 0
v 110.00722499999995 106.26762500000001 0
v 109.78439999999995 113.59100000000001 0
v 109.78439999999995 113.59100000000001 0
v 106.99164999999995 109.81487500000001 0
v 104.19889999999995 106.03875000000002 0
v 101.40614999999995 102.26262500000003 0
v 98.61339999999996 98.48650000000004 0
v 95.82064999999996 94.71037500000004 0
v 93.02789999999996 90.93425000000005 0
v 90.23514999999996 87.15812500000006 0
v 87.44239999999996 83.38200000000006 0
v 87.44239999999996 83.38200000000006 0
v 83.97202499999997 79.73512500000007 0
v 80.50164999999997 76.08825000000007 0
v 77.03127499999997 72.44137500000008 0
v 73.56089999999998 68.79450000000008 0
v 70.09052499999999 65.14762500000009 0
v 66.62014999999998 61.500750000000096 0
v 63.149774999999984 57.8538750000001 0
v 59.67939999999999 54.20700000000011 0
v 69.55000000000001 54.83000000000004 0
v 73.65875000000001 54.82168750000004 0
v 77.76750000000001 54.813375000000036 0
v 81.87625000000001 54.805062500000034 0
v 85.98500000000001 54.79675000000003 0
v 90.09375000000001 54.78843750000003 0
v 94.20250000000001 54.78012500000003 0
v 98.31125000000002 54.771812500000024 0
v 102.42000000000002 54.76350000000002 0
v 89.82 78.84000000000003 0
v 91.961625 76.37600000000003 0
v 94.10324999999999 73.91200000000003 0
v 96.24487499999998 71.44800000000004 0
v 98.38649999999998 68.98400000000004 0
v 100.52812499999999 66.52000000000004 0
v 102.66974999999998 64.05600000000004 0
v 104.81137499999997 61.59200000000004 0
v 106.95299999999997 59.12800000000004 0
v 62.93000000000001 5.430000000000007 0
v 64.634591796875 7.028905517578128 0
v 66.211315625 8.604312890625 0
v 67.679669140625 10.158158349609373 0
v 69.05915 11.692378124999994 0
v 71.629484375 14.70968554687499 0
v 74.07830000000001 17.671724999999988 0
v 75.30588242187501 19.13685981445311 0
v 76.56157812500001 20.593986328124984 0
v 77.864884765625 22.04504077148436 0
v 79.23530000000001 23.491959374999986 0
v 80.69232148437501 24.936678369140612 0
v 82.25544687500002 26.381133984374983 0
v 83.94417382812502 27.827262451171862 0
v 85.77800000000002 29.276999999999987 0
v 85.77800000000002 29.276999999999987 0
v 82.75600000000003 32.010499999999986 0
v 79.73400000000002 34.743999999999986 0
v 76.71200000000002 37.477499999999985 0
v 73.69000000000003 40.210999999999984 0
v 70.66800000000003 42.944499999999984 0
v 67.64600000000003 45.67799999999998 0
v 64.62400000000002 48.41149999999998 0
v 61.60200000000003 51.14499999999998 0
v 61.60200000000003 51.14499999999998 0
v 61.76800000000003 45.430624999999985 0
v 61.934000000000026 39.71624999999999 0
v 62.10000000000002 34.00187499999999 0
v 62.26600000000002 28.287499999999994 0
v 62.432000000000016 22.573124999999997 0
v 62.59800000000001 16.85875 0
v 62.76400000000001 11.144375000000004 0
v 62.93000000000001 5.430000000000007 0
v 58.349999999999966 0.7899999999999636 0
v 65.66874999999996 1.4512249999999653 0
v 72.98749999999997 2.112449999999967 0
v 80.30624999999998 2.773674999999969 0
v 87.62499999999997 3.4348999999999705 0
v 94.94374999999997 4.096124999999972 0
v 102.26249999999997 4.757349999999974 0
v 109.58124999999998 5.418574999999976 0
v 116.89999999999998 6.0797999999999774 0
v 116.89999999999998 6.0797999999999774 0
v 113.05287499999997 8.730924999999978 0
v 109.20574999999998 11.382049999999978 0
v 105.35862499999999 14.033174999999979 0
v 101.51149999999998 16.68429999999998 0
v 97.66437499999998 19.33542499999998 0
v 93.81724999999999 21.98654999999998 0
v 89.970125 24.63767499999998 0
v 86.12299999999999 27.28879999999998 0
v 86.12299999999999 27.28879999999998 0
v 82.81687499999998 30.653674999999986 0
v 79.51074999999999 34.01854999999999 0
v 76.204625 37.383424999999995 0
v 72.89849999999998 40.7483 0
v 69.59237499999998 44.113175000000005 0
v 66.28624999999998 47.47805000000001 0
v 62.98012499999998 50.842925000000015 0
v 59.67399999999998 54.20780000000002 0
v 59.67399999999998 54.20780000000002 0
v 59.50849999999998 47.53057500000001 0
v 59.342999999999975 40.853350000000006 0
v 59.177499999999974 34.176125 0
v 59.01199999999997 27.498899999999992 0
v 58.84649999999997 20.821674999999985 0
v 58.68099999999997 14.144449999999978 0
v 58.51549999999997 7.467224999999971 0
v 58.349999999999966 0.7899999999999636 0
v 62.93000000000001 5.430000000000007 0
v 65.32412500000001 7.950125000000007 0
v 67.71825000000001 10.470250000000007 0
v 70.11237500000001 12.990375000000007 0
v 72.50650000000002 15.510500000000008 0
v 74.90062500000002 18.030625000000008 0
v 77.29475000000002 20.550750000000008 0
v 79.68887500000002 23.070875000000008 0
v 82.08300000000003 25.591000000000008 0
l 1 2
l 2 3
l 3 4
l 4 5
l 5 6
l 6 7
l 7 8
l 8 9
l 10 11
l 11 12
l 12 13
l 13 14
l 14 15
l 15 16
l 16 17
l 17 18








l 19 20
l 20 21
l 21 22
l 22 23
l 23 24
l 24 25
l 25 26
l 26 27
l 28 29
l 29 30
l 30 31
l 31 32
l 32 33
l 33 34
l 34 35
l 35 36

l 37 38
l 38 39
l 39 40
l 40 41
l 41 42
l 42 43
l 43 44
l 44 45
l 46 47
l 47 48
l 48 49
l 49 50
l 50 51
l 51 52
l 52 53
l 53 54
l 55 56
l 56 57
l 57 58
l 58 59
l 59 60
l 60 61
l 61 62
l 62 63

l 64 65
l 65 66
l 66 67
l 67 68
l 68 69
l 69 70
l 70 71
l 71 72


l 73 74
l 74 75
l 75 76
l 76 77
l 77 78
l 78 79
l 79 80
l 80 81








l 82 83
l 83 84
l 84 85
l 85 86
l 86 87
l 87 88
l 88 89
l 89 90
l 91 92
l 92 93
l 93 94
l 94 95
l 95 96
l 96 97
l 97 98
l 98 99

l 100 101
l 101 102
l 102 103
l 103 104
l 104 105
l 105 106
l 106 107
l 107 108
l 109 110
l 110 111
l 111 112
l 112 113
l 113 114
l 114 115
l 115 116
l 116 117

l 118 119
l 119 120
l 120 121
l 121 122
l 122 123
l 123 124
l 124 125
l 125 126
l 127 128
l 128 129
l 129 130
l 130 131
l 131 132
l 132 133
l 133 134
l 134 135

l 136 137
l 137 138
l 138 139
l 139 140
l 140 141
l 141 142
l 142 143
l 143 144

l 145 146
l 146 147
l 147 148
l 148 149
l 149 150
l 150 151
l 151 152
l 152 153








l 154 155
l 155 156
l 156 157
l 157 158
l 158 159
l 159 160
l 160 161
l 161 162








l 163 164
l 164 165
l 165 166
l 166 167
l 167 168
l 168 169
l 169 170
l 170 171
l 172 173
l 173 174
l 174 175
l 175 176
l 176 177
l 177 178
l 178 179
l 179 180

l 181 182
l 182 183
l 183 184
l 184 185
l 185 186
l 186 187
l 187 188
l 188 189
l 190 191
l 191 192
l 192 193
l 193 194
l 194 195
l 195 196
l 196 197
l 197 198
l 199 200
l 200 201
l 201 202
l 202 203
l 203 204
l 204 205
l 205 206
l 206 207
l 208 209
l 209 210
l 210 211
l 211 212
l 212 213
l 213 214
l 214 215
l 215 216

l 217 218
l 218 219
l 219 220
l 220 221
l 221 222
l 222 223
l 223 224
l 224 225

l 226 227
l 227 228
l 228 229
l 229 230
l 230 231
l 231 232
l 232 233
l 233 234

l 235 236
l 236 237
l 237 238
l 238 239
l 239 240
l 240 241
l 241 242
l 242 243
l 243 244
l 244 245
l 245 246
l 246 247
l 247 248
l 248 249
l 250 251
l 251 252
l 252 253
l 253 254
l 254 255
l 255 256
l 256 257
l 257 258
l 259 260
l 260 261
l 261 262
l 262 263
l 263 264
l 264 265
l 265 266
l 266 267

l 268 269
l 269 270
l 270 271
l 271 272
l 272 273
l 273 274
l 274 275
l 275 276
l 277 278
l 278 279
l 279 280
l 280 281
l 281 282
l 282 283
l 283 284
l 284 285
l 286 287
l 287 288
l 288 289
l 289 290
l 290 291
l 291 292
l 292 293
l 293 294
l 295 296
l 296 297
l 297 298
l 298 299
l 299 300
l 300 301
l 301 302
l 302 303

l 304 305
l 305 306
l 306 307
l 307 308
l 308 309
l 309 310
l 310 311
l 311 312

