v 1016.545 1123.05 0
v 1003.22375 1162.95125 0
v 989.9024999999999 1202.8525 0
v 976.58125 1242.7537499999999 0
v 963.26 1282.655 0
v 949.93875 1322.55625 0
v 936.6175000000001 1362.4575 0
v 923.29625 1402.3587499999999 0
v 909.975 1442.26 0
v 909.975 1442.26 0
v 909.7417846439362 1442.8967914009093 0
v 909.4965000030518 1443.5130069885254 0
v 909.2401194683075 1444.1083150901795 0
v 908.9736164306642 1444.682384033203 0
v 908.4141364105225 1445.7654777526855 0
v 907.8258470703125 1446.759634765625 0
v 907.5233323825837 1447.2225328254701 0
v 907.2165355377198 1447.6622016906738 0
v 906.9064299266815 1448.078309688568 0
v 906.5939889404298 1448.4705251464843 0
v 906.280185969925 1448.8385163917542 0
v 905.965994406128 1449.181951751709 0
v 905.6523876399995 1449.5004995536804 0
v 905.3403390625001 1449.7938281249997 0
v 905.0308220645904 1450.061605792999 0
v 904.7248100372316 1450.3035008850097 0
v 904.4232763713837 1450.519181728363 0
v 904.1271944580078 1450.7083166503905 0
v 903.8375376880646 1450.8705739784239 0
v 903.5552794525147 1451.0056220397948 0
v 903.2813931423187 1451.1131291618344 0
v 903.0168521484375 1451.192763671875 0
v 902.7626298618317 1451.2441938972472 0
v 902.5196996734618 1451.267088165283 0
v 902.4027733007908 1451.2677306675907 0
v 902.289034974289 1451.2611148033143 0
v 902.1786063678264 1451.2471991133689 0
v 902.0716091552733 1451.2259421386718 0
v 901.9681650105 1451.197302420139 0
v 901.8683956073761 1451.1612384986877 0
v 901.772422619772 1451.1177089152336 0
v 901.6803677215578 1451.0666722106932 0
v 901.5923525866033 1451.0080869259832 0
v 901.5084988887787 1450.9419116020201 0
v 901.4289283019542 1450.8681047797202 0
v 901.3537625 1450.786625 0
v 901.2831231567859 1450.6974308037757 0
v 901.2171319461822 1450.600480731964 0
v 901.155910542059 1450.4957333254813 0
v 901.0995806182863 1450.3831471252442 0
v 901.0020819072723 1450.1342925071715 0
v 900.9256092041016 1449.8535852050784 0
v 900.8711358997346 1449.5406935462947 0
v 900.8396353851318 1449.195285858154 0
v 900.8320810512542 1448.8170304679868 0
v 900.8494462890625 1448.4055957031248 0
v 900.8927044895172 1447.9606498908997 0
v 900.9628290435792 1447.4818613586426 0
v 901.060793342209 1446.9688984336854 0
v 901.1875707763672 1446.421429443359 0
v 901.3441347370148 1445.8391227149962 0
v 901.5314586151123 1445.2216465759275 0
v 901.7505158016205 1444.5686693534851 0
v 902.0022796875 1443.8798593749998 0
v 902.6078211212158 1442.3934144592286 0
v 903.3558700439453 1440.7596584472656 0
v 904.254213583374 1438.9759379577636 0
v 905.3106388671874 1437.039599609375 0
v 906.5329330230713 1434.9479900207518 0
v 907.9288831787109 1432.6984558105469 0
v 909.506276461792 1430.288343597412 0
v 911.2728999999999 1427.715 0
v 1345.6751315499998 1244.1297545 0
v 1338.9810702124998 1263.8190263125 0
v 1332.2870088749999 1283.508298125 0
v 1325.5929475374999 1303.1975699375 0
v 1318.8988861999999 1322.8868417499998 0
v 1312.2048248625 1342.5761135624998 0
v 1305.510763525 1362.2653853749998 0
v 1298.8167021875 1381.9546571874998 0
v 1292.12264085 1401.6439289999998 0
v 1292.12264085 1401.6439289999998 0
v 1291.8821898165336 1402.2622252984877 0
v 1291.619435592573 1402.839254401184 0
v 1291.3382912876516 1403.3737069970625 0
v 1291.0426700113026 1403.8642737750977 0
v 1290.7364848730595 1404.309645424263 0
v 1290.4236489824555 1404.7085126335326 0
v 1290.108075449023 1405.0595660918807 0
v 1289.7936773822967 1405.361496488281 0
v 1289.4843678918094 1405.612994511708 0
v 1289.1840600870933 1405.8127508511352 0
v 1289.0385046636295 1405.892816729653 0
v 1288.8966670776829 1405.9594561955369 0
v 1288.7590364679465 1406.012505584907 0
v 1288.6261019731112 1406.0518012338866 0
v 1288.4983527318689 1406.0771794785967 0
v 1288.3762778829114 1406.088476655159 0
v 1288.2603665649299 1406.0855290996953 0
v 1288.1511079166164 1406.0681731483278 0
v 1288.0489910766623 1406.0362451371775 0
v 1287.95450518376 1405.9895814023664 0
v 1287.8681393766 1405.928018280017 0
v 1287.7903827938749 1405.8513921062502 0
v 1287.721724574276 1405.7595392171877 0
v 1287.662653856495 1405.6522959489519 0
v 1287.613659779223 1405.5294986376637 0
v 1287.575231481153 1405.390983619446 0
v 1287.5478581009756 1405.2365872304194 0
v 1287.5320287773825 1405.0661458067061 0
v 1287.5282326490656 1404.8794956844283 0
v 1287.5369588547167 1404.6764731997068 0
v 1287.5939348226889 1404.2206564874223 0
v 1287.7068697908321 1403.6973863588257 0
v 1287.8796768686798 1403.1053535028916 0
v 1288.1162691657655 1402.4432486085939 0
v 1288.420559791622 1401.7097623649063 0
v 1288.796461855783 1400.9035854608032 0
v 1289.2478884677812 1400.0234085852585 0
v 1289.7787527371502 1399.067922427246 0
v 1290.3929677734234 1398.03581767574 0
v 1291.0944466861338 1396.9257850197143 0
v 1291.887102584815 1395.7365151481429 0
v 1292.7748485789998 1394.46669875 0
v 545.67513155 1244.1297545 0
v 538.9810702125 1263.8190263125 0
v 532.287008875 1283.508298125 0
v 525.5929475375 1303.1975699375 0
v 518.8988862 1322.8868417499998 0
v 512.2048248625 1342.5761135624998 0
v 505.51076352499996 1362.2653853749998 0
v 498.81670218749997 1381.9546571874998 0
v 492.12264085 1401.6439289999998 0
v 492.12264085 1401.6439289999998 0
v 491.88218981653347 1402.2622252984877 0
v 491.619435592573 1402.839254401184 0
v 491.3382912876516 1403.3737069970625 0
v 491.0426700113026 1403.8642737750977 0
v 490.73648487305957 1404.309645424263 0
v 490.42364898245535 1404.7085126335326 0
v 490.10807544902326 1405.0595660918807 0
v 489.79367738229683 1405.361496488281 0
v 489.4843678918092 1405.612994511708 0
v 489.1840600870935 1405.8127508511352 0
v 489.0385046636293 1405.892816729653 0
v 488.89666707768316 1405.9594561955369 0
v 488.7590364679466 1406.012505584907 0
v 488.6261019731113 1406.0518012338866 0
v 488.4983527318691 1406.0771794785967 0
v 488.3762778829113 1406.088476655159 0
v 488.26036656492994 1406.0855290996953 0
v 488.1511079166164 1406.0681731483278 0
v 488.04899107666256 1406.0362451371775 0
v 487.9545051837599 1405.9895814023664 0
v 487.8681393766002 1405.928018280017 0
v 487.790382793875 1405.8513921062502 0
v 487.72172457427604 1405.7595392171877 0
v 487.662653856495 1405.6522959489519 0
v 487.61365977922344 1405.5294986376637 0
v 487.5752314811531 1405.390983619446 0
v 487.54785810097553 1405.2365872304194 0
v 487.5320287773826 1405.0661458067061 0
v 487.5282326490657 1404.8794956844283 0
v 487.5369588547168 1404.6764731997068 0
v 487.5939348226889 1404.2206564874223 0
v 487.70686979083223 1403.6973863588257 0
v 487.8796768686801 1403.1053535028916 0
v 488.11626916576563 1402.4432486085939 0
v 488.42055979162217 1401.7097623649063 0
v 488.796461855783 1400.9035854608032 0
v 489.24788846778125 1400.0234085852585 0
v 489.7787527371504 1399.067922427246 0
v 490.39296777342355 1398.03581767574 0
v 491.094446686134 1396.9257850197143 0
v 491.88710258481507 1395.7365151481429 0
v 492.774848579 1394.46669875 0
v 1345.6751315499998 564.1257545 0
v 1338.9810702124998 583.8150263125 0
v 1332.2870088749999 603.504298125 0
v 1325.5929475374999 623.1935699375 0
v 1318.8988861999999 642.8828417499999 0
v 1312.2048248625 662.5721135624999 0
v 1305.510763525 682.2613853749999 0
v 1298.8167021875 701.9506571874999 0
v 1292.12264085 721.6399289999999 0
v 1292.12264085 721.6399289999999 0
v 1291.8821898165336 722.2582252984878 0
v 1291.619435592573 722.835254401184 0
v 1291.3382912876516 723.3697069970627 0
v 1291.0426700113026 723.8602737750977 0
v 1290.7364848730595 724.3056454242629 0
v 1290.4236489824555 724.7045126335328 0
v 1290.108075449023 725.0555660918808 0
v 1289.7936773822967 725.3574964882813 0
v 1289.4843678918094 725.608994511708 0
v 1289.1840600870933 725.8087508511353 0
v 1289.0385046636295 725.8888167296533 0
v 1288.8966670776829 725.9554561955368 0
v 1288.7590364679465 726.0085055849073 0
v 1288.6261019731112 726.0478012338867 0
v 1288.4983527318689 726.0731794785968 0
v 1288.3762778829114 726.0844766551589 0
v 1288.2603665649299 726.0815290996952 0
v 1288.1511079166164 726.0641731483277 0
v 1288.0489910766623 726.0322451371775 0
v 1287.95450518376 725.9855814023666 0
v 1287.8681393766 725.9240182800169 0
v 1287.7903827938749 725.84739210625 0
v 1287.721724574276 725.7555392171877 0
v 1287.662653856495 725.6482959489516 0
v 1287.613659779223 725.5254986376638 0
v 1287.575231481153 725.3869836194458 0
v 1287.5478581009756 725.2325872304193 0
v 1287.5320287773825 725.0621458067062 0
v 1287.5282326490656 724.8754956844282 0
v 1287.5369588547167 724.672473199707 0
v 1287.5939348226889 724.2166564874221 0
v 1287.7068697908321 723.6933863588256 0
v 1287.8796768686798 723.1013535028915 0
v 1288.1162691657655 722.4392486085937 0
v 1288.420559791622 721.7057623649063 0
v 1288.796461855783 720.8995854608031 0
v 1289.2478884677812 720.0194085852584 0
v 1289.7787527371502 719.0639224272461 0
v 1290.3929677734234 718.03181767574 0
v 1291.0944466861338 716.9217850197142 0
v 1291.887102584815 715.732515148143 0
v 1292.7748485789998 714.46269875 0
v 545.67513155 564.1257545 0
v 538.9810702125 583.8150263125 0
v 532.287008875 603.504298125 0
v 525.5929475375 623.1935699375 0
v 518.8988862 642.8828417499999 0
v 512.2048248625 662.5721135624999 0
v 505.51076352499996 682.2613853749999 0
v 498.81670218749997 701.9506571874999 0
v 492.12264085 721.6399289999999 0
v 492.12264085 721.6399289999999 0
v 491.88218981653347 722.2582252984878 0
v 491.619435592573 722.835254401184 0
v 491.3382912876516 723.3697069970627 0
v 491.0426700113026 723.8602737750977 0
v 490.73648487305957 724.3056454242629 0
v 490.42364898245535 724.7045126335328 0
v 490.10807544902326 725.0555660918808 0
v 489.79367738229683 725.3574964882813 0
v 489.4843678918092 725.608994511708 0
v 489.1840600870935 725.8087508511353 0
v 489.0385046636293 725.8888167296533 0
v 488.89666707768316 725.9554561955368 0
v 488.7590364679466 726.0085055849073 0
v 488.6261019731113 726.0478012338867 0
v 488.4983527318691 726.0731794785968 0
v 488.3762778829113 726.0844766551589 0
v 488.26036656492994 726.0815290996952 0
v 488.1511079166164 726.0641731483277 0
v 488.04899107666256 726.0322451371775 0
v 487.9545051837599 725.9855814023666 0
v 487.8681393766002 725.9240182800169 0
v 487.790382793875 725.84739210625 0
v 487.72172457427604 725.7555392171877 0
v 487.662653856495 725.6482959489516 0
v 487.61365977922344 725.5254986376638 0
v 487.5752314811531 725.3869836194458 0
v 487.54785810097553 725.2325872304193 0
v 487.5320287773826 725.0621458067062 0
v 487.5282326490657 724.8754956844282 0
v 487.5369588547168 724.672473199707 0
v 487.5939348226889 724.2166564874221 0
v 487.70686979083223 723.6933863588256 0
v 487.8796768686801 723.1013535028915 0
v 488.11626916576563 722.4392486085937 0
v 488.42055979162217 721.7057623649063 0
v 488.796461855783 720.8995854608031 0
v 489.24788846778125 720.0194085852584 0
v 489.7787527371504 719.0639224272461 0
v 490.39296777342355 718.03181767574 0
v 491.094446686134 716.9217850197142 0
v 491.88710258481507 715.732515148143 0
v 492.774848579 714.46269875 0
l 1 2
l 2 3
l 3 4
l 4 5
l 5 6
l 6 7
l 7 8
l 8 9
l 10 11
l 11 12
l 12 13
l 13 14
l 14 15
l 15 16
l 16 17
l 17 18
l 18 19
l 19 20
l 20 21
l 21 22
l 22 23
l 23 24
l 24 25
l 25 26
l 26 27
l 27 28
l 28 29
l 29 30
l 30 31
l 31 32
l 32 33
l 33 34
l 34 35
l 35 36
l 36 37
l 37 38
l 38 39
l 39 40
l 40 41
l 41 42
l 42 43
l 43 44
l 44 45
l 45 46
l 46 47
l 47 48
l 48 49
l 49 50
l 50 51
l 51 52
l 52 53
l 53 54
l 54 55
l 55 56
l 56 57
l 57 58
l 58 59
l 59 60
l 60 61
l 61 62
l 62 63
l 63 64
l 64 65
l 65 66
l 66 67
l 67 68
l 68 69
l 69 70
l 70 71
l 71 72

l 73 74
l 74 75
l 75 76
l 76 77
l 77 78
l 78 79
l 79 80
l 80 81
l 82 83
l 83 84
l 84 85
l 85 86
l 86 87
l 87 88
l 88 89
l 89 90
l 90 91
l 91 92
l 92 93
l 93 94
l 94 95
l 95 96
l 96 97
l 97 98
l 98 99
l 99 100
l 100 101
l 101 102
l 102 103
l 103 104
l 104 105
l 105 106
l 106 107
l 107 108
l 108 109
l 109 110
l 110 111
l 111 112
l 112 113
l 113 114
l 114 115
l 115 116
l 116 117
l 117 118
l 118 119
l 119 120
l 120 121
l 121 122
l 122 123
l 123 124

l 125 126
l 126 127
l 127 128
l 128 129
l 129 130
l 130 131
l 131 132
l 132 133
l 134 135
l 135 136
l 136 137
l 137 138
l 138 139
l 139 140
l 140 141
l 141 142
l 142 143
l 143 144
l 144 145
l 145 146
l 146 147
l 147 148
l 148 149
l 149 150
l 150 151
l 151 152
l 152 153
l 153 154
l 154 155
l 155 156
l 156 157
l 157 158
l 158 159
l 159 160
l 160 161
l 161 162
l 162 163
l 163 164
l 164 165
l 165 166
l 166 167
l 167 168
l 168 169
l 169 170
l 170 171
l 171 172
l 172 173
l 173 174
l 174 175
l 175 176

l 177 178
l 178 179
l 179 180
l 180 181
l 181 182
l 182 183
l 183 184
l 184 185
l 186 187
l 187 188
l 188 189
l 189 190
l 190 191
l 191 192
l 192 193
l 193 194
l 194 195
l 195 196
l 196 197
l 197 198
l 198 199
l 199 200
l 200 201
l 201 202
l 202 203
l 203 204
l 204 205
l 205 206
l 206 207
l 207 208
l 208 209
l 209 210
l 210 211
l 211 212
l 212 213
l 213 214
l 214 215
l 215 216
l 216 217
l 217 218
l 218 219
l 219 220
l 220 221
l 221 222
l 222 223
l 223 224
l 224 225
l 225 226
l 226 227
l 227 228

l 229 230
l 230 231
l 231 232
l 232 233
l 233 234
l 234 235
l 235 236
l 236 237
l 238 239
l 239 240
l 240 241
l 241 242
l 242 243
l 243 244
l 244 245
l 245 246
l 246 247
l 247 248
l 248 249
l 249 250
l 250 251
l 251 252
l 252 253
l 253 254
l 254 255
l 255 256
l 256 257
l 257 258
l 258 259
l 259 260
l 260 261
l 261 262
l 262 263
l 263 264
l 264 265
l 265 266
l 266 267
l 267 268
l 268 269
l 269 270
l 270 271
l 271 272
l 272 273
l 273 274
l 274 275
l 275 276
l 276 277
l 277 278
l 278 279
l 279 280

