v 5667.999562 8739.00005 0
v 5103.249562 8739.00005 0
v 4538.499562 8739.00005 0
v 3973.749562 8739.00005 0
v 3408.999562 8739.00005 0
v 2844.249562 8739.00005 0
v 2279.499562 8739.00005 0
v 1714.749562 8739.00005 0
v 1149.999562 8739.00005 0
v 1149.999562 8739.00005 0
v 1520.499562 7990.875050000001 0
v 1890.999562 7242.750050000001 0
v 2261.499562 6494.625050000001 0
v 2631.999562 5746.500050000001 0
v 3002.499562 4998.375050000001 0
v 3372.999562 4250.250050000001 0
v 3743.499562 3502.1250500000006 0
v 4113.999562 2754.0000500000006 0
v 4113.999562 2754.00005 0
v 5243.499562 2754.00005 0
v 6372.999562 2754.00005 0
v 7502.499562 2754.00005 0
v 8631.999562 2754.00005 0
v 9761.499562 2754.00005 0
v 10890.999562 2754.00005 0
v 12020.499562 2754.00005 0
v 13149.999562 2754.00005 0
v 13149.999562 2754.00005 0
v 12779.499562 3502.12505 0
v 12408.999562 4250.250050000001 0
v 12038.499562 4998.375050000001 0
v 11667.999562 5746.500050000001 0
v 11297.499562 6494.625050000001 0
v 10926.999562 7242.750050000001 0
v 10556.499562 7990.875050000001 0
v 10185.999562 8739.00005 0
v 10185.999562 8739.00005 0
v 9621.249562 8739.00005 0
v 9056.499562 8739.00005 0
v 8491.749562 8739.00005 0
v 7926.999562000001 8739.00005 0
v 7362.249562000001 8739.00005 0
v 6797.499562 8739.00005 0
v 6232.749562 8739.00005 0
v 5667.999562 8739.00005 0
v 5667.999562 8739.00005 0
v 5103.249562 8739.00005 0
v 4538.499562 8739.00005 0
v 3973.749562 8739.00005 0
v 3408.999562 8739.00005 0
v 2844.249562 8739.00005 0
v 2279.499562 8739.00005 0
v 1714.749562 8739.00005 0
v 1149.999562 8739.00005 0
v 1149.999562 8739.00005 0
v 1520.499562 7990.875050000001 0
v 1890.999562 7242.750050000001 0
v 2261.499562 6494.625050000001 0
v 2631.999562 5746.500050000001 0
v 3002.499562 4998.375050000001 0
v 3372.999562 4250.250050000001 0
v 3743.499562 3502.1250500000006 0
v 4113.999562 2754.0000500000006 0
v 4113.999562 2754.00005 0
v 5243.499562 2754.00005 0
v 6372.999562 2754.00005 0
v 7502.499562 2754.00005 0
v 8631.999562 2754.00005 0
v 9761.499562 2754.00005 0
v 10890.999562 2754.00005 0
v 12020.499562 2754.00005 0
v 13149.999562 2754.00005 0
v 13149.999562 2754.00005 0
v 12779.499562 3502.12505 0
v 12408.999562 4250.250050000001 0
v 12038.499562 4998.375050000001 0
v 11667.999562 5746.500050000001 0
v 11297.499562 6494.625050000001 0
v 10926.999562 7242.750050000001 0
v 10556.499562 7990.875050000001 0
v 10185.999562 8739.00005 0
v 10185.999562 8739.00005 0
v 9621.249562 8739.00005 0
v 9056.499562 8739.00005 0
v 8491.749562 8739.00005 0
v 7926.999562000001 8739.00005 0
v 7362.249562000001 8739.00005 0
v 6797.499562 8739.00005 0
v 6232.749562 8739.00005 0
v 5667.999562 8739.00005 0
v 1149.999562 8740.00005 0
v 1149.999562 7886.125050000001 0
v 1149.999562 7032.250050000001 0
v 1149.999562 6178.375050000001 0
v 1149.999562 5324.500050000001 0
v 1149.999562 4470.625050000001 0
v 1149.999562 3616.7500500000006 0
v 1149.999562 2762.8750500000006 0
v 1149.999562 1909.0000500000006 0
v 1149.999562 1909.00005 0
v 1235.374562 1814.12505 0
v 1320.749562 1719.25005 0
v 1406.124562 1624.37505 0
v 1491.499562 1529.50005 0
v 1576.874562 1434.62505 0
v 1662.249562 1339.75005 0
v 1747.624562 1244.87505 0
v 1832.999562 1150.00005 0
v 1832.999562 1150.00005 0
v 2212.749562 1150.00005 0
v 2592.499562 1150.00005 0
v 2972.249562 1150.00005 0
v 3351.999562 1150.00005 0
v 3731.749562 1150.00005 0
v 4111.499562 1150.00005 0
v 4491.249562 1150.00005 0
v 4870.999562 1150.00005 0
v 4870.999562 1150.00005 0
v 4965.874562 1244.87505 0
v 5060.749562 1339.75005 0
v 5155.624562 1434.62505 0
v 5250.499562 1529.50005 0
v 5345.374562 1624.37505 0
v 5440.249562 1719.25005 0
v 5535.124562 1814.12505 0
v 5629.999562 1909.00005 0
v 5629.999562 1909.00005 0
v 6199.499562 1909.00005 0
v 6768.999562 1909.00005 0
v 7338.499562000001 1909.00005 0
v 7907.999562000001 1909.00005 0
v 8477.499562 1909.00005 0
v 9046.999562 1909.00005 0
v 9616.499562 1909.00005 0
v 10185.999562 1909.00005 0
v 10185.999562 1909.00005 0
v 10185.999562 2762.87505 0
v 10185.999562 3616.75005 0
v 10185.999562 4470.625050000001 0
v 10185.999562 5324.500050000001 0
v 10185.999562 6178.375050000001 0
v 10185.999562 7032.250050000001 0
v 10185.999562 7886.125050000001 0
v 10185.999562 8740.00005 0
v 10185.999562 8740.00005 0
v 9056.499562 8740.00005 0
v 7926.999562000001 8740.00005 0
v 6797.499562000001 8740.00005 0
v 5667.999562000001 8740.00005 0
v 4538.499562000001 8740.00005 0
v 3408.999562000001 8740.00005 0
v 2279.499562000001 8740.00005 0
v 1149.9995620000009 8740.00005 0
v 1149.999562 8740.00005 0
v 1149.999562 7886.125050000001 0
v 1149.999562 7032.250050000001 0
v 1149.999562 6178.375050000001 0
v 1149.999562 5324.500050000001 0
v 1149.999562 4470.625050000001 0
v 1149.999562 3616.7500500000006 0
v 1149.999562 2762.8750500000006 0
v 1149.999562 1909.0000500000006 0
v 1149.999562 1909.00005 0
v 1235.374562 1814.12505 0
v 1320.749562 1719.25005 0
v 1406.124562 1624.37505 0
v 1491.499562 1529.50005 0
v 1576.874562 1434.62505 0
v 1662.249562 1339.75005 0
v 1747.624562 1244.87505 0
v 1832.999562 1150.00005 0
v 1832.999562 1150.00005 0
v 2212.749562 1150.00005 0
v 2592.499562 1150.00005 0
v 2972.249562 1150.00005 0
v 3351.999562 1150.00005 0
v 3731.749562 1150.00005 0
v 4111.499562 1150.00005 0
v 4491.249562 1150.00005 0
v 4870.999562 1150.00005 0
v 4870.999562 1150.00005 0
v 4965.874562 1244.87505 0
v 5060.749562 1339.75005 0
v 5155.624562 1434.62505 0
v 5250.499562 1529.50005 0
v 5345.374562 1624.37505 0
v 5440.249562 1719.25005 0
v 5535.124562 1814.12505 0
v 5629.999562 1909.00005 0
v 5629.999562 1909.00005 0
v 6199.499562 1909.00005 0
v 6768.999562 1909.00005 0
v 7338.499562000001 1909.00005 0
v 7907.999562000001 1909.00005 0
v 8477.499562 1909.00005 0
v 9046.999562 1909.00005 0
v 9616.499562 1909.00005 0
v 10185.999562 1909.00005 0
v 10185.999562 1909.00005 0
v 10185.999562 2762.87505 0
v 10185.999562 3616.75005 0
v 10185.999562 4470.625050000001 0
v 10185.999562 5324.500050000001 0
v 10185.999562 6178.375050000001 0
v 10185.999562 7032.250050000001 0
v 10185.999562 7886.125050000001 0
v 10185.999562 8740.00005 0
v 10185.999562 8740.00005 0
v 9056.499562 8740.00005 0
v 7926.999562000001 8740.00005 0
v 6797.499562000001 8740.00005 0
v 5667.999562000001 8740.00005 0
v 4538.499562000001 8740.00005 0
v 3408.999562000001 8740.00005 0
v 2279.499562000001 8740.00005 0
v 1149.9995620000009 8740.00005 0
l 1 2
l 2 3
l 3 4
l 4 5
l 5 6
l 6 7
l 7 8
l 8 9
l 10 11
l 11 12
l 12 13
l 13 14
l 14 15
l 15 16
l 16 17
l 17 18
l 19 20
l 20 21
l 21 22
l 22 23
l 23 24
l 24 25
l 25 26
l 26 27
l 28 29
l 29 30
l 30 31
l 31 32
l 32 33
l 33 34
l 34 35
l 35 36
l 37 38
l 38 39
l 39 40
l 40 41
l 41 42
l 42 43
l 43 44
l 44 45

l 46 47
l 47 48
l 48 49
l 49 50
l 50 51
l 51 52
l 52 53
l 53 54
l 55 56
l 56 57
l 57 58
l 58 59
l 59 60
l 60 61
l 61 62
l 62 63
l 64 65
l 65 66
l 66 67
l 67 68
l 68 69
l 69 70
l 70 71
l 71 72
l 73 74
l 74 75
l 75 76
l 76 77
l 77 78
l 78 79
l 79 80
l 80 81
l 82 83
l 83 84
l 84 85
l 85 86
l 86 87
l 87 88
l 88 89
l 89 90

l 91 92
l 92 93
l 93 94
l 94 95
l 95 96
l 96 97
l 97 98
l 98 99
l 100 101
l 101 102
l 102 103
l 103 104
l 104 105
l 105 106
l 106 107
l 107 108
l 109 110
l 110 111
l 111 112
l 112 113
l 113 114
l 114 115
l 115 116
l 116 117
l 118 119
l 119 120
l 120 121
l 121 122
l 122 123
l 123 124
l 124 125
l 125 126
l 127 128
l 128 129
l 129 130
l 130 131
l 131 132
l 132 133
l 133 134
l 134 135
l 136 137
l 137 138
l 138 139
l 139 140
l 140 141
l 141 142
l 142 143
l 143 144
l 145 146
l 146 147
l 147 148
l 148 149
l 149 150
l 150 151
l 151 152
l 152 153

l 154 155
l 155 156
l 156 157
l 157 158
l 158 159
l 159 160
l 160 161
l 161 162
l 163 164
l 164 165
l 165 166
l 166 167
l 167 168
l 168 169
l 169 170
l 170 171
l 172 173
l 173 174
l 174 175
l 175 176
l 176 177
l 177 178
l 178 179
l 179 180
l 181 182
l 182 183
l 183 184
l 184 185
l 185 186
l 186 187
l 187 188
l 188 189
l 190 191
l 191 192
l 192 193
l 193 194
l 194 195
l 195 196
l 196 197
l 197 198
l 199 200
l 200 201
l 201 202
l 202 203
l 203 204
l 204 205
l 205 206
l 206 207
l 208 209
l 209 210
l 210 211
l 211 212
l 212 213
l 213 214
l 214 215
l 215 216

