v 117.0 640.83 0
v 152.355 605.475 0
v 187.70999999999998 570.12 0
v 223.065 534.7650000000001 0
v 258.41999999999996 499.4100000000001 0
v 293.775 464.05500000000006 0
v 329.13 428.70000000000005 0
v 364.485 393.345 0
v 399.84 357.99000000000007 0
v 399.84 357.99000000000007 0
v 364.48499999999996 357.99000000000007 0
v 329.13 357.99000000000007 0
v 293.775 357.99000000000007 0
v 258.41999999999996 357.99000000000007 0
v 223.065 357.99000000000007 0
v 187.70999999999998 357.99000000000007 0
v 152.355 357.99000000000007 0
v 117.0 357.99000000000007 0
v 117.0 357.99000000000007 0
v 117.0 393.3450000000001 0
v 117.0 428.70000000000005 0
v 117.0 464.05500000000006 0
v 117.0 499.4100000000001 0
v 117.0 534.7650000000001 0
v 117.0 570.1200000000001 0
v 117.0 605.475 0
v 117.0 640.83 0
v 0.0 357.99 0
v 50.0 357.98999875000004 0
v 100.0 357.9899975 0
v 150.0 357.98999625 0
v 200.0 357.989995 0
v 250.0 357.98999375000005 0
v 300.0 357.9899925 0
v 350.0 357.98999125 0
v 400.0 357.98999000000003 0
v 400.0 357.98999000000003 0
v 375.0 332.98999000000003 0
v 350.0 307.98999000000003 0
v 325.0 282.98999000000003 0
v 300.0 257.98999000000003 0
v 275.0 232.98999000000003 0
v 250.0 207.98999000000003 0
v 225.0 182.98999000000003 0
v 200.0 157.98999000000003 0
v 200.0 157.98999000000003 0
v 175.0 182.98999125000003 0
v 150.0 207.98999250000003 0
v 125.0 232.98999375000002 0
v 100.0 257.989995 0
v 75.0 282.98999625 0
v 50.0 307.9899975 0
v 25.0 332.98999875000004 0
v 0.0 357.99 0
v 117.0 727.99 0
v 117.0 702.99 0
v 117.0 677.99 0
v 117.0 652.99 0
v 117.0 627.99 0
v 117.0 602.99 0
v 117.0 577.99 0
v 117.0 552.99 0
v 117.0 527.99 0
v 117.0 527.99 0
v 104.5 540.49 0
v 92.0 552.99 0
v 79.5 565.49 0
v 67.0 577.99 0
v 54.5 590.49 0
v 42.0 602.99 0
v 29.5 615.49 0
v 17.0 627.99 0
v 17.0 627.99 0
v 29.5 640.49 0
v 42.0 652.99 0
v 54.5 665.49 0
v 67.0 677.99 0
v 79.5 690.49 0
v 92.0 702.99 0
v 104.5 715.49 0
v 117.0 727.99 0
v 217.0 740.99 0
v 242.0 740.99 0
v 267.0 740.99 0
v 292.0 740.99 0
v 317.0 740.99 0
v 342.0 740.99 0
v 367.0 740.99 0
v 392.0 740.99 0
v 417.0 740.99 0
v 417.0 740.99 0
v 404.5 728.49 0
v 392.0 715.99 0
v 379.5 703.49 0
v 367.0 690.99 0
v 354.5 678.49 0
v 342.0 665.99 0
v 329.5 653.49 0
v 317.0 640.99 0
v 317.0 640.99 0
v 304.5 653.49 0
v 292.0 665.99 0
v 279.5 678.49 0
v 267.0 690.99 0
v 254.5 703.49 0
v 242.0 715.99 0
v 229.5 728.49 0
v 217.0 740.99 0
v 200.58 158.57 0
v 235.935 158.57 0
v 271.28999999999996 158.57 0
v 306.645 158.57 0
v 342.0 158.57 0
v 377.35499999999996 158.57 0
v 412.7099999999999 158.57 0
v 448.06499999999994 158.57 0
v 483.41999999999996 158.57 0
v 483.41999999999996 158.57 0
v 465.74249999999995 176.2475 0
v 448.06499999999994 193.925 0
v 430.3875 211.6025 0
v 412.71 229.28 0
v 395.03249999999997 246.9575 0
v 377.355 264.635 0
v 359.6775 282.3125 0
v 342.0 299.99 0
v 342.0 299.99 0
v 324.3225 282.3125 0
v 306.645 264.635 0
v 288.9675 246.9575 0
v 271.29 229.28 0
v 253.6125 211.6025 0
v 235.935 193.925 0
v 218.2575 176.2475 0
v 200.58 158.57 0
v 184.6 0.0 0
v 202.15 2.1275000000000013 0
v 219.7 4.255000000000003 0
v 237.25 6.382500000000004 0
v 254.8 8.510000000000005 0
v 272.35 10.637500000000006 0
v 289.9 12.765000000000008 0
v 307.45 14.892500000000009 0
v 325.0 17.02000000000001 0
v 325.0 17.02000000000001 0
v 322.8725 34.56875000000001 0
v 320.745 52.1175 0
v 318.6175 69.66624999999999 0
v 316.49 87.21499999999999 0
v 314.3625 104.76374999999999 0
v 312.235 122.31249999999997 0
v 310.1075 139.86124999999998 0
v 307.98 157.40999999999997 0
v 307.98 157.40999999999997 0
v 290.43 155.28249999999997 0
v 272.88 153.15499999999997 0
v 255.33 151.02749999999997 0
v 237.78000000000003 148.89999999999998 0
v 220.23000000000002 146.77249999999998 0
v 202.68 144.64499999999998 0
v 185.13 142.51749999999998 0
v 167.58 140.39 0
v 167.58 140.39 0
v 169.7075 122.84124999999999 0
v 171.835 105.29249999999999 0
v 173.9625 87.74374999999999 0
v 176.09 70.195 0
v 178.2175 52.646249999999995 0
v 180.345 35.0975 0
v 182.4725 17.54875 0
v 184.6 0.0 0
v 217.0 540.99 0
v 229.5 528.49 0
v 242.0 515.99 0
v 254.5 503.49 0
v 267.0 490.99 0
v 279.5 478.49 0
v 292.0 465.99 0
v 304.5 453.49 0
v 317.0 440.99 0
v 317.0 440.99 0
v 317.0 465.99 0
v 317.0 490.99 0
v 317.0 515.99 0
v 317.0 540.99 0
v 317.0 565.99 0
v 317.0 590.99 0
v 317.0 615.99 0
v 317.0 640.99 0
v 317.0 640.99 0
v 304.5 653.49 0
v 292.0 665.99 0
v 279.5 678.49 0
v 267.0 690.99 0
v 254.5 703.49 0
v 242.0 715.99 0
v 229.5 728.49 0
v 217.0 740.99 0
v 217.0 740.99 0
v 217.0 715.99 0
v 217.0 690.99 0
v 217.0 665.99 0
v 217.0 640.99 0
v 217.0 615.99 0
v 217.0 590.99 0
v 217.0 565.99 0
v 217.0 540.99 0
l 1 2
l 2 3
l 3 4
l 4 5
l 5 6
l 6 7
l 7 8
l 8 9
l 10 11
l 11 12
l 12 13
l 13 14
l 14 15
l 15 16
l 16 17
l 17 18
l 19 20
l 20 21
l 21 22
l 22 23
l 23 24
l 24 25
l 25 26
l 26 27

l 28 29
l 29 30
l 30 31
l 31 32
l 32 33
l 33 34
l 34 35
l 35 36
l 37 38
l 38 39
l 39 40
l 40 41
l 41 42
l 42 43
l 43 44
l 44 45
l 46 47
l 47 48
l 48 49
l 49 50
l 50 51
l 51 52
l 52 53
l 53 54

l 55 56
l 56 57
l 57 58
l 58 59
l 59 60
l 60 61
l 61 62
l 62 63
l 64 65
l 65 66
l 66 67
l 67 68
l 68 69
l 69 70
l 70 71
l 71 72
l 73 74
l 74 75
l 75 76
l 76 77
l 77 78
l 78 79
l 79 80
l 80 81

l 82 83
l 83 84
l 84 85
l 85 86
l 86 87
l 87 88
l 88 89
l 89 90
l 91 92
l 92 93
l 93 94
l 94 95
l 95 96
l 96 97
l 97 98
l 98 99
l 100 101
l 101 102
l 102 103
l 103 104
l 104 105
l 105 106
l 106 107
l 107 108

l 109 110
l 110 111
l 111 112
l 112 113
l 113 114
l 114 115
l 115 116
l 116 117
l 118 119
l 119 120
l 120 121
l 121 122
l 122 123
l 123 124
l 124 125
l 125 126
l 127 128
l 128 129
l 129 130
l 130 131
l 131 132
l 132 133
l 133 134
l 134 135

l 136 137
l 137 138
l 138 139
l 139 140
l 140 141
l 141 142
l 142 143
l 143 144
l 145 146
l 146 147
l 147 148
l 148 149
l 149 150
l 150 151
l 151 152
l 152 153
l 154 155
l 155 156
l 156 157
l 157 158
l 158 159
l 159 160
l 160 161
l 161 162
l 163 164
l 164 165
l 165 166
l 166 167
l 167 168
l 168 169
l 169 170
l 170 171

l 172 173
l 173 174
l 174 175
l 175 176
l 176 177
l 177 178
l 178 179
l 179 180
l 181 182
l 182 183
l 183 184
l 184 185
l 185 186
l 186 187
l 187 188
l 188 189
l 190 191
l 191 192
l 192 193
l 193 194
l 194 195
l 195 196
l 196 197
l 197 198
l 199 200
l 200 201
l 201 202
l 202 203
l 203 204
l 204 205
l 205 206
l 206 207

