v -5.684341886080802e-13 5.684341886080801e-13 0
v 74.99999999999942 5.684341886080801e-13 0
v 149.9999999999994 5.684341886080801e-13 0
v 224.99999999999937 5.684341886080801e-13 0
v 299.9999999999994 5.684341886080801e-13 0
v 374.9999999999994 5.684341886080801e-13 0
v 449.9999999999993 5.684341886080801e-13 0
v 524.9999999999993 5.684341886080801e-13 0
v 599.9999999999993 5.684341886080801e-13 0
v 599.9999999999993 5.684341886080801e-13 0
v 599.9999999999993 121.3750000000005 0
v 599.9999999999993 242.75000000000043 0
v 599.9999999999993 364.12500000000034 0
v 599.9999999999993 485.5000000000003 0
v 599.9999999999993 606.8750000000002 0
v 599.9999999999993 728.2500000000001 0
v 599.9999999999993 849.6250000000001 0
v 599.9999999999993 971.0 0
v 599.9999999999993 971.0 0
v 524.9999999999993 971.0 0
v 449.9999999999993 971.0 0
v 374.9999999999994 971.0 0
v 299.9999999999994 971.0 0
v 224.99999999999937 971.0 0
v 149.99999999999943 971.0 0
v 74.99999999999943 971.0 0
v -5.684341886080801e-13 971.0 0
v -5.684341886080801e-13 971.0 0
v -5.684341886080801e-13 849.6250000000001 0
v -5.684341886080801e-13 728.2500000000001 0
v -5.684341886080801e-13 606.8750000000002 0
v -5.684341886080801e-13 485.5000000000003 0
v -5.684341886080802e-13 364.12500000000034 0
v -5.684341886080802e-13 242.75000000000045 0
v -5.684341886080802e-13 121.37500000000045 0
v -5.684341886080802e-13 5.684341886080801e-13 0
v 99.99999999999943 5.684341886080801e-13 0
v 112.49999999999943 5.684341886080801e-13 0
v 124.99999999999943 5.684341886080801e-13 0
v 137.49999999999943 5.684341886080801e-13 0
v 149.99999999999943 5.684341886080801e-13 0
v 162.49999999999943 5.684341886080801e-13 0
v 174.9999999999994 5.684341886080801e-13 0
v 187.4999999999994 5.684341886080801e-13 0
v 199.9999999999994 5.684341886080801e-13 0
v 199.9999999999994 5.684341886080801e-13 0
v 199.9999999999994 121.3750000000005 0
v 199.9999999999994 242.75000000000043 0
v 199.9999999999994 364.12500000000034 0
v 199.9999999999994 485.5000000000003 0
v 199.9999999999994 606.8750000000002 0
v 199.9999999999994 728.2500000000001 0
v 199.9999999999994 849.6250000000001 0
v 199.9999999999994 971.0 0
v 199.9999999999994 971.0 0
v 187.4999999999994 971.0 0
v 174.99999999999943 971.0 0
v 162.49999999999943 971.0 0
v 149.99999999999943 971.0 0
v 137.49999999999943 971.0 0
v 124.99999999999946 971.0 0
v 112.49999999999946 971.0 0
v 99.99999999999947 971.0 0
v 99.99999999999947 971.0 0
v 99.99999999999947 849.6250000000001 0
v 99.99999999999946 728.2500000000001 0
v 99.99999999999946 606.8750000000002 0
v 99.99999999999946 485.5000000000003 0
v 99.99999999999945 364.12500000000034 0
v 99.99999999999945 242.75000000000045 0
v 99.99999999999943 121.37500000000045 0
v 99.99999999999943 5.684341886080801e-13 0
v 199.9999999999994 5.684341886080801e-13 0
v 212.4999999999994 5.684341886080801e-13 0
v 224.9999999999994 5.684341886080801e-13 0
v 237.49999999999937 5.684341886080801e-13 0
v 249.99999999999937 5.684341886080801e-13 0
v 262.4999999999994 5.684341886080801e-13 0
v 274.9999999999994 5.684341886080801e-13 0
v 287.4999999999994 5.684341886080801e-13 0
v 299.9999999999994 5.684341886080801e-13 0
v 299.9999999999994 5.684341886080801e-13 0
v 299.9999999999994 121.3750000000005 0
v 299.9999999999994 242.75000000000043 0
v 299.9999999999994 364.12500000000034 0
v 299.9999999999994 485.5000000000003 0
v 299.9999999999994 606.8750000000002 0
v 299.9999999999994 728.2500000000001 0
v 299.9999999999994 849.6250000000001 0
v 299.9999999999994 971.0 0
v 299.9999999999994 971.0 0
v 287.4999999999994 971.0 0
v 274.9999999999994 971.0 0
v 262.4999999999994 971.0 0
v 249.99999999999937 971.0 0
v 237.49999999999937 971.0 0
v 224.9999999999994 971.0 0
v 212.4999999999994 971.0 0
v 199.9999999999994 971.0 0
v 199.9999999999994 971.0 0
v 199.9999999999994 849.6250000000001 0
v 199.9999999999994 728.2500000000001 0
v 199.9999999999994 606.8750000000002 0
v 199.9999999999994 485.5000000000003 0
v 199.9999999999994 364.12500000000034 0
v 199.9999999999994 242.75000000000045 0
v 199.9999999999994 121.37500000000045 0
v 199.9999999999994 5.684341886080801e-13 0
v 299.9999999999994 5.684341886080801e-13 0
v 312.4999999999994 5.684341886080801e-13 0
v 324.9999999999994 5.684341886080801e-13 0
v 337.4999999999994 5.684341886080801e-13 0
v 349.9999999999993 5.684341886080801e-13 0
v 362.4999999999993 5.684341886080801e-13 0
v 374.9999999999993 5.684341886080801e-13 0
v 387.4999999999993 5.684341886080801e-13 0
v 399.9999999999993 5.684341886080801e-13 0
v 399.9999999999993 5.684341886080801e-13 0
v 399.9999999999993 121.3750000000005 0
v 399.9999999999993 242.75000000000043 0
v 399.9999999999993 364.12500000000034 0
v 399.9999999999993 485.5000000000003 0
v 399.9999999999993 606.8750000000002 0
v 399.9999999999993 728.2500000000001 0
v 399.9999999999993 849.6250000000001 0
v 399.9999999999993 971.0 0
v 399.9999999999993 971.0 0
v 387.4999999999993 971.0 0
v 374.9999999999993 971.0 0
v 362.4999999999993 971.0 0
v 349.9999999999993 971.0 0
v 337.4999999999994 971.0 0
v 324.9999999999994 971.0 0
v 312.4999999999994 971.0 0
v 299.9999999999994 971.0 0
v 299.9999999999994 971.0 0
v 299.9999999999994 849.6250000000001 0
v 299.9999999999994 728.2500000000001 0
v 299.9999999999994 606.8750000000002 0
v 299.9999999999994 485.5000000000003 0
v 299.9999999999994 364.12500000000034 0
v 299.9999999999994 242.75000000000045 0
v 299.9999999999994 121.37500000000045 0
v 299.9999999999994 5.684341886080801e-13 0
v 399.9999999999993 5.684341886080801e-13 0
v 412.4999999999993 5.684341886080801e-13 0
v 424.9999999999993 5.684341886080801e-13 0
v 437.4999999999993 5.684341886080801e-13 0
v 449.9999999999993 5.684341886080801e-13 0
v 462.4999999999993 5.684341886080801e-13 0
v 474.9999999999993 5.684341886080801e-13 0
v 487.4999999999993 5.684341886080801e-13 0
v 499.9999999999993 5.684341886080801e-13 0
v 499.9999999999993 5.684341886080801e-13 0
v 499.9999999999993 121.3750000000005 0
v 499.9999999999993 242.75000000000043 0
v 499.9999999999993 364.12500000000034 0
v 499.9999999999993 485.5000000000003 0
v 499.9999999999993 606.8750000000002 0
v 499.9999999999993 728.2500000000001 0
v 499.9999999999993 849.6250000000001 0
v 499.9999999999993 971.0 0
v 499.9999999999993 971.0 0
v 487.4999999999993 971.0 0
v 474.9999999999993 971.0 0
v 462.4999999999993 971.0 0
v 449.9999999999993 971.0 0
v 437.4999999999993 971.0 0
v 424.9999999999993 971.0 0
v 412.4999999999993 971.0 0
v 399.9999999999993 971.0 0
v 399.9999999999993 971.0 0
v 399.9999999999993 849.6250000000001 0
v 399.9999999999993 728.2500000000001 0
v 399.9999999999993 606.8750000000002 0
v 399.9999999999993 485.5000000000003 0
v 399.9999999999993 364.12500000000034 0
v 399.9999999999993 242.75000000000045 0
v 399.9999999999993 121.37500000000045 0
v 399.9999999999993 5.684341886080801e-13 0
v 499.9999999999993 5.684341886080801e-13 0
v 512.4999999999993 5.684341886080801e-13 0
v 524.9999999999993 5.684341886080801e-13 0
v 537.4999999999993 5.684341886080801e-13 0
v 549.9999999999993 5.684341886080801e-13 0
v 562.4999999999993 5.684341886080801e-13 0
v 574.9999999999993 5.684341886080801e-13 0
v 587.4999999999993 5.684341886080801e-13 0
v 599.9999999999993 5.684341886080801e-13 0
v 599.9999999999993 5.684341886080801e-13 0
v 599.9999999999993 121.3750000000005 0
v 599.9999999999993 242.75000000000043 0
v 599.9999999999993 364.12500000000034 0
v 599.9999999999993 485.5000000000003 0
v 599.9999999999993 606.8750000000002 0
v 599.9999999999993 728.2500000000001 0
v 599.9999999999993 849.6250000000001 0
v 599.9999999999993 971.0 0
v 599.9999999999993 971.0 0
v 587.4999999999993 971.0 0
v 574.9999999999993 971.0 0
v 562.4999999999993 971.0 0
v 549.9999999999993 971.0 0
v 537.4999999999993 971.0 0
v 524.9999999999993 971.0 0
v 512.4999999999993 971.0 0
v 499.9999999999993 971.0 0
v 499.9999999999993 971.0 0
v 499.9999999999993 849.6250000000001 0
v 499.9999999999993 728.2500000000001 0
v 499.9999999999993 606.8750000000002 0
v 499.9999999999993 485.5000000000003 0
v 499.9999999999993 364.12500000000034 0
v 499.9999999999993 242.75000000000045 0
v 499.9999999999993 121.37500000000045 0
v 499.9999999999993 5.684341886080801e-13 0
l 1 2
l 2 3
l 3 4
l 4 5
l 5 6
l 6 7
l 7 8
l 8 9
l 10 11
l 11 12
l 12 13
l 13 14
l 14 15
l 15 16
l 16 17
l 17 18
l 19 20
l 20 21
l 21 22
l 22 23
l 23 24
l 24 25
l 25 26
l 26 27
l 28 29
l 29 30
l 30 31
l 31 32
l 32 33
l 33 34
l 34 35
l 35 36

l 37 38
l 38 39
l 39 40
l 40 41
l 41 42
l 42 43
l 43 44
l 44 45
l 46 47
l 47 48
l 48 49
l 49 50
l 50 51
l 51 52
l 52 53
l 53 54
l 55 56
l 56 57
l 57 58
l 58 59
l 59 60
l 60 61
l 61 62
l 62 63
l 64 65
l 65 66
l 66 67
l 67 68
l 68 69
l 69 70
l 70 71
l 71 72

l 73 74
l 74 75
l 75 76
l 76 77
l 77 78
l 78 79
l 79 80
l 80 81
l 82 83
l 83 84
l 84 85
l 85 86
l 86 87
l 87 88
l 88 89
l 89 90
l 91 92
l 92 93
l 93 94
l 94 95
l 95 96
l 96 97
l 97 98
l 98 99
l 100 101
l 101 102
l 102 103
l 103 104
l 104 105
l 105 106
l 106 107
l 107 108

l 109 110
l 110 111
l 111 112
l 112 113
l 113 114
l 114 115
l 115 116
l 116 117
l 118 119
l 119 120
l 120 121
l 121 122
l 122 123
l 123 124
l 124 125
l 125 126
l 127 128
l 128 129
l 129 130
l 130 131
l 131 132
l 132 133
l 133 134
l 134 135
l 136 137
l 137 138
l 138 139
l 139 140
l 140 141
l 141 142
l 142 143
l 143 144

l 145 146
l 146 147
l 147 148
l 148 149
l 149 150
l 150 151
l 151 152
l 152 153
l 154 155
l 155 156
l 156 157
l 157 158
l 158 159
l 159 160
l 160 161
l 161 162
l 163 164
l 164 165
l 165 166
l 166 167
l 167 168
l 168 169
l 169 170
l 170 171
l 172 173
l 173 174
l 174 175
l 175 176
l 176 177
l 177 178
l 178 179
l 179 180

l 181 182
l 182 183
l 183 184
l 184 185
l 185 186
l 186 187
l 187 188
l 188 189
l 190 191
l 191 192
l 192 193
l 193 194
l 194 195
l 195 196
l 196 197
l 197 198
l 199 200
l 200 201
l 201 202
l 202 203
l 203 204
l 204 205
l 205 206
l 206 207
l 208 209
l 209 210
l 210 211
l 211 212
l 212 213
l 213 214
l 214 215
l 215 216

