v 0.5 44.68999999999994 0
v 0.6262749999999997 47.783624999999944 0
v 0.7525499999999994 50.87724999999995 0
v 0.8788249999999991 53.97087499999995 0
v 1.0050999999999988 57.06449999999995 0
v 1.1313749999999985 60.158124999999956 0
v 1.2576499999999982 63.25174999999996 0
v 1.3839249999999979 66.34537499999996 0
v 1.5101999999999975 69.43899999999996 0
v 1.5101999999999975 69.43899999999996 0
v 2.8992000000000004 71.71187499999996 0
v 4.288200000000003 73.98474999999996 0
v 5.677200000000006 76.25762499999996 0
v 7.066200000000009 78.53049999999996 0
v 8.455200000000012 80.80337499999996 0
v 9.844200000000015 83.07624999999996 0
v 11.233200000000018 85.34912499999996 0
v 12.62220000000002 87.62199999999996 0
v 12.62220000000002 87.62199999999996 0
v 19.44070000000002 86.86438749999996 0
v 26.25920000000002 86.10677499999997 0
v 33.07770000000002 85.34916249999998 0
v 39.89620000000002 84.59154999999998 0
v 46.71470000000002 83.83393749999999 0
v 53.53320000000002 83.076325 0
v 60.35170000000002 82.3187125 0
v 67.17020000000002 81.56110000000001 0
v 67.17020000000002 81.56110000000001 0
v 78.72382500000002 76.13147500000001 0
v 90.27745000000002 70.70185000000001 0
v 101.83107500000001 65.272225 0
v 113.38470000000001 59.842600000000004 0
v 124.938325 54.412975 0
v 136.49195 48.98335 0
v 148.04557499999999 43.553725 0
v 159.5992 38.1241 0
v 159.5992 38.1241 0
v 160.45151249999998 34.967349999999996 0
v 161.303825 31.810599999999994 0
v 162.1561375 28.65384999999999 0
v 163.00844999999998 25.49709999999999 0
v 163.86076249999996 22.340349999999987 0
v 164.71307499999998 19.183599999999984 0
v 165.56538749999999 16.026849999999982 0
v 166.41769999999997 12.87009999999998 0
v 166.41769999999997 12.87009999999998 0
v 164.42895 11.323349999999976 0
v 162.44019999999998 9.776599999999974 0
v 160.45144999999997 8.22984999999997 0
v 158.46269999999998 6.683099999999968 0
v 156.47395 5.136349999999965 0
v 154.4852 3.5895999999999617 0
v 152.49644999999998 2.0428499999999588 0
v 150.5077 0.4960999999999558 0
v 150.5077 0.4960999999999558 0
v 136.90269999999998 3.1162249999999574 0
v 123.29769999999999 5.736349999999959 0
v 109.69269999999999 8.35647499999996 0
v 96.08769999999998 10.976599999999962 0
v 82.48269999999998 13.596724999999964 0
v 68.87769999999998 16.216849999999965 0
v 55.27269999999997 18.836974999999967 0
v 41.66769999999997 21.45709999999997 0
v 41.66769999999997 21.45709999999997 0
v 36.52219999999997 24.361349999999973 0
v 31.37669999999997 27.265599999999978 0
v 26.231199999999973 30.169849999999983 0
v 21.085699999999974 33.07409999999999 0
v 15.940199999999976 35.97834999999999 0
v 10.794699999999978 38.8826 0
v 5.649199999999979 41.78685 0
v 0.5036999999999807 44.691100000000006 0
v 0.5036999999999807 44.691100000000006 0
v 0.5032374999999831 44.6909625 0
v 0.5027749999999855 44.69082499999999 0
v 0.502312499999988 44.69068749999998 0
v 0.5018499999999904 44.69054999999997 0
v 0.5013874999999928 44.690412499999965 0
v 0.5009249999999952 44.69027499999996 0
v 0.5004624999999976 44.69013749999995 0
v 0.5 44.68999999999994 0
v 4.439999999999998 45.57999999999993 0
v 5.581837499999999 47.286249999999924 0
v 6.723675 48.99249999999992 0
v 7.865512500000001 50.69874999999992 0
v 9.007350000000002 52.404999999999916 0
v 10.149187500000004 54.11124999999991 0
v 11.291025000000005 55.81749999999991 0
v 12.432862500000006 57.52374999999991 0
v 13.574700000000007 59.229999999999905 0
v 13.574700000000007 59.229999999999905 0
v 20.23545 58.7249249999999 0
v 26.896199999999993 58.219849999999894 0
v 33.556949999999986 57.71477499999989 0
v 40.21769999999998 57.209699999999884 0
v 46.87844999999997 56.70462499999988 0
v 53.539199999999965 56.199549999999874 0
v 60.19994999999996 55.69447499999987 0
v 66.86069999999995 55.189399999999864 0
v 66.86069999999995 55.189399999999864 0
v 78.99019999999996 49.95464999999986 0
v 91.11969999999997 44.71989999999985 0
v 103.24919999999997 39.48514999999985 0
v 115.37869999999998 34.25039999999984 0
v 127.50819999999999 29.015649999999837 0
v 139.6377 23.780899999999832 0
v 151.7672 18.546149999999827 0
v 163.8967 13.311399999999821 0
v 163.8967 13.311399999999821 0
v 162.247575 12.011774999999815 0
v 160.59845 10.71214999999981 0
v 158.94932500000002 9.412524999999803 0
v 157.30020000000002 8.112899999999797 0
v 155.65107500000002 6.813274999999791 0
v 154.00195000000002 5.513649999999785 0
v 152.35282500000002 4.214024999999779 0
v 150.70370000000003 2.914399999999773 0
v 150.70370000000003 2.914399999999773 0
v 137.18745 5.488274999999774 0
v 123.67120000000003 8.062149999999775 0
v 110.15495000000003 10.636024999999776 0
v 96.63870000000003 13.209899999999777 0
v 83.12245000000003 15.783774999999778 0
v 69.60620000000003 18.35764999999978 0
v 56.08995000000003 20.93152499999978 0
v 42.57370000000003 23.50539999999978 0
v 42.57370000000003 23.50539999999978 0
v 37.80770000000003 26.264774999999787 0
v 33.041700000000034 29.024149999999793 0
v 28.275700000000036 31.7835249999998 0
v 23.509700000000038 34.542899999999804 0
v 18.74370000000004 37.30227499999981 0
v 13.977700000000041 40.061649999999815 0
v 9.211700000000043 42.82102499999982 0
v 4.445700000000045 45.58039999999983 0
v 4.445700000000045 45.58039999999983 0
v 4.444987500000039 45.58034999999984 0
v 4.444275000000033 45.58029999999985 0
v 4.443562500000027 45.580249999999864 0
v 4.442850000000021 45.58019999999988 0
v 4.442137500000015 45.58014999999989 0
v 4.4414250000000095 45.5800999999999 0
v 4.440712500000004 45.580049999999915 0
v 4.439999999999998 45.57999999999993 0
v 12.160000000000025 55.969999999999914 0
v 17.02612500000003 53.64862499999991 0
v 21.892250000000033 51.32724999999991 0
v 26.758375000000036 49.005874999999904 0
v 31.62450000000004 46.6844999999999 0
v 36.490625000000044 44.3631249999999 0
v 41.35675000000005 42.041749999999894 0
v 46.22287500000005 39.72037499999989 0
v 51.089000000000055 37.39899999999989 0
v 51.089000000000055 37.39899999999989 0
v 63.60275000000006 35.09874999999988 0
v 76.11650000000006 32.798499999999876 0
v 88.63025000000006 30.49824999999987 0
v 101.14400000000006 28.197999999999865 0
v 113.65775000000006 25.89774999999986 0
v 126.17150000000007 23.597499999999854 0
v 138.68525000000005 21.29724999999985 0
v 151.19900000000007 18.996999999999844 0
l 1 2
l 2 3
l 3 4
l 4 5
l 5 6
l 6 7
l 7 8
l 8 9
l 10 11
l 11 12
l 12 13
l 13 14
l 14 15
l 15 16
l 16 17
l 17 18
l 19 20
l 20 21
l 21 22
l 22 23
l 23 24
l 24 25
l 25 26
l 26 27
l 28 29
l 29 30
l 30 31
l 31 32
l 32 33
l 33 34
l 34 35
l 35 36
l 37 38
l 38 39
l 39 40
l 40 41
l 41 42
l 42 43
l 43 44
l 44 45
l 46 47
l 47 48
l 48 49
l 49 50
l 50 51
l 51 52
l 52 53
l 53 54
l 55 56
l 56 57
l 57 58
l 58 59
l 59 60
l 60 61
l 61 62
l 62 63
l 64 65
l 65 66
l 66 67
l 67 68
l 68 69
l 69 70
l 70 71
l 71 72
l 73 74
l 74 75
l 75 76
l 76 77
l 77 78
l 78 79
l 79 80
l 80 81

l 82 83
l 83 84
l 84 85
l 85 86
l 86 87
l 87 88
l 88 89
l 89 90
l 91 92
l 92 93
l 93 94
l 94 95
l 95 96
l 96 97
l 97 98
l 98 99
l 100 101
l 101 102
l 102 103
l 103 104
l 104 105
l 105 106
l 106 107
l 107 108
l 109 110
l 110 111
l 111 112
l 112 113
l 113 114
l 114 115
l 115 116
l 116 117
l 118 119
l 119 120
l 120 121
l 121 122
l 122 123
l 123 124
l 124 125
l 125 126
l 127 128
l 128 129
l 129 130
l 130 131
l 131 132
l 132 133
l 133 134
l 134 135
l 136 137
l 137 138
l 138 139
l 139 140
l 140 141
l 141 142
l 142 143
l 143 144

l 145 146
l 146 147
l 147 148
l 148 149
l 149 150
l 150 151
l 151 152
l 152 153
l 154 155
l 155 156
l 156 157
l 157 158
l 158 159
l 159 160
l 160 161
l 161 162

