v 9.999829999999953 10.162293179999981 0
v 11.124829999999953 10.954506179999981 0
v 12.249829999999951 11.746719179999982 0
v 13.37482999999995 12.53893217999998 0
v 14.49982999999995 13.33114517999998 0
v 15.62482999999995 14.12335817999998 0
v 16.749829999999946 14.91557117999998 0
v 17.874829999999946 15.70778417999998 0
v 18.999829999999946 16.49999717999998 0
v 18.999829999999946 16.49999717999998 0
v 18.999829999999946 14.91557117999998 0
v 18.999829999999946 13.33114517999998 0
v 18.999829999999946 11.74671917999998 0
v 18.999829999999946 10.162293179999981 0
v 18.999829999999946 8.57786717999998 0
v 18.999829999999946 6.99344117999998 0
v 18.999829999999946 5.409015179999981 0
v 18.999829999999946 3.8245891799999807 0
v 18.999829999999946 3.824589179999981 0
v 17.874829999999946 4.616802179999981 0
v 16.749829999999946 5.409015179999981 0
v 15.62482999999995 6.2012281799999815 0
v 14.49982999999995 6.993441179999982 0
v 13.37482999999995 7.785654179999982 0
v 12.249829999999951 8.57786717999998 0
v 11.124829999999953 9.37008017999998 0
v 9.999829999999953 10.162293179999981 0
v 9.999829999999953 10.162293179999981 0
v 8.874829999999953 10.954506179999981 0
v 7.749829999999952 11.746719179999982 0
v 6.624829999999951 12.53893217999998 0
v 5.499829999999951 13.33114517999998 0
v 4.374829999999951 14.12335817999998 0
v 3.2498299999999505 14.91557117999998 0
v 2.1248299999999496 15.70778417999998 0
v 0.9998299999999496 16.49999717999998 0
v 0.9998299999999496 16.49999717999998 0
v 0.9998299999999496 14.91557117999998 0
v 0.9998299999999496 13.33114517999998 0
v 0.9998299999999496 11.74671917999998 0
v 0.9998299999999496 10.162293179999981 0
v 0.9998299999999496 8.57786717999998 0
v 0.9998299999999496 6.99344117999998 0
v 0.9998299999999496 5.409015179999981 0
v 0.9998299999999496 3.8245891799999807 0
v 0.9998299999999496 3.824589179999981 0
v 2.12482999999995 4.616802179999981 0
v 3.2498299999999505 5.409015179999981 0
v 4.374829999999951 6.2012281799999815 0
v 5.499829999999951 6.993441179999982 0
v 6.624829999999951 7.785654179999982 0
v 7.749829999999952 8.57786717999998 0
v 8.874829999999953 9.37008017999998 0
v 9.999829999999953 10.162293179999981 0
v 18.999829999999946 16.49999717999998 0
v 17.874829999999946 15.54934157999998 0
v 16.749829999999946 14.598685979999981 0
v 15.62482999999995 13.64803037999998 0
v 14.49982999999995 12.697374779999981 0
v 13.37482999999995 11.746719179999982 0
v 12.249829999999951 10.79606357999998 0
v 11.124829999999953 9.845407979999981 0
v 9.999829999999953 8.894752379999982 0
v 9.999829999999953 8.894752379999982 0
v 8.874829999999953 9.845407979999981 0
v 7.749829999999952 10.79606357999998 0
v 6.624829999999951 11.746719179999982 0
v 5.499829999999951 12.697374779999981 0
v 4.374829999999951 13.64803037999998 0
v 3.2498299999999505 14.598685979999981 0
v 2.1248299999999496 15.54934157999998 0
v 0.9998299999999496 16.49999717999998 0
v 0.9998299999999496 16.49999717999998 0
v 3.249829999999949 16.49999717999998 0
v 5.499829999999949 16.49999717999998 0
v 7.749829999999948 16.49999717999998 0
v 9.999829999999948 16.49999717999998 0
v 12.249829999999948 16.49999717999998 0
v 14.499829999999946 16.49999717999998 0
v 16.749829999999946 16.49999717999998 0
v 18.999829999999946 16.49999717999998 0
v 0.9998299999999496 3.824589179999981 0
v 2.12482999999995 4.775244779999981 0
v 3.2498299999999505 5.725900379999981 0
v 4.374829999999951 6.67655597999998 0
v 5.499829999999951 7.627211579999981 0
v 6.624829999999951 8.57786717999998 0
v 7.749829999999952 9.52852277999998 0
v 8.874829999999953 10.479178379999981 0
v 9.999829999999953 11.42983397999998 0
v 9.999829999999953 11.42983397999998 0
v 11.124829999999953 10.479178379999981 0
v 12.249829999999951 9.52852277999998 0
v 13.37482999999995 8.57786717999998 0
v 14.49982999999995 7.6272115799999805 0
v 15.62482999999995 6.67655597999998 0
v 16.749829999999946 5.725900379999981 0
v 17.874829999999946 4.775244779999981 0
v 18.999829999999946 3.8245891799999807 0
v 18.999829999999946 3.824589179999981 0
v 16.749829999999946 3.824589179999981 0
v 14.499829999999946 3.824589179999981 0
v 12.249829999999948 3.824589179999981 0
v 9.999829999999948 3.824589179999981 0
v 7.749829999999948 3.824589179999981 0
v 5.49982999999995 3.824589179999981 0
v 3.2498299999999496 3.824589179999981 0
v 0.9998299999999496 3.824589179999981 0

l 1 2
l 2 3
l 3 4
l 4 5
l 5 6
l 6 7
l 7 8
l 8 9
l 10 11
l 11 12
l 12 13
l 13 14
l 14 15
l 15 16
l 16 17
l 17 18
l 19 20
l 20 21
l 21 22
l 22 23
l 23 24
l 24 25
l 25 26
l 26 27

l 28 29
l 29 30
l 30 31
l 31 32
l 32 33
l 33 34
l 34 35
l 35 36
l 37 38
l 38 39
l 39 40
l 40 41
l 41 42
l 42 43
l 43 44
l 44 45
l 46 47
l 47 48
l 48 49
l 49 50
l 50 51
l 51 52
l 52 53
l 53 54


l 55 56
l 56 57
l 57 58
l 58 59
l 59 60
l 60 61
l 61 62
l 62 63
l 64 65
l 65 66
l 66 67
l 67 68
l 68 69
l 69 70
l 70 71
l 71 72
l 73 74
l 74 75
l 75 76
l 76 77
l 77 78
l 78 79
l 79 80
l 80 81

l 82 83
l 83 84
l 84 85
l 85 86
l 86 87
l 87 88
l 88 89
l 89 90
l 91 92
l 92 93
l 93 94
l 94 95
l 95 96
l 96 97
l 97 98
l 98 99
l 100 101
l 101 102
l 102 103
l 103 104
l 104 105
l 105 106
l 106 107
l 107 108

